<svg xmlns="http://www.w3.org/2000/svg" xmlns:xlink="http://www.w3.org/1999/xlink" version="1.1"><metadata>Created by FontForge 20170731 at Tue Oct 29 17:48:52 2019 By Aleksey,,, Copyright C 2019 by ESL and Partners. All rights reserved.</metadata><defs><font id="ESLLegend-Light" horiz-adv-x="355"><font-face x-height="700" ascent="800" bbox="-337 -200 719 961" cap-height="700" descent="-200" font-family="ESL Legend Light" font-stretch="normal" font-weight="300" panose-1="0 0 4 0 0 0 0 0 0 0" underline-position="-150" underline-thickness="50" unicode-range="U+0020-A7AA" units-per-em="1000"/><glyph d="M402 -200h-311v980h311v-980zM165 714v-32h63v-36h-64v-33h162v33h-64v36h64v32h-161zM164 588v-102h162v33h-64v69h-98zM228 519h-32v36h32v-36zM164 460v-33h64v-36h-64v-32h98v68h64v33h-162zM294 401v-65h-130v-33h162v98h-32zM228 281v-55h34v23h32v-46h-98v78h-32 v-111h162v111h-98zM164 112v-111h162v111h-162zM294 33h-98v46h98v-46zM164 -22v-32h68l-68 -46v-32h162v32h-100l69 46h31v32h-162z" glyph-name=".notdef" horiz-adv-x="490"/><glyph glyph-name=".null" horiz-adv-x="0"/><glyph glyph-name="nonmarkingreturn" horiz-adv-x="333"/><glyph glyph-name="space" horiz-adv-x="155"/><glyph d="M86 349v351h-37v-351l5 -215h28zM87.5 47.5q-8.5 8.5 -19.5 8.5t-19.5 -8.5t-8.5 -19.5t8.5 -19.5t19.5 -8.5t19.5 8.5t8.5 19.5t-8.5 19.5z" glyph-name="exclam" horiz-adv-x="136" unicode="!"/><glyph d="M64 602l8 98h-42l8 -98h26zM137 602l8 98h-42l8 -98h26z" glyph-name="quotedbl" horiz-adv-x="175" unicode="&quot;"/><glyph d="M496 456l-65 -213h161v-37h-173l-64 -206h-38l63 206h-189l-64 -206h-39l64 206h-112v37h123l66 213h-160v37h172l63 207h39l-64 -207h190l64 207h38l-63 -207h112v-37h-124zM458 456h-190l-66 -213h190z" glyph-name="numbersign" horiz-adv-x="660" unicode="#"/><glyph d="M284 569q0 60 -31 88q-25 25 -75 25t-76 -25q-31 -29 -31 -88v-30q0 -45 16 -74.5t39.5 -47t63.5 -38.5q43 -24 69 -43.5t44 -55t18 -90.5v-59q0 -76 -42 -115q-33 -30 -82 -34v-40h-37v40q-50 4 -83 34q-43 40 -43 115v112h37v-112q0 -59 31 -88q26 -25 76 -25 q48 0 75 25q31 28 31 88v59q0 47 -16 77t-39 46.5t-64 38.5q-43 22 -69 41.5t-44 54.5t-18 91v30q0 75 43 115q33 30 83 34v40h37v-40q49 -4 82 -34q42 -39 42 -115v-78h-37v78z" glyph-name="dollar" unicode="$"/><glyph d="M400 700l-216 -700h-39l216 700h39zM184.5 517.5q25.5 29.5 25.5 70.5v10q0 41 -25.5 70.5t-62.5 29.5t-62.5 -29.5t-25.5 -70.5v-10q0 -41 25.5 -70.5t62.5 -29.5t62.5 29.5zM158 642.5q15 -18.5 15 -44.5v-10q0 -26 -15 -44.5t-36 -18.5t-36 18.5t-15 44.5v10 q0 26 15 44.5t36 18.5t36 -18.5zM486.5 32.5q25.5 29.5 25.5 70.5v10q0 41 -25.5 70.5t-62.5 29.5t-63 -29.5t-26 -70.5v-10q0 -41 26 -70.5t63 -29.5t62.5 29.5zM460 157.5q15 -18.5 15 -44.5v-10q0 -26 -15 -44.5t-36 -18.5t-36.5 19t-15.5 44v10q0 26 15.5 44.5 t36.5 18.5t36 -18.5z" glyph-name="percent" horiz-adv-x="546" unicode="%"/><glyph d="M192 385q-35 39 -57.5 80t-22.5 96v19q0 74 60 107q36 22 83 22t83 -22q60 -33 60 -107v-19q0 -73 -87 -146q-16 -14 -64 -41l201 -233l92 80l23 -26l-92 -81l62 -71l-27 -23l-61 71l-21 -19q-91 -80 -177 -80q-83 0 -140 52q-62 54 -62 152q0 94 104 162zM168.5 480 q19.5 -38 51.5 -75q2 -2 2 -3q6 4 27 16.5t38 25.5q74 60 74 117v19q0 52 -41 75q-15 9 -33 13t-32 4t-32 -4t-33 -13q-41 -23 -41 -75v-19q0 -43 19.5 -81zM422 118l-206 238q-32 -18 -48 -29q-40 -27 -63 -61t-23 -70q0 -80 50 -125q45 -42 115 -42q36 0 76 18t74 48z" glyph-name="ampersand" horiz-adv-x="601" unicode="&amp;"/><glyph d="M69 602l8 98h-42l8 -98h26z" glyph-name="quotesingle" horiz-adv-x="112" unicode="'"/><glyph d="M109 13q-31 28 -31 88v498q0 60 31 88q26 25 75 25v37q-63 0 -101 -35q-42 -39 -42 -115v-498q0 -76 42 -115q38 -35 101 -35v37q-49 0 -75 25z" glyph-name="parenleft" horiz-adv-x="214" unicode="("/><glyph d="M131 -14q42 39 42 115v498q0 76 -42 115q-38 35 -101 35v-37q49 0 75 -25q31 -28 31 -88v-498q0 -60 -31 -88q-26 -25 -75 -25v-37q63 0 101 35z" glyph-name="parenright" horiz-adv-x="214" unicode=")"/><glyph d="M215 539l126 -81l-22 -30l-116 94l-38 -144l-35 11l54 140l-149 -8v37l149 -9l-54 140l35 11l38 -144l116 94l22 -30z" glyph-name="asterisk" horiz-adv-x="376" unicode="*"/><glyph d="M394 377v-37h-161v-161h-37v161h-161v37h161v161h37v-161h161z" glyph-name="plus" horiz-adv-x="429" unicode="+"/><glyph d="M77.5 46.5q8.5 -8.5 8.5 -19.5q0 -12 -8 -26q-8 -15 -28 -44h-16l11 29l2 8q0 5 -4 9q-13 10 -13 24q0 12 8.5 20t19.5 8t19.5 -8.5z" glyph-name="comma" horiz-adv-x="116" unicode=","/><glyph d="M161 377h-151v-37h151v37z" glyph-name="hyphen" horiz-adv-x="171" unicode="-"/><glyph d="M77.5 46.5q-8.5 8.5 -19.5 8.5t-19.5 -8.5t-8.5 -19.5t8.5 -19.5t19.5 -8.5t19.5 8.5t8.5 19.5t-8.5 19.5z" glyph-name="period" horiz-adv-x="116" unicode="."/><glyph d="M260 700h-39l-216 -700h39z" glyph-name="slash" horiz-adv-x="265" unicode="/"/><glyph d="M280 26q43 40 43 115v420q0 75 -43 115q-37 35 -101 35q-63 0 -100 -35q-43 -39 -43 -115v-420q0 -76 43 -115q37 -35 100 -35q64 0 101 35zM255 649q31 -29 31 -88v-420q0 -59 -31 -88q-26 -25 -76 -25q-49 0 -75 25q-31 28 -31 88v420q0 60 31 88q28 25 75 25 q48 0 76 -25z" glyph-name="zero" horiz-adv-x="359" unicode="0"/><glyph d="M154 700h21v-700h-37v637l-110 -96v49z" glyph-name="one" horiz-adv-x="215" unicode="1"/><glyph d="M307 0h-270v140q0 81 32.5 126t63.5 67.5t39 28.5l22 16q29 20 47.5 37.5t32 48t13.5 75.5v20q0 60 -31 88q-26 25 -76 25t-75 -25q-31 -27 -31 -88v-69h-37v69q0 76 43 116q37 34 100 34q64 0 101 -34q43 -41 43 -116v-20q0 -54 -17 -91.5t-39.5 -59t-55.5 -43.5 q-23 -15 -25 -17q-6 -4 -39 -29t-53.5 -66t-20.5 -93v-103h250z" glyph-name="two" horiz-adv-x="358" unicode="2"/><glyph d="M272 26q43 40 43 115v49q0 89 -61 146q-19 18 -42 30q26 14 42 29q27 26 42 57q19 41 19 87v20q0 75 -43 115q-38 35 -101 35t-101 -35q-42 -39 -42 -115v-20h37v20q0 60 31 88q25 25 75 25t76 -25q31 -29 31 -88v-20q0 -72 -49 -116q-17 -15 -34.5 -23.5t-28.5 -11.5 q-16 -4 -28 -4v-37q20 0 30 -3q33 -10 61 -35q49 -46 49 -119v-49q0 -59 -31 -88q-26 -25 -76 -25t-75 25q-31 28 -31 88v49h-37v-49q0 -76 42 -115q38 -35 101 -35t101 35z" glyph-name="three" horiz-adv-x="343" unicode="3"/><glyph d="M366 159l-17 -37h-49v-122h-37v122h-239v21l239 557h37v-541h66zM263 616l-191 -457h191v457z" glyph-name="four" horiz-adv-x="391" unicode="4"/><glyph d="M289 663h-221v-267q12 10 23 15q35 20 83 20q63 0 101 -35q42 -40 42 -116v-138q0 -77 -42 -116q-38 -35 -101 -35q-62 0 -100 35q-43 39 -43 116v47h37v-47q0 -61 31 -89q26 -25 75 -25q50 0 76 25q30 29 30 89v138q0 61 -30 89q-28 25 -76 25q-37 0 -66 -15 q-27 -15 -39 -41h-38v362h275z" glyph-name="five" horiz-adv-x="345" unicode="5"/><glyph d="M285 559q0 60 -30 88q-28 25 -76 25t-76 -25q-30 -28 -30 -88v-201q1 2 5 6q39 34 101 34t101 -34q42 -40 42 -116v-107q0 -76 -42 -115q-38 -35 -101 -35t-101 35q-42 39 -42 115v418q0 76 42 115q38 35 101 35t101 -35q42 -39 42 -115v-51h-37v51zM73 248v-107 q0 -59 30 -88q28 -25 76 -25q50 0 76 25q30 29 30 88v107q0 61 -30 88q-26 25 -76 25t-76 -25q-30 -27 -30 -88z" glyph-name="six" horiz-adv-x="354" unicode="6"/><glyph d="M331 700l-220 -700h-39l209 663h-264l17 37h297z" glyph-name="seven" horiz-adv-x="344" unicode="7"/><glyph d="M287 431q-30 -42 -71 -65q41 -24 71 -66.5t30 -109.5v-49q0 -75 -43 -115q-38 -35 -101 -35t-101 35q-42 39 -42 115v49q0 67 29.5 109.5t70.5 66.5q-40 23 -70 65t-30 108v20q0 76 42 115q38 35 101 35t101 -35q43 -40 43 -115v-20q0 -66 -30 -108zM246 437 q34 35 34 102v20q0 59 -31 88q-26 25 -76 25t-75 -25q-31 -29 -31 -88v-20q0 -67 33.5 -101.5t72.5 -51.5q39 16 73 51zM245.5 293.5q-34.5 36.5 -72.5 52.5q-38 -16 -72 -52.5t-34 -103.5v-49q0 -60 31 -88q25 -25 75 -25q48 0 76 25q31 29 31 88v49q0 67 -34.5 103.5z" glyph-name="eight" horiz-adv-x="347" unicode="8"/><glyph d="M319 559v-418q0 -76 -42 -115q-38 -35 -101 -35t-101 35q-43 40 -43 115v62h37v-62q0 -59 31 -88q28 -25 76 -25t75 25q31 28 31 88v202q-40 -40 -106 -40q-63 0 -101 35q-43 40 -43 115v106q0 75 43 115q38 35 101 35t101 -35q42 -39 42 -115zM282 453v106q0 57 -31 88 q-25 25 -75 25t-76 -25q-31 -29 -31 -88v-106q0 -59 31 -88q26 -25 76 -25t75 25q31 28 31 88z" glyph-name="nine" unicode="9"/><glyph d="M82.5 437.5q-8.5 8.5 -19.5 8.5t-19.5 -8.5t-8.5 -19.5t8.5 -19.5t19.5 -8.5t19.5 8.5t8.5 19.5t-8.5 19.5zM82.5 45.5q-8.5 8.5 -19.5 8.5t-19.5 -8.5t-8.5 -19.5t8.5 -19.5t19.5 -8.5t19.5 8.5t8.5 19.5t-8.5 19.5z" glyph-name="colon" horiz-adv-x="126" unicode=":"/><glyph d="M82.5 437.5q-8.5 8.5 -19.5 8.5t-19.5 -8.5t-8.5 -19.5t8.5 -19.5t19.5 -8.5t19.5 8.5t8.5 19.5t-8.5 19.5zM82.5 45.5q8.5 -8.5 8.5 -19.5q0 -12 -8 -26q-8 -15 -28 -44h-16l11 29l2 8q0 5 -4 9q-13 10 -13 24q0 12 8.5 20t19.5 8t19.5 -8.5z" glyph-name="semicolon" horiz-adv-x="144" unicode=";"/><glyph d="M349 238v-40l-319 142v37l319 143v-41l-270 -120z" glyph-name="less" horiz-adv-x="389" unicode="&lt;"/><glyph d="M394 470h-359v-37h359v37zM394 284h-359v-37h359v37z" glyph-name="equal" horiz-adv-x="429" unicode="="/><glyph d="M40 479v41l319 -143v-37l-319 -142v40l270 121z" glyph-name="greater" horiz-adv-x="389" unicode="&gt;"/><glyph d="M95 157q0 55 13.5 90.5t32.5 55.5t51 43q30 21 47 38.5t29 47t12 74.5v53q0 59 -31 88q-26 25 -76 25t-75 -25q-31 -28 -31 -88v-68h-37v68q0 76 42 115q38 35 101 35q64 0 101 -35q43 -40 43 -115v-53q0 -53 -13 -87.5t-32.5 -54.5t-50.5 -42q-30 -23 -47.5 -40.5 t-29.5 -48t-12 -76.5v-35h-37v35zM132.5 47.5q-8.5 8.5 -19.5 8.5q-12 0 -20 -8.5t-8 -19.5t8 -19.5t20 -8.5q11 0 19.5 8.5t8.5 19.5t-8.5 19.5z" glyph-name="question" horiz-adv-x="347" unicode="?"/><glyph d="M295 -14q-55 0 -102 16t-82 46q-39 35 -59 86q-22 51 -22 124v181q0 71 22 124q20 50 59 85q70 62 184 62t184 -62q38 -34 60 -85q21 -54 21 -124v-104q0 -74 -27 -112t-71 -38q-43 0 -70 38q-6 9 -10 17q-4 -7 -12 -15q-27 -27 -75 -27q-46 0 -75 27q-31 33 -31 89v69 q0 58 31 89q29 27 75 27q43 0 69 -22v20h37v-163q0 -61 21 -90q16 -22 40 -22q25 0 41 22q20 29 20 91v104q0 121 -68 181q-60 53 -160 53t-159 -53q-69 -60 -69 -181v-181q0 -122 69 -182q59 -53 159 -53h249l-17 -37h-232zM364 314v69q0 79 -69 79t-69 -79v-69 q0 -79 69 -79t69 79z" glyph-name="at" horiz-adv-x="590" unicode="@"/><glyph d="M287 184h-193l-40 -184h-38l156 700h37l156 -700h-38zM278 221l-87 402l-88 -402h175z" glyph-name="A" horiz-adv-x="382" unicode="A"/><glyph d="M284 32q43 39 43 114v72q0 75 -43 115q-13 11 -32 21q9 5 15 12q43 39 43 115v73q0 75 -43 113q-36 33 -100 33h-127v-700h144q63 0 100 32zM167 663q49 0 76 -24q30 -25 30 -85v-73q0 -61 -31 -88q-26 -25 -75 -25h-90v295h90zM183 331q48 0 76 -25q31 -29 31 -88v-72 q0 -109 -106 -109h-107v294h106z" glyph-name="B" horiz-adv-x="362" unicode="B"/><glyph d="M278 26q42 39 42 115v101h-37v-101q0 -60 -30 -88q-26 -25 -76 -25t-76 25q-30 28 -30 88v418q0 60 30 88q26 25 76 25t76 -25q30 -28 30 -88v-69h37v69q0 76 -42 115q-38 35 -101 35t-101 -35q-42 -39 -42 -115v-418q0 -76 42 -115q38 -35 101 -35t101 35z" glyph-name="C" horiz-adv-x="354" unicode="C"/><glyph d="M283 32q43 39 43 114v404q0 76 -42 115q-38 35 -101 35h-143v-700h143q63 0 100 32zM183 663q48 0 76 -25q30 -28 30 -88v-404q0 -109 -106 -109h-106v626h106z" glyph-name="D" horiz-adv-x="354" unicode="D"/><glyph d="M291 700l-17 -37h-197v-286h151l-17 -37h-134v-303h214l-17 -37h-234v700h251z" glyph-name="E" horiz-adv-x="319" unicode="E"/><glyph d="M291 700l-17 -37h-197v-286h152l-17 -37h-135v-340h-37v700h251z" glyph-name="F" horiz-adv-x="310" unicode="F"/><glyph d="M321 559v-69h-37v69q0 59 -31 88q-28 25 -76 25q-47 0 -75 -25q-31 -28 -31 -88v-418q0 -60 31 -88q26 -25 75 -25q50 0 76 25q31 29 31 88v191h-106l17 37h126v-228q0 -76 -43 -115q-37 -35 -101 -35q-63 0 -100 35q-43 39 -43 115v418q0 76 43 115q37 35 100 35 q64 0 101 -35q43 -39 43 -115z" glyph-name="G" unicode="G"/><glyph d="M332 700v-700h-37v340h-213v-340h-37v700h37v-323h213v323h37z" glyph-name="H" horiz-adv-x="377" unicode="H"/><glyph d="M82 700h-37v-700h37v700z" glyph-name="I" horiz-adv-x="127" unicode="I"/><glyph d="M272 26q43 40 43 115v559h-37v-559q0 -59 -31 -88q-26 -25 -76 -25t-75 25q-31 28 -31 88v97h-37v-97q0 -76 42 -115q38 -35 101 -35t101 35z" glyph-name="J" horiz-adv-x="348" unicode="J"/><glyph d="M197 368l146 -368h-39l-128 321l-99 -224v-97h-37v700h37v-522l226 522h40z" glyph-name="K" horiz-adv-x="361" unicode="K"/><glyph d="M274 0h-234v700h37v-663h214z" glyph-name="L" horiz-adv-x="309" unicode="L"/><glyph d="M439 700h20v-700h-37v558l-162 -448h-21l-162 448v-558h-37v700h20l190 -521z" glyph-name="M" horiz-adv-x="499" unicode="M"/><glyph d="M342 0h-20l-240 570v-570h-37v700h20l240 -570v570h37v-700z" glyph-name="N" horiz-adv-x="387" unicode="N"/><glyph d="M278 26q43 40 43 115v418q0 75 -43 115q-37 35 -101 35q-63 0 -100 -35q-43 -39 -43 -115v-418q0 -76 43 -115q37 -35 100 -35q64 0 101 35zM253 647q31 -29 31 -88v-418q0 -59 -31 -88q-26 -25 -76 -25q-49 0 -75 25q-31 28 -31 88v418q0 60 31 88q28 25 75 25 q48 0 76 -25z" glyph-name="O" unicode="O"/><glyph d="M183 311q63 0 101 35q43 40 43 115v89q0 75 -43 115q-38 35 -101 35h-143v-700h37v311h106zM183 663q48 0 76 -25q31 -29 31 -88v-89q0 -59 -31 -88q-28 -25 -76 -25h-106v315h106z" glyph-name="P" horiz-adv-x="350" unicode="P"/><glyph d="M358 -134h-14q-57 0 -91 32q-36 33 -38 96q-18 -3 -38 -3q-62 0 -101 34q-42 41 -42 116v418q0 76 42 115q38 35 101 35t101 -35q42 -39 42 -115v-418q0 -75 -42 -116q-12 -10 -27 -18v-5q0 -53 27 -77q25 -22 66 -22h14v-37zM177 28q50 0 76 25q30 27 30 88v418 q0 60 -30 88q-26 25 -76 25t-76 -25q-30 -28 -30 -88v-418q0 -61 30 -88q26 -25 76 -25z" glyph-name="Q" unicode="Q"/><glyph d="M288 0l-98 311h-6h-107v-311h-37v700h144q63 0 101 -35q42 -39 42 -115v-89q0 -76 -42 -115q-24 -21 -58 -30l100 -316h-39zM259 373q31 28 31 88v89q0 60 -31 88q-27 25 -75 25h-107v-315h107q48 0 75 25z" glyph-name="R" unicode="R"/><glyph d="M275 26q42 39 42 115v49q0 134 -135 193q-24 10 -47 24t-45.5 47t-22.5 85v20q0 59 31 88q26 25 76 25t75 -25q31 -28 31 -88v-68h37v68q0 76 -42 115q-38 35 -101 35q-64 0 -101 -35q-43 -40 -43 -115v-20q0 -89 46 -131t91 -59q37 -15 75 -51t38 -108v-49 q0 -60 -31 -88q-27 -25 -75 -25q-50 0 -76 25q-31 29 -31 88v102h-37v-102q0 -75 43 -115q37 -35 101 -35q63 0 101 35z" glyph-name="S" horiz-adv-x="347" unicode="S"/><glyph d="M315 663h-133v-663h-37v663h-132v37h302v-37z" glyph-name="T" horiz-adv-x="327" unicode="T"/><glyph d="M277 26q42 39 42 115v559h-37v-559q0 -59 -30 -88q-28 -25 -76 -25q-50 0 -76 25q-30 29 -30 88v559h-37v-559q0 -76 42 -115q38 -35 101 -35t101 35z" glyph-name="U" horiz-adv-x="352" unicode="U"/><glyph d="M324 700h38l-155 -700h-38l-155 700h38l136 -623z" glyph-name="V" horiz-adv-x="376" unicode="V"/><glyph d="M127 0h-20l-86 700h38l68 -566l116 455h20l116 -454l68 565h38l-86 -700h-20l-126 491z" glyph-name="W" horiz-adv-x="505" unicode="W"/><glyph d="M58 0h-40l146 349l-146 351h40l130 -314l131 314h40l-146 -351l146 -349h-40l-131 313z" glyph-name="X" horiz-adv-x="377" unicode="X"/><glyph d="M308 700h39l-150 -461v-239h-37v239l-150 461h39l129 -398z" glyph-name="Y" horiz-adv-x="356" unicode="Y"/><glyph d="M328 37v-37h-303l249 663h-249l17 37h285l-248 -663h249z" glyph-name="Z" horiz-adv-x="353" unicode="Z"/><glyph d="M183 -13h-106v725h106v37h-143v-799h143v37z" glyph-name="bracketleft" horiz-adv-x="213" unicode="["/><glyph d="M260 0l-216 700h-39l216 -700h39z" glyph-name="backslash" horiz-adv-x="265" unicode="\"/><glyph d="M173 -49v798h-143v-37h106v-724h-106v-37h143z" glyph-name="bracketright" horiz-adv-x="213" unicode="]"/><glyph d="M61 380h-41l143 320h37l142 -320h-40l-121 271z" glyph-name="asciicircum" horiz-adv-x="362" unicode="^"/><glyph d="M336 37h-326v-37h326v37z" glyph-name="underscore" horiz-adv-x="346" unicode="_"/><glyph d="M125 737h-27l-88 98h47z" glyph-name="grave" horiz-adv-x="135" unicode="`"/><glyph d="M287 184h-193l-40 -184h-38l156 700h37l156 -700h-38zM278 221l-87 402l-88 -402h175z" glyph-name="a" horiz-adv-x="382" unicode="a"/><glyph d="M284 32q43 39 43 114v72q0 75 -43 115q-13 11 -32 21q9 5 15 12q43 39 43 115v73q0 75 -43 113q-36 33 -100 33h-127v-700h144q63 0 100 32zM167 663q49 0 76 -24q30 -25 30 -85v-73q0 -61 -31 -88q-26 -25 -75 -25h-90v295h90zM183 331q48 0 76 -25q31 -29 31 -88v-72 q0 -109 -106 -109h-107v294h106z" glyph-name="b" horiz-adv-x="362" unicode="b"/><glyph d="M278 26q42 39 42 115v101h-37v-101q0 -60 -30 -88q-26 -25 -76 -25t-76 25q-30 28 -30 88v418q0 60 30 88q26 25 76 25t76 -25q30 -28 30 -88v-69h37v69q0 76 -42 115q-38 35 -101 35t-101 -35q-42 -39 -42 -115v-418q0 -76 42 -115q38 -35 101 -35t101 35z" glyph-name="c" horiz-adv-x="354" unicode="c"/><glyph d="M283 32q43 39 43 114v404q0 76 -42 115q-38 35 -101 35h-143v-700h143q63 0 100 32zM183 663q48 0 76 -25q30 -28 30 -88v-404q0 -109 -106 -109h-106v626h106z" glyph-name="d" horiz-adv-x="362" unicode="d"/><glyph d="M291 700l-17 -37h-197v-286h151l-17 -37h-134v-303h214l-17 -37h-234v700h251z" glyph-name="e" horiz-adv-x="319" unicode="e"/><glyph d="M291 700l-17 -37h-197v-286h152l-17 -37h-135v-340h-37v700h251z" glyph-name="f" horiz-adv-x="310" unicode="f"/><glyph d="M321 559v-69h-37v69q0 59 -31 88q-28 25 -76 25q-47 0 -75 -25q-31 -28 -31 -88v-418q0 -60 31 -88q26 -25 75 -25q50 0 76 25q31 29 31 88v191h-106l17 37h126v-228q0 -76 -43 -115q-37 -35 -101 -35q-63 0 -100 35q-43 39 -43 115v418q0 76 43 115q37 35 100 35 q64 0 101 -35q43 -39 43 -115z" glyph-name="g" unicode="g"/><glyph d="M332 700v-700h-37v340h-213v-340h-37v700h37v-323h213v323h37z" glyph-name="h" horiz-adv-x="377" unicode="h"/><glyph d="M82 700h-37v-700h37v700z" glyph-name="i" horiz-adv-x="127" unicode="i"/><glyph d="M272 26q43 40 43 115v559h-37v-559q0 -59 -31 -88q-26 -25 -76 -25t-75 25q-31 28 -31 88v97h-37v-97q0 -76 42 -115q38 -35 101 -35t101 35z" glyph-name="j" horiz-adv-x="348" unicode="j"/><glyph d="M197 368l146 -368h-39l-128 321l-99 -224v-97h-37v700h37v-522l226 522h40z" glyph-name="k" horiz-adv-x="361" unicode="k"/><glyph d="M274 0h-234v700h37v-663h214z" glyph-name="l" horiz-adv-x="309" unicode="l"/><glyph d="M439 700h20v-700h-37v558l-162 -448h-21l-162 448v-558h-37v700h20l190 -521z" glyph-name="m" horiz-adv-x="499" unicode="m"/><glyph d="M342 0h-20l-240 570v-570h-37v700h20l240 -570v570h37v-700z" glyph-name="n" horiz-adv-x="387" unicode="n"/><glyph d="M278 26q43 40 43 115v418q0 75 -43 115q-37 35 -101 35q-63 0 -100 -35q-43 -39 -43 -115v-418q0 -76 43 -115q37 -35 100 -35q64 0 101 35zM253 647q31 -29 31 -88v-418q0 -59 -31 -88q-26 -25 -76 -25q-49 0 -75 25q-31 28 -31 88v418q0 60 31 88q28 25 75 25 q48 0 76 -25z" glyph-name="o" unicode="o"/><glyph d="M183 311q63 0 101 35q43 40 43 115v89q0 75 -43 115q-38 35 -101 35h-143v-700h37v311h106zM183 663q48 0 76 -25q31 -29 31 -88v-89q0 -59 -31 -88q-28 -25 -76 -25h-106v315h106z" glyph-name="p" horiz-adv-x="350" unicode="p"/><glyph d="M358 -134h-14q-57 0 -91 32q-36 33 -38 96q-18 -3 -38 -3q-62 0 -101 34q-42 41 -42 116v418q0 76 42 115q38 35 101 35t101 -35q42 -39 42 -115v-418q0 -75 -42 -116q-12 -10 -27 -18v-5q0 -53 27 -77q25 -22 66 -22h14v-37zM177 28q50 0 76 25q30 27 30 88v418 q0 60 -30 88q-26 25 -76 25t-76 -25q-30 -28 -30 -88v-418q0 -61 30 -88q26 -25 76 -25z" glyph-name="q" unicode="q"/><glyph d="M288 0l-98 311h-6h-107v-311h-37v700h144q63 0 101 -35q42 -39 42 -115v-89q0 -76 -42 -115q-24 -21 -58 -30l100 -316h-39zM259 373q31 28 31 88v89q0 60 -31 88q-27 25 -75 25h-107v-315h107q48 0 75 25z" glyph-name="r" unicode="r"/><glyph d="M275 26q42 39 42 115v49q0 134 -135 193q-24 10 -47 24t-45.5 47t-22.5 85v20q0 59 31 88q26 25 76 25t75 -25q31 -28 31 -88v-68h37v68q0 76 -42 115q-38 35 -101 35q-64 0 -101 -35q-43 -40 -43 -115v-20q0 -89 46 -131t91 -59q37 -15 75 -51t38 -108v-49 q0 -60 -31 -88q-27 -25 -75 -25q-50 0 -76 25q-31 29 -31 88v102h-37v-102q0 -75 43 -115q37 -35 101 -35q63 0 101 35z" glyph-name="s" horiz-adv-x="347" unicode="s"/><glyph d="M315 663h-133v-663h-37v663h-132v37h302v-37z" glyph-name="t" horiz-adv-x="327" unicode="t"/><glyph d="M277 26q42 39 42 115v559h-37v-559q0 -59 -30 -88q-28 -25 -76 -25q-50 0 -76 25q-30 29 -30 88v559h-37v-559q0 -76 42 -115q38 -35 101 -35t101 35z" glyph-name="u" horiz-adv-x="352" unicode="u"/><glyph d="M324 700h38l-155 -700h-38l-155 700h38l136 -623z" glyph-name="v" horiz-adv-x="376" unicode="v"/><glyph d="M127 0h-20l-86 700h38l68 -566l116 455h20l116 -454l68 565h38l-86 -700h-20l-126 491z" glyph-name="w" horiz-adv-x="505" unicode="w"/><glyph d="M58 0h-40l146 349l-146 351h40l130 -314l131 314h40l-146 -351l146 -349h-40l-131 313z" glyph-name="x" horiz-adv-x="377" unicode="x"/><glyph d="M308 700h39l-150 -461v-239h-37v239l-150 461h39l129 -398z" glyph-name="y" horiz-adv-x="356" unicode="y"/><glyph d="M328 37v-37h-303l249 663h-249l17 37h285l-248 -663h249z" glyph-name="z" horiz-adv-x="353" unicode="z"/><glyph d="M173 13q-31 29 -31 88v100q0 89 -68 149q68 60 68 149v100q0 59 31 88q26 25 76 25v37q-64 0 -101 -35q-43 -40 -43 -115v-100q0 -46 -20.5 -79t-50.5 -55l-20 -15l20 -15q30 -22 50.5 -55t20.5 -79v-100q0 -75 43 -115q37 -35 101 -35v37q-50 0 -76 25z" glyph-name="braceleft" horiz-adv-x="279" unicode="{"/><glyph d="M237 760h-37v-820h37v820z" glyph-name="bar" horiz-adv-x="437" unicode="|"/><glyph d="M131 -14q43 40 43 115v100q0 46 20.5 79t50.5 55l20 15l-20 15q-30 22 -50.5 55t-20.5 79v100q0 75 -43 115q-37 35 -101 35v-37q50 0 76 -25q31 -29 31 -88v-100q0 -89 68 -149q-68 -60 -68 -149v-100q0 -59 -31 -88q-26 -25 -76 -25v-37q64 0 101 35z" glyph-name="braceright" horiz-adv-x="279" unicode="}"/><glyph d="M87.5 691.5q-8.5 8.5 -19.5 8.5t-19.5 -8.5t-8.5 -19.5t8.5 -19.5t19.5 -8.5t19.5 8.5t8.5 19.5t-8.5 19.5zM54 566l-5 -215v-351h37v351l-4 215h-28z" glyph-name="exclamdown" horiz-adv-x="136" unicode="¡"/><glyph d="M290 569q0 60 -30 88q-28 25 -76 25t-76 -25q-30 -28 -30 -88v-438q0 -59 30 -88q28 -25 76 -25t76 25q30 29 30 88v111h37v-111q0 -76 -42 -115q-33 -30 -83 -34v-40h-37v40q-49 4 -82 34q-42 39 -42 115v438q0 76 42 115q33 30 82 34v40h37v-40q50 -4 83 -34 q42 -39 42 -115v-80h-37v80z" glyph-name="cent" horiz-adv-x="364" unicode="¢"/><glyph d="M142 37q59 48 59 143v25q0 32 -1 62t-5 48h189v37h-201q-18 18 -24 55t-6 92v60q0 60 30 88q28 25 76 25t75 -25q31 -28 31 -88v-21h37v21q0 76 -42 115q-38 35 -101 35t-101 -35q-42 -39 -42 -115v-60q0 -69 8 -105q4 -22 14 -42h-84v-37h102q5 -14 6.5 -40t1.5 -70v-25 q0 -90 -61 -125q-30 -18 -63 -18h-9v-37h380v37h-269z" glyph-name="sterling" horiz-adv-x="444" unicode="£"/><glyph d="M276 215l-10 -8l31 -75l-35 -14l-29 72q-26 -9 -58 -9t-58 9l-30 -72l-34 14l31 75l-10 8q-42 41 -42 116v97q0 75 42 116l10 8l-31 76l34 14l30 -73q25 9 58 9q31 0 58 -9l29 73l35 -14l-31 -76l10 -8q42 -41 42 -116v-97q0 -75 -42 -116zM175 218q50 0 76 25 q30 27 30 88v97q0 61 -30 88q-26 25 -76 25t-76 -25q-30 -27 -30 -88v-97q0 -61 30 -88q26 -25 76 -25z" glyph-name="currency" horiz-adv-x="350" unicode="¤"/><glyph d="M200 259h138v-37h-144v-39h144v-37h-144v-146h-37v146h-145v37h145v39h-145v37h138l-143 441h39l129 -398l130 398h39z" glyph-name="yen" horiz-adv-x="351" unicode="¥"/><glyph d="M237 444h-37v316h37v-316zM200 274h37v-334h-37v334z" glyph-name="brokenbar" horiz-adv-x="437" unicode="¦"/><glyph d="M285 573q0 47 -29 73t-77 26q-47 0 -77 -25.5t-30 -73.5q0 -37 22.5 -59.5t42.5 -30.5t50 -17q3 -1 33 -8.5t60 -34.5q42 -38 42 -102q0 -46 -22.5 -78.5t-61.5 -46.5q84 -41 84 -127q0 -63 -39.5 -99t-103.5 -36q-62 0 -103 36t-41 99v44h37v-44q0 -47 29 -72.5 t78 -25.5q47 0 76.5 25t29.5 73q0 39 -22 62.5t-37 29.5t-54 19q-3 1 -33.5 7.5t-61.5 33.5q-20 16 -31 41.5t-11 58.5q0 47 23.5 80t64.5 47q-37 17 -62.5 47t-25.5 78q0 63 40 99.5t104 36.5q63 0 103 -36t40 -100v-38h-37v38zM255.5 248q29.5 25 29.5 73q0 47 -29 73 t-77 26q-47 0 -77 -25.5t-30 -73.5q0 -47 29 -72.5t78 -25.5q47 0 76.5 25z" glyph-name="section" horiz-adv-x="358" unicode="§"/><glyph d="M58 784q-8 8 -20 8q-11 0 -19.5 -8t-8.5 -20q0 -11 8.5 -19t19.5 -8q12 0 20 8t8 19q0 12 -8 20zM192 784q-8 8 -20 8q-11 0 -19.5 -8t-8.5 -20q0 -11 8.5 -19t19.5 -8q12 0 20 8t8 19q0 12 -8 20z" glyph-name="dieresis" horiz-adv-x="210" unicode="¨"/><glyph d="M65.5 534q45.5 82 125 128t177.5 46t177.5 -46t125 -128t45.5 -184t-45.5 -184t-125 -128t-177.5 -46t-177.5 46t-125 128t-45.5 184t45.5 184zM102 186q40 -73 109.5 -114t156.5 -41t156.5 41t109.5 114t40 164t-40 164t-109.5 114t-156.5 41t-156.5 -41t-109.5 -114 t-40 -164t40 -164zM469 152q42 39 42 115v20h-37v-20q0 -59 -30 -88q-26 -25 -76 -25t-76 25q-30 29 -30 88v166q0 60 30 88q26 25 76 25t76 -25q30 -28 30 -88v-20h37v20q0 76 -42 115q-38 35 -101 35t-101 -35q-42 -39 -42 -115v-166q0 -76 42 -115q38 -35 101 -35t101 35 z" glyph-name="copyright" horiz-adv-x="736" unicode="©"/><glyph d="M198 92h-42l-140 267l140 267h42l-140 -267zM305 92h-42l-140 267l140 267h42l-140 -267z" glyph-name="guillemotleft" horiz-adv-x="321" unicode="«"/><glyph d="M545.5 662q79.5 -46 125 -128t45.5 -184t-45.5 -184t-125 -128t-177.5 -46t-177.5 46t-125 128t-45.5 184t45.5 184t125 128t177.5 46t177.5 -46zM524.5 72q69.5 41 109.5 114t40 164t-40 164t-109.5 114t-156.5 41t-156.5 -41t-109.5 -114t-40 -164t40 -164t109.5 -114 t156.5 -41t156.5 41zM470.5 536q33.5 -17 50.5 -44.5t17 -58.5q0 -38 -26.5 -70t-77.5 -45l104 -169h-39l-107 164h-108v-164h-37v404h144q46 0 79.5 -17zM473.5 372.5q28.5 22.5 28.5 55.5q0 35 -30.5 61.5t-80.5 26.5h-107v-166h107q54 0 82.5 22.5z" glyph-name="registered" horiz-adv-x="736" unicode="®"/><glyph d="M336 774h-326v-37h326v37z" glyph-name="macron" horiz-adv-x="346" unicode="¯"/><glyph d="M142.5 596.5q17.5 17.5 17.5 42.5t-17.5 43t-42.5 18t-42.5 -18t-17.5 -43t17.5 -42.5t42.5 -17.5t42.5 17.5zM116.5 656q6.5 -7 6.5 -17q0 -9 -6.5 -16t-16.5 -7t-16.5 7t-6.5 16q0 10 6.5 17t16.5 7t16.5 -7z" glyph-name="degree" horiz-adv-x="200" unicode="°"/><glyph d="M125 835l-88 -98h-27l68 98h47z" glyph-name="acute" horiz-adv-x="135" unicode="´"/><glyph d="M300 0h-37v663h-37v-663h-37v312h-32q-63 0 -101 35q-42 39 -42 115v88q0 76 42 115q38 35 101 35h143v-700z" glyph-name="paragraph" horiz-adv-x="340" unicode="¶"/><glyph d="M87.5 377.5q-8.5 8.5 -19.5 8.5t-19.5 -8.5t-8.5 -19.5t8.5 -19.5t19.5 -8.5t19.5 8.5t8.5 19.5t-8.5 19.5z" glyph-name="periodcentered" horiz-adv-x="136" unicode="·"/><glyph d="M113.5 -119q17.5 18 17.5 43q0 20 -9 31.5t-23 22.5l-2 2q-8 6 -8 14v6h-37v-6q0 -27 23 -44l2 -2q9 -7 13 -11.5t4 -12.5q0 -10 -7 -17t-16 -7q-10 0 -17 7t-7 17h-37q0 -26 18 -43.5t43 -17.5t42.5 18z" glyph-name="cedilla" horiz-adv-x="141" unicode="¸"/><glyph d="M16 626h42l140 -267l-140 -267h-42l140 267zM123 626h42l140 -267l-140 -267h-42l140 267z" glyph-name="guillemotright" horiz-adv-x="321" unicode="»"/><glyph d="M214.5 652.5q8.5 -8.5 19.5 -8.5q12 0 20 8.5t8 19.5t-8 19.5t-20 8.5q-11 0 -19.5 -8.5t-8.5 -19.5t8.5 -19.5zM252 543q0 -55 -13.5 -90.5t-32.5 -55.5t-51 -43q-30 -21 -47 -38.5t-29 -47t-12 -74.5v-53q0 -59 31 -88q26 -25 76 -25t75 25q31 28 31 88v68h37v-68 q0 -76 -42 -115q-38 -35 -101 -35q-64 0 -101 35q-43 40 -43 115v53q0 53 13 87.5t32.5 54.5t50.5 42q30 23 47.5 40.5t29.5 48t12 76.5v35h37v-35z" glyph-name="questiondown" horiz-adv-x="347" unicode="¿"/><glyph d="M204 737h-27l-88 98h47zM287 184h-193l-40 -184h-38l156 700h37l156 -700h-38zM278 221l-87 402l-88 -402h175z" glyph-name="Agrave" horiz-adv-x="382" unicode="À"/><glyph d="M292 835l-88 -98h-27l68 98h47zM287 184h-193l-40 -184h-38l156 700h37l156 -700h-38zM278 221l-87 402l-88 -402h175z" glyph-name="Aacute" horiz-adv-x="382" unicode="Á"/><glyph d="M214 835l68 -98h-27l-64 72l-65 -72h-27l68 98h47zM287 184h-193l-40 -184h-38l156 700h37l156 -700h-38zM278 221l-87 402l-88 -402h175z" glyph-name="Acircumflex" horiz-adv-x="382" unicode="Â"/><glyph d="M141 769q17 0 40 -14q28 -18 55 -18q41 0 78 46l-29 24q-24 -32 -50 -32q-17 0 -35 11q-34 20 -59 20q-40 0 -79 -47l29 -23q27 33 50 33zM287 184h-193l-40 -184h-38l156 700h37l156 -700h-38zM278 221l-87 402l-88 -402h175z" glyph-name="Atilde" horiz-adv-x="382" unicode="Ã"/><glyph d="M143 784q-8 8 -20 8q-11 0 -19.5 -8t-8.5 -20q0 -11 8.5 -19t19.5 -8q12 0 20 8t8 19q0 12 -8 20zM277 784q-8 8 -20 8q-11 0 -19.5 -8t-8.5 -20q0 -11 8.5 -19t19.5 -8q12 0 20 8t8 19q0 12 -8 20zM287 184h-193l-40 -184h-38l156 700h37l156 -700h-38zM278 221l-87 402 l-88 -402h175z" glyph-name="Adieresis" horiz-adv-x="382" unicode="Ä"/><glyph d="M233.5 755.5q17.5 17.5 17.5 42.5t-17.5 43t-42.5 18t-42.5 -18t-17.5 -43t17.5 -42.5t42.5 -17.5t42.5 17.5zM207.5 815q6.5 -7 6.5 -17q0 -9 -6.5 -16t-16.5 -7t-16.5 7t-6.5 16q0 10 6.5 17t16.5 7t16.5 -7zM287 184h-193l-40 -184h-38l156 700h37l156 -700h-38z M278 221l-87 402l-88 -402h175z" glyph-name="Aring" horiz-adv-x="382" unicode="Å"/><glyph d="M320 663v-286h151l-17 -37h-134v-303h214l-17 -37h-234v136h-181l-47 -136h-39l241 700h277l-17 -37h-197zM283 662l-168 -489h168v489z" glyph-name="AE" horiz-adv-x="563" unicode="Æ"/><glyph d="M284 559q0 60 -31 88q-26 25 -75 25q-50 0 -76 -25q-31 -29 -31 -88v-418q0 -59 31 -88q26 -25 76 -25q49 0 75 25q31 28 31 88v101h37v-101q0 -76 -43 -115q-31 -30 -79 -34l4 -4l3 -2q14 -12 22.5 -23t8.5 -31q0 -25 -17.5 -43t-42.5 -18t-43 18t-18 43h37q0 -10 7 -17 t17 -7t16.5 7t6.5 17q0 8 -3.5 12.5t-12.5 11.5l-3 2q-18 15 -22 34q-51 5 -82 34q-43 40 -43 115v418q0 75 43 115q37 35 101 35q63 0 100 -35q43 -39 43 -115v-70h-37v70z" glyph-name="Ccedilla" unicode="Ç"/><glyph d="M179 737h-27l-88 98h47zM291 700l-17 -37h-197v-286h151l-17 -37h-134v-303h214l-17 -37h-234v700h251z" glyph-name="Egrave" horiz-adv-x="319" unicode="È"/><glyph d="M267 835l-88 -98h-27l68 98h47zM291 700l-17 -37h-197v-286h151l-17 -37h-134v-303h214l-17 -37h-234v700h251z" glyph-name="Eacute" horiz-adv-x="319" unicode="É"/><glyph d="M189 835l68 -98h-27l-64 72l-65 -72h-27l68 98h47zM291 700l-17 -37h-197v-286h151l-17 -37h-134v-303h214l-17 -37h-234v700h251z" glyph-name="Ecircumflex" horiz-adv-x="319" unicode="Ê"/><glyph d="M119 784q-8 8 -20 8q-11 0 -19.5 -8t-8.5 -20q0 -11 8.5 -19t19.5 -8q12 0 20 8t8 19q0 12 -8 20zM253 784q-8 8 -20 8q-11 0 -19.5 -8t-8.5 -20q0 -11 8.5 -19t19.5 -8q12 0 20 8t8 19q0 12 -8 20zM291 700l-17 -37h-197v-286h151l-17 -37h-134v-303h214l-17 -37h-234 v700h251z" glyph-name="Edieresis" horiz-adv-x="319" unicode="Ë"/><glyph d="M77 737h-27l-88 98h47zM82 700h-37v-700h37v700z" glyph-name="Igrave" horiz-adv-x="127" unicode="Ì"/><glyph d="M165 835l-88 -98h-27l68 98h47zM82 700h-37v-700h37v700z" glyph-name="Iacute" horiz-adv-x="127" unicode="Í"/><glyph d="M87 835l68 -98h-27l-64 72l-65 -72h-27l68 98h47zM83 700h-37v-700h37v700z" glyph-name="Icircumflex" horiz-adv-x="127" unicode="Î"/><glyph d="M17 784q-8 8 -20 8q-11 0 -19.5 -8t-8.5 -20q0 -11 8.5 -19t19.5 -8q12 0 20 8t8 19q0 12 -8 20zM151 784q-8 8 -20 8q-11 0 -19.5 -8t-8.5 -20q0 -11 8.5 -19t19.5 -8q12 0 20 8t8 19q0 12 -8 20zM82 700h-37v-700h37v700z" glyph-name="Idieresis" horiz-adv-x="128" unicode="Ï"/><glyph d="M332 550v-404q0 -74 -43 -114q-37 -32 -101 -32h-143v331h-40v37h40v332h143q64 0 101 -35q43 -39 43 -115zM264 638q-28 25 -76 25h-106v-295h80v-37h-80v-294h106q107 0 107 109v404q0 59 -31 88z" glyph-name="Eth" horiz-adv-x="360" unicode="Ð"/><glyph d="M146 769q17 0 40 -14q28 -18 55 -18q41 0 78 46l-29 24q-24 -32 -50 -32q-17 0 -35 11q-34 20 -59 20q-40 0 -79 -47l29 -23q27 33 50 33zM342 0h-20l-240 570v-570h-37v700h20l240 -570v570h37v-700z" glyph-name="Ntilde" horiz-adv-x="387" unicode="Ñ"/><glyph d="M190 737h-27l-88 98h47zM278 26q43 40 43 115v418q0 75 -43 115q-37 35 -101 35q-63 0 -100 -35q-43 -39 -43 -115v-418q0 -76 43 -115q37 -35 100 -35q64 0 101 35zM253 647q31 -29 31 -88v-418q0 -59 -31 -88q-26 -25 -76 -25q-49 0 -75 25q-31 28 -31 88v418 q0 60 31 88q28 25 75 25q48 0 76 -25z" glyph-name="Ograve" unicode="Ò"/><glyph d="M278 835l-88 -98h-27l68 98h47zM278 26q43 40 43 115v418q0 75 -43 115q-37 35 -101 35q-63 0 -100 -35q-43 -39 -43 -115v-418q0 -76 43 -115q37 -35 100 -35q64 0 101 35zM253 647q31 -29 31 -88v-418q0 -59 -31 -88q-26 -25 -76 -25q-49 0 -75 25q-31 28 -31 88v418 q0 60 31 88q28 25 75 25q48 0 76 -25z" glyph-name="Oacute" unicode="Ó"/><glyph d="M200 835l68 -98h-27l-64 72l-65 -72h-27l68 98h47zM278 26q43 40 43 115v418q0 75 -43 115q-37 35 -101 35q-63 0 -100 -35q-43 -39 -43 -115v-418q0 -76 43 -115q37 -35 100 -35q64 0 101 35zM253 647q31 -29 31 -88v-418q0 -59 -31 -88q-26 -25 -76 -25q-49 0 -75 25 q-31 28 -31 88v418q0 60 31 88q28 25 75 25q48 0 76 -25z" glyph-name="Ocircumflex" unicode="Ô"/><glyph d="M131 769q17 0 40 -14q29 -18 55 -18q41 0 78 46l-29 24q-24 -32 -50 -32q-17 0 -35 11q-34 20 -59 20q-40 0 -79 -47l29 -23q27 33 50 33zM278 26q43 40 43 115v418q0 75 -43 115q-37 35 -101 35q-63 0 -100 -35q-43 -39 -43 -115v-418q0 -76 43 -115q37 -35 100 -35 q64 0 101 35zM253 647q31 -29 31 -88v-418q0 -59 -31 -88q-26 -25 -76 -25q-49 0 -75 25q-31 28 -31 88v418q0 60 31 88q28 25 75 25q48 0 76 -25z" glyph-name="Otilde" unicode="Õ"/><glyph d="M130 784q-8 8 -20 8q-11 0 -19.5 -8t-8.5 -20q0 -11 8.5 -19t19.5 -8q12 0 20 8t8 19q0 12 -8 20zM264 784q-8 8 -20 8q-11 0 -19.5 -8t-8.5 -20q0 -11 8.5 -19t19.5 -8q12 0 20 8t8 19q0 12 -8 20zM278 26q43 40 43 115v418q0 75 -43 115q-37 35 -101 35q-63 0 -100 -35 q-43 -39 -43 -115v-418q0 -76 43 -115q37 -35 100 -35q64 0 101 35zM253 647q31 -29 31 -88v-418q0 -59 -31 -88q-26 -25 -76 -25q-49 0 -75 25q-31 28 -31 88v418q0 60 31 88q28 25 75 25q48 0 76 -25z" glyph-name="Odieresis" unicode="Ö"/><glyph d="M315 473l-114 -114l114 -113l-27 -27l-113 114l-114 -114l-26 27l113 113l-113 114l26 26l114 -113l113 113z" glyph-name="multiply" horiz-adv-x="350" unicode="×"/><glyph d="M322 559v-418q0 -75 -42 -116q-39 -34 -101 -34t-101 34l-6 7l-19 -48l-35 14l29 73q-11 31 -11 70v418q0 76 42 115q38 35 101 35t101 -35l6 -6l19 47l34 -14l-29 -72q12 -30 12 -70zM73 134l197 493q-5 10 -15 20q-26 25 -76 25t-76 -25q-30 -28 -30 -88v-418v-7z M285 565l-197 -493q7 -12 15 -19q26 -25 76 -25t76 25q30 27 30 88v418v6z" glyph-name="Oslash" horiz-adv-x="357" unicode="Ø"/><glyph d="M185 737h-27l-88 98h47zM277 26q42 39 42 115v559h-37v-559q0 -59 -30 -88q-28 -25 -76 -25q-50 0 -76 25q-30 29 -30 88v559h-37v-559q0 -76 42 -115q38 -35 101 -35t101 35z" glyph-name="Ugrave" horiz-adv-x="352" unicode="Ù"/><glyph d="M272 835l-88 -98h-27l68 98h47zM277 26q42 39 42 115v559h-37v-559q0 -59 -30 -88q-28 -25 -76 -25q-50 0 -76 25q-30 29 -30 88v559h-37v-559q0 -76 42 -115q38 -35 101 -35t101 35z" glyph-name="Uacute" horiz-adv-x="352" unicode="Ú"/><glyph d="M200 835l68 -98h-27l-64 72l-65 -72h-27l68 98h47zM277 26q42 39 42 115v559h-37v-559q0 -59 -30 -88q-28 -25 -76 -25q-50 0 -76 25q-30 29 -30 88v559h-37v-559q0 -76 42 -115q38 -35 101 -35t101 35z" glyph-name="Ucircumflex" horiz-adv-x="352" unicode="Û"/><glyph d="M130 784q-8 8 -20 8q-11 0 -19.5 -8t-8.5 -20q0 -11 8.5 -19t19.5 -8q12 0 20 8t8 19q0 12 -8 20zM264 784q-8 8 -20 8q-11 0 -19.5 -8t-8.5 -20q0 -11 8.5 -19t19.5 -8q12 0 20 8t8 19q0 12 -8 20zM277 26q42 39 42 115v559h-37v-559q0 -59 -30 -88q-28 -25 -76 -25 q-50 0 -76 25q-30 29 -30 88v559h-37v-559q0 -76 42 -115q38 -35 101 -35t101 35z" glyph-name="Udieresis" horiz-adv-x="352" unicode="Ü"/><glyph d="M280 835l-88 -98h-27l68 98h47zM308 700h39l-150 -461v-239h-37v239l-150 461h39l129 -398z" glyph-name="Yacute" horiz-adv-x="356" unicode="Ý"/><glyph d="M183 253q63 0 101 35q43 40 43 115v89q0 75 -43 115q-38 35 -101 35h-106v58h-37v-700h37v253h106zM183 605q48 0 76 -25q31 -29 31 -88v-89q0 -59 -31 -88q-28 -25 -76 -25h-106v315h106z" glyph-name="Thorn" horiz-adv-x="350" unicode="Þ"/><glyph d="M327 218v-72q0 -75 -43 -114q-37 -32 -100 -32h-67v37h67q106 0 106 109v72q0 59 -31 88q-28 25 -76 25h-66v37h50q49 0 75 25q31 27 31 88v73q0 60 -30 85q-26 24 -68 24q-41 0 -68 -24q-30 -25 -30 -85v-554h-37v554q0 75 43 113q17 15 40.5 24t51.5 9q56 0 92 -33 q43 -38 43 -113v-73q0 -76 -43 -115q-6 -7 -15 -12q19 -10 32 -21q43 -40 43 -115z" glyph-name="germandbls" horiz-adv-x="362" unicode="ß"/><glyph d="M204 737h-27l-88 98h47zM287 184h-193l-40 -184h-38l156 700h37l156 -700h-38zM278 221l-87 402l-88 -402h175z" glyph-name="agrave" horiz-adv-x="382" unicode="à"/><glyph d="M292 835l-88 -98h-27l68 98h47zM287 184h-193l-40 -184h-38l156 700h37l156 -700h-38zM278 221l-87 402l-88 -402h175z" glyph-name="aacute" horiz-adv-x="382" unicode="á"/><glyph d="M214 835l68 -98h-27l-64 72l-65 -72h-27l68 98h47zM287 184h-193l-40 -184h-38l156 700h37l156 -700h-38zM278 221l-87 402l-88 -402h175z" glyph-name="acircumflex" horiz-adv-x="382" unicode="â"/><glyph d="M141 769q17 0 40 -14q28 -18 55 -18q41 0 78 46l-29 24q-24 -32 -50 -32q-17 0 -35 11q-34 20 -59 20q-40 0 -79 -47l29 -23q27 33 50 33zM287 184h-193l-40 -184h-38l156 700h37l156 -700h-38zM278 221l-87 402l-88 -402h175z" glyph-name="atilde" horiz-adv-x="382" unicode="ã"/><glyph d="M143 784q-8 8 -20 8q-11 0 -19.5 -8t-8.5 -20q0 -11 8.5 -19t19.5 -8q12 0 20 8t8 19q0 12 -8 20zM277 784q-8 8 -20 8q-11 0 -19.5 -8t-8.5 -20q0 -11 8.5 -19t19.5 -8q12 0 20 8t8 19q0 12 -8 20zM287 184h-193l-40 -184h-38l156 700h37l156 -700h-38zM278 221l-87 402 l-88 -402h175z" glyph-name="adieresis" horiz-adv-x="382" unicode="ä"/><glyph d="M233.5 755.5q17.5 17.5 17.5 42.5t-17.5 43t-42.5 18t-42.5 -18t-17.5 -43t17.5 -42.5t42.5 -17.5t42.5 17.5zM207.5 815q6.5 -7 6.5 -17q0 -9 -6.5 -16t-16.5 -7t-16.5 7t-6.5 16q0 10 6.5 17t16.5 7t16.5 -7zM287 184h-193l-40 -184h-38l156 700h37l156 -700h-38z M278 221l-87 402l-88 -402h175z" glyph-name="aring" horiz-adv-x="382" unicode="å"/><glyph d="M320 663v-286h151l-17 -37h-134v-303h214l-17 -37h-234v136h-181l-47 -136h-39l241 700h277l-17 -37h-197zM283 662l-168 -489h168v489z" glyph-name="ae" horiz-adv-x="563" unicode="æ"/><glyph d="M284 559q0 60 -31 88q-26 25 -75 25q-50 0 -76 -25q-31 -29 -31 -88v-418q0 -59 31 -88q26 -25 76 -25q49 0 75 25q31 28 31 88v101h37v-101q0 -76 -43 -115q-31 -30 -79 -34l4 -4l3 -2q14 -12 22.5 -23t8.5 -31q0 -25 -17.5 -43t-42.5 -18t-43 18t-18 43h37q0 -10 7 -17 t17 -7t16.5 7t6.5 17q0 8 -3.5 12.5t-12.5 11.5l-3 2q-18 15 -22 34q-51 5 -82 34q-43 40 -43 115v418q0 75 43 115q37 35 101 35q63 0 100 -35q43 -39 43 -115v-70h-37v70z" glyph-name="ccedilla" unicode="ç"/><glyph d="M179 737h-27l-88 98h47zM291 700l-17 -37h-197v-286h151l-17 -37h-134v-303h214l-17 -37h-234v700h251z" glyph-name="egrave" horiz-adv-x="319" unicode="è"/><glyph d="M267 835l-88 -98h-27l68 98h47zM291 700l-17 -37h-197v-286h151l-17 -37h-134v-303h214l-17 -37h-234v700h251z" glyph-name="eacute" horiz-adv-x="319" unicode="é"/><glyph d="M189 835l68 -98h-27l-64 72l-65 -72h-27l68 98h47zM291 700l-17 -37h-197v-286h151l-17 -37h-134v-303h214l-17 -37h-234v700h251z" glyph-name="ecircumflex" horiz-adv-x="319" unicode="ê"/><glyph d="M119 784q-8 8 -20 8q-11 0 -19.5 -8t-8.5 -20q0 -11 8.5 -19t19.5 -8q12 0 20 8t8 19q0 12 -8 20zM253 784q-8 8 -20 8q-11 0 -19.5 -8t-8.5 -20q0 -11 8.5 -19t19.5 -8q12 0 20 8t8 19q0 12 -8 20zM291 700l-17 -37h-197v-286h151l-17 -37h-134v-303h214l-17 -37h-234 v700h251z" glyph-name="edieresis" horiz-adv-x="319" unicode="ë"/><glyph d="M77 737h-27l-88 98h47zM82 700h-37v-700h37v700z" glyph-name="igrave" horiz-adv-x="127" unicode="ì"/><glyph d="M165 835l-88 -98h-27l68 98h47zM82 700h-37v-700h37v700z" glyph-name="iacute" horiz-adv-x="127" unicode="í"/><glyph d="M87 835l68 -98h-27l-64 72l-65 -72h-27l68 98h47zM83 700h-37v-700h37v700z" glyph-name="icircumflex" horiz-adv-x="127" unicode="î"/><glyph d="M17 784q-8 8 -20 8q-11 0 -19.5 -8t-8.5 -20q0 -11 8.5 -19t19.5 -8q12 0 20 8t8 19q0 12 -8 20zM151 784q-8 8 -20 8q-11 0 -19.5 -8t-8.5 -20q0 -11 8.5 -19t19.5 -8q12 0 20 8t8 19q0 12 -8 20zM82 700h-37v-700h37v700z" glyph-name="idieresis" horiz-adv-x="128" unicode="ï"/><glyph d="M332 550v-404q0 -74 -43 -114q-37 -32 -101 -32h-143v331h-40v37h40v332h143q64 0 101 -35q43 -39 43 -115zM264 638q-28 25 -76 25h-106v-295h80v-37h-80v-294h106q107 0 107 109v404q0 59 -31 88z" glyph-name="eth" horiz-adv-x="360" unicode="ð"/><glyph d="M146 769q17 0 40 -14q28 -18 55 -18q41 0 78 46l-29 24q-24 -32 -50 -32q-17 0 -35 11q-34 20 -59 20q-40 0 -79 -47l29 -23q27 33 50 33zM342 0h-20l-240 570v-570h-37v700h20l240 -570v570h37v-700z" glyph-name="ntilde" horiz-adv-x="387" unicode="ñ"/><glyph d="M190 737h-27l-88 98h47zM278 26q43 40 43 115v418q0 75 -43 115q-37 35 -101 35q-63 0 -100 -35q-43 -39 -43 -115v-418q0 -76 43 -115q37 -35 100 -35q64 0 101 35zM253 647q31 -29 31 -88v-418q0 -59 -31 -88q-26 -25 -76 -25q-49 0 -75 25q-31 28 -31 88v418 q0 60 31 88q28 25 75 25q48 0 76 -25z" glyph-name="ograve" unicode="ò"/><glyph d="M278 835l-88 -98h-27l68 98h47zM278 26q43 40 43 115v418q0 75 -43 115q-37 35 -101 35q-63 0 -100 -35q-43 -39 -43 -115v-418q0 -76 43 -115q37 -35 100 -35q64 0 101 35zM253 647q31 -29 31 -88v-418q0 -59 -31 -88q-26 -25 -76 -25q-49 0 -75 25q-31 28 -31 88v418 q0 60 31 88q28 25 75 25q48 0 76 -25z" glyph-name="oacute" unicode="ó"/><glyph d="M200 835l68 -98h-27l-64 72l-65 -72h-27l68 98h47zM278 26q43 40 43 115v418q0 75 -43 115q-37 35 -101 35q-63 0 -100 -35q-43 -39 -43 -115v-418q0 -76 43 -115q37 -35 100 -35q64 0 101 35zM253 647q31 -29 31 -88v-418q0 -59 -31 -88q-26 -25 -76 -25q-49 0 -75 25 q-31 28 -31 88v418q0 60 31 88q28 25 75 25q48 0 76 -25z" glyph-name="ocircumflex" unicode="ô"/><glyph d="M131 769q17 0 40 -14q29 -18 55 -18q41 0 78 46l-29 24q-24 -32 -50 -32q-17 0 -35 11q-34 20 -59 20q-40 0 -79 -47l29 -23q27 33 50 33zM278 26q43 40 43 115v418q0 75 -43 115q-37 35 -101 35q-63 0 -100 -35q-43 -39 -43 -115v-418q0 -76 43 -115q37 -35 100 -35 q64 0 101 35zM253 647q31 -29 31 -88v-418q0 -59 -31 -88q-26 -25 -76 -25q-49 0 -75 25q-31 28 -31 88v418q0 60 31 88q28 25 75 25q48 0 76 -25z" glyph-name="otilde" unicode="õ"/><glyph d="M130 784q-8 8 -20 8q-11 0 -19.5 -8t-8.5 -20q0 -11 8.5 -19t19.5 -8q12 0 20 8t8 19q0 12 -8 20zM264 784q-8 8 -20 8q-11 0 -19.5 -8t-8.5 -20q0 -11 8.5 -19t19.5 -8q12 0 20 8t8 19q0 12 -8 20zM278 26q43 40 43 115v418q0 75 -43 115q-37 35 -101 35q-63 0 -100 -35 q-43 -39 -43 -115v-418q0 -76 43 -115q37 -35 100 -35q64 0 101 35zM253 647q31 -29 31 -88v-418q0 -59 -31 -88q-26 -25 -76 -25q-49 0 -75 25q-31 28 -31 88v418q0 60 31 88q28 25 75 25q48 0 76 -25z" glyph-name="odieresis" unicode="ö"/><glyph d="M218 481q-8 8 -20 8q-11 0 -19.5 -8t-8.5 -20q0 -11 8.5 -19.5t19.5 -8.5q12 0 20 8.5t8 19.5q0 12 -8 20zM361 377h-326v-37h326v37zM218 276q-8 8 -20 8q-11 0 -19.5 -8t-8.5 -20q0 -11 8.5 -19.5t19.5 -8.5q12 0 20 8.5t8 19.5q0 12 -8 20z" glyph-name="divide" horiz-adv-x="396" unicode="÷"/><glyph d="M322 559v-418q0 -75 -42 -116q-39 -34 -101 -34t-101 34l-6 7l-19 -48l-35 14l29 73q-11 31 -11 70v418q0 76 42 115q38 35 101 35t101 -35l6 -6l19 47l34 -14l-29 -72q12 -30 12 -70zM73 134l197 493q-5 10 -15 20q-26 25 -76 25t-76 -25q-30 -28 -30 -88v-418v-7z M285 565l-197 -493q7 -12 15 -19q26 -25 76 -25t76 25q30 27 30 88v418v6z" glyph-name="oslash" horiz-adv-x="357" unicode="ø"/><glyph d="M185 737h-27l-88 98h47zM277 26q42 39 42 115v559h-37v-559q0 -59 -30 -88q-28 -25 -76 -25q-50 0 -76 25q-30 29 -30 88v559h-37v-559q0 -76 42 -115q38 -35 101 -35t101 35z" glyph-name="ugrave" horiz-adv-x="352" unicode="ù"/><glyph d="M272 835l-88 -98h-27l68 98h47zM277 26q42 39 42 115v559h-37v-559q0 -59 -30 -88q-28 -25 -76 -25q-50 0 -76 25q-30 29 -30 88v559h-37v-559q0 -76 42 -115q38 -35 101 -35t101 35z" glyph-name="uacute" horiz-adv-x="352" unicode="ú"/><glyph d="M200 835l68 -98h-27l-64 72l-65 -72h-27l68 98h47zM277 26q42 39 42 115v559h-37v-559q0 -59 -30 -88q-28 -25 -76 -25q-50 0 -76 25q-30 29 -30 88v559h-37v-559q0 -76 42 -115q38 -35 101 -35t101 35z" glyph-name="ucircumflex" horiz-adv-x="352" unicode="û"/><glyph d="M130 784q-8 8 -20 8q-11 0 -19.5 -8t-8.5 -20q0 -11 8.5 -19t19.5 -8q12 0 20 8t8 19q0 12 -8 20zM264 784q-8 8 -20 8q-11 0 -19.5 -8t-8.5 -20q0 -11 8.5 -19t19.5 -8q12 0 20 8t8 19q0 12 -8 20zM277 26q42 39 42 115v559h-37v-559q0 -59 -30 -88q-28 -25 -76 -25 q-50 0 -76 25q-30 29 -30 88v559h-37v-559q0 -76 42 -115q38 -35 101 -35t101 35z" glyph-name="udieresis" horiz-adv-x="352" unicode="ü"/><glyph d="M280 835l-88 -98h-27l68 98h47zM308 700h39l-150 -461v-239h-37v239l-150 461h39l129 -398z" glyph-name="yacute" horiz-adv-x="356" unicode="ý"/><glyph d="M183 253q63 0 101 35q43 40 43 115v89q0 75 -43 115q-38 35 -101 35h-106v58h-37v-700h37v253h106zM183 605q48 0 76 -25q31 -29 31 -88v-89q0 -59 -31 -88q-28 -25 -76 -25h-106v315h106z" glyph-name="thorn" horiz-adv-x="350" unicode="þ"/><glyph d="M131 784q-8 8 -20 8q-11 0 -19.5 -8t-8.5 -20q0 -11 8.5 -19t19.5 -8q12 0 20 8t8 19q0 12 -8 20zM265 784q-8 8 -20 8q-11 0 -19.5 -8t-8.5 -20q0 -11 8.5 -19t19.5 -8q12 0 20 8t8 19q0 12 -8 20zM308 700h39l-150 -461v-239h-37v239l-150 461h39l129 -398z" glyph-name="ydieresis" horiz-adv-x="356" unicode="ÿ"/><glyph d="M354 774h-326v-37h326v37zM287 184h-193l-40 -184h-38l156 700h37l156 -700h-38zM278 221l-87 402l-88 -402h175z" glyph-name="Amacron" horiz-adv-x="382" unicode="Ā"/><glyph d="M354 774h-326v-37h326v37zM287 184h-193l-40 -184h-38l156 700h37l156 -700h-38zM278 221l-87 402l-88 -402h175z" glyph-name="amacron" horiz-adv-x="382" unicode="ā"/><glyph d="M260.5 766q-28.5 -29 -69.5 -29q-40 0 -69 29t-29 69h37q0 -25 18 -43t43 -18q26 0 43.5 18t17.5 43h37q0 -40 -28.5 -69zM287 184h-193l-40 -184h-38l156 700h37l156 -700h-38zM278 221l-87 402l-88 -402h175z" glyph-name="Abreve" horiz-adv-x="382" unicode="Ă"/><glyph d="M260.5 766q-28.5 -29 -69.5 -29q-40 0 -69 29t-29 69h37q0 -25 18 -43t43 -18q26 0 43.5 18t17.5 43h37q0 -40 -28.5 -69zM287 184h-193l-40 -184h-38l156 700h37l156 -700h-38zM278 221l-87 402l-88 -402h175z" glyph-name="abreve" horiz-adv-x="382" unicode="ă"/><glyph d="M319 -76q15 -5 30 -5h9v-38h-19q-36 0 -57.5 12t-21.5 36q0 36 68 71h-1l-40 184h-193l-40 -184h-38l156 700h37l156 -700q-21 -8 -41 -24t-20 -33q0 -14 15 -19zM278 221l-87 402l-88 -402h175z" glyph-name="Aogonek" horiz-adv-x="382" unicode="Ą"/><glyph d="M319 -76q15 -5 30 -5h9v-38h-19q-36 0 -57.5 12t-21.5 36q0 36 68 71h-1l-40 184h-193l-40 -184h-38l156 700h37l156 -700q-21 -8 -41 -24t-20 -33q0 -14 15 -19zM278 221l-87 402l-88 -402h175z" glyph-name="aogonek" horiz-adv-x="382" unicode="ą"/><glyph d="M278 835l-88 -98h-27l68 98h47zM278 26q42 39 42 115v101h-37v-101q0 -60 -30 -88q-26 -25 -76 -25t-76 25q-30 28 -30 88v418q0 60 30 88q26 25 76 25t76 -25q30 -28 30 -88v-69h37v69q0 76 -42 115q-38 35 -101 35t-101 -35q-42 -39 -42 -115v-418q0 -76 42 -115 q38 -35 101 -35t101 35z" glyph-name="Cacute" horiz-adv-x="354" unicode="Ć"/><glyph d="M278 835l-88 -98h-27l68 98h47zM278 26q42 39 42 115v101h-37v-101q0 -60 -30 -88q-26 -25 -76 -25t-76 25q-30 28 -30 88v418q0 60 30 88q26 25 76 25t76 -25q30 -28 30 -88v-69h37v69q0 76 -42 115q-38 35 -101 35t-101 -35q-42 -39 -42 -115v-418q0 -76 42 -115 q38 -35 101 -35t101 35z" glyph-name="cacute" horiz-adv-x="354" unicode="ć"/><glyph d="M197 784q-8 8 -20 8q-11 0 -19.5 -8t-8.5 -20q0 -11 8.5 -19t19.5 -8q12 0 20 8t8 19q0 12 -8 20zM278 26q42 39 42 115v101h-37v-101q0 -60 -30 -88q-26 -25 -76 -25t-76 25q-30 28 -30 88v418q0 60 30 88q26 25 76 25t76 -25q30 -28 30 -88v-69h37v69q0 76 -42 115 q-38 35 -101 35t-101 -35q-42 -39 -42 -115v-418q0 -76 42 -115q38 -35 101 -35t101 35z" glyph-name="Cdotaccent" horiz-adv-x="354" unicode="Ċ"/><glyph d="M197 784q-8 8 -20 8q-11 0 -19.5 -8t-8.5 -20q0 -11 8.5 -19t19.5 -8q12 0 20 8t8 19q0 12 -8 20zM278 26q42 39 42 115v101h-37v-101q0 -60 -30 -88q-26 -25 -76 -25t-76 25q-30 28 -30 88v418q0 60 30 88q26 25 76 25t76 -25q30 -28 30 -88v-69h37v69q0 76 -42 115 q-38 35 -101 35t-101 -35q-42 -39 -42 -115v-418q0 -76 42 -115q38 -35 101 -35t101 35z" glyph-name="cdotaccent" horiz-adv-x="354" unicode="ċ"/><glyph d="M85 835h27l65 -72l64 72h27l-68 -98h-47zM278 26q42 39 42 115v101h-37v-101q0 -60 -30 -88q-26 -25 -76 -25t-76 25q-30 28 -30 88v418q0 60 30 88q26 25 76 25t76 -25q30 -28 30 -88v-69h37v69q0 76 -42 115q-38 35 -101 35t-101 -35q-42 -39 -42 -115v-418 q0 -76 42 -115q38 -35 101 -35t101 35z" glyph-name="Ccaron" horiz-adv-x="354" unicode="Č"/><glyph d="M85 835h27l65 -72l64 72h27l-68 -98h-47zM278 26q42 39 42 115v101h-37v-101q0 -60 -30 -88q-26 -25 -76 -25t-76 25q-30 28 -30 88v418q0 60 30 88q26 25 76 25t76 -25q30 -28 30 -88v-69h37v69q0 76 -42 115q-38 35 -101 35t-101 -35q-42 -39 -42 -115v-418 q0 -76 42 -115q38 -35 101 -35t101 35z" glyph-name="ccaron" horiz-adv-x="354" unicode="č"/><glyph d="M91 835h27l65 -72l64 72h27l-68 -98h-47zM283 32q43 39 43 114v404q0 76 -42 115q-38 35 -101 35h-143v-700h143q63 0 100 32zM183 663q48 0 76 -25q30 -28 30 -88v-404q0 -109 -106 -109h-106v626h106z" glyph-name="Dcaron" horiz-adv-x="354" unicode="Ď"/><glyph d="M91 835h27l65 -72l64 72h27l-68 -98h-47zM283 32q43 39 43 114v404q0 76 -42 115q-38 35 -101 35h-143v-700h143q63 0 100 32zM183 663q48 0 76 -25q30 -28 30 -88v-404q0 -109 -106 -109h-106v626h106z" glyph-name="dcaron" horiz-adv-x="354" unicode="ď"/><glyph d="M332 550v-404q0 -74 -43 -114q-37 -32 -101 -32h-143v331h-40v37h40v332h143q64 0 101 -35q43 -39 43 -115zM264 638q-28 25 -76 25h-106v-295h80v-37h-80v-294h106q107 0 107 109v404q0 59 -31 88z" glyph-name="Dcroat" horiz-adv-x="360" unicode="Đ"/><glyph d="M332 550v-404q0 -74 -43 -114q-37 -32 -101 -32h-143v331h-40v37h40v332h143q64 0 101 -35q43 -39 43 -115zM264 638q-28 25 -76 25h-106v-295h80v-37h-80v-294h106q107 0 107 109v404q0 59 -31 88z" glyph-name="dcroat" horiz-adv-x="360" unicode="đ"/><glyph d="M329 774h-326v-37h326v37zM291 700l-17 -37h-197v-286h151l-17 -37h-134v-303h214l-17 -37h-234v700h251z" glyph-name="Emacron" horiz-adv-x="319" unicode="Ē"/><glyph d="M329 774h-326v-37h326v37zM291 700l-17 -37h-197v-286h151l-17 -37h-134v-303h214l-17 -37h-234v700h251z" glyph-name="emacron" horiz-adv-x="319" unicode="ē"/><glyph d="M186 784q-8 8 -20 8q-11 0 -19.5 -8t-8.5 -20q0 -11 8.5 -19t19.5 -8q12 0 20 8t8 19q0 12 -8 20zM291 700l-17 -37h-197v-286h151l-17 -37h-134v-303h214l-17 -37h-234v700h251z" glyph-name="Edotaccent" horiz-adv-x="319" unicode="Ė"/><glyph d="M186 784q-8 8 -20 8q-11 0 -19.5 -8t-8.5 -20q0 -11 8.5 -19t19.5 -8q12 0 20 8t8 19q0 12 -8 20zM291 700l-17 -37h-197v-286h151l-17 -37h-134v-303h214l-17 -37h-234v700h251z" glyph-name="edotaccent" horiz-adv-x="319" unicode="ė"/><glyph d="M77 377h151l-17 -37h-134v-303h214l-17 -37q-21 -8 -41 -24t-20 -33q0 -14 15 -19t30 -5h9v-38h-19q-36 0 -57.5 12t-21.5 36q0 36 68 71h-197v700h251l-17 -37h-197v-286z" glyph-name="Eogonek" horiz-adv-x="319" unicode="Ę"/><glyph d="M77 377h151l-17 -37h-134v-303h214l-17 -37q-21 -8 -41 -24t-20 -33q0 -14 15 -19t30 -5h9v-38h-19q-36 0 -57.5 12t-21.5 36q0 36 68 71h-197v700h251l-17 -37h-197v-286z" glyph-name="eogonek" horiz-adv-x="319" unicode="ę"/><glyph d="M74 835h27l65 -72l64 72h27l-68 -98h-47zM291 700l-17 -37h-197v-286h151l-17 -37h-134v-303h214l-17 -37h-234v700h251z" glyph-name="Ecaron" horiz-adv-x="319" unicode="Ě"/><glyph d="M74 835h27l65 -72l64 72h27l-68 -98h-47zM291 700l-17 -37h-197v-286h151l-17 -37h-134v-303h214l-17 -37h-234v700h251z" glyph-name="ecaron" horiz-adv-x="319" unicode="ě"/><glyph d="M246.5 766q-28.5 -29 -69.5 -29q-40 0 -69 29t-29 69h37q0 -25 18 -43t43 -18q26 0 43.5 18t17.5 43h37q0 -40 -28.5 -69zM321 559v-69h-37v69q0 59 -31 88q-28 25 -76 25q-47 0 -75 -25q-31 -28 -31 -88v-418q0 -60 31 -88q26 -25 75 -25q50 0 76 25q31 29 31 88v191 h-106l17 37h126v-228q0 -76 -43 -115q-37 -35 -101 -35q-63 0 -100 35q-43 39 -43 115v418q0 76 43 115q37 35 100 35q64 0 101 -35q43 -39 43 -115z" glyph-name="Gbreve" unicode="Ğ"/><glyph d="M246.5 766q-28.5 -29 -69.5 -29q-40 0 -69 29t-29 69h37q0 -25 18 -43t43 -18q26 0 43.5 18t17.5 43h37q0 -40 -28.5 -69zM321 559v-69h-37v69q0 59 -31 88q-28 25 -76 25q-47 0 -75 -25q-31 -28 -31 -88v-418q0 -60 31 -88q26 -25 75 -25q50 0 76 25q31 29 31 88v191 h-106l17 37h126v-228q0 -76 -43 -115q-37 -35 -101 -35q-63 0 -100 35q-43 39 -43 115v418q0 76 43 115q37 35 100 35q64 0 101 -35q43 -39 43 -115z" glyph-name="gbreve" unicode="ğ"/><glyph d="M197 784q-8 8 -20 8q-11 0 -19.5 -8t-8.5 -20q0 -11 8.5 -19t19.5 -8q12 0 20 8t8 19q0 12 -8 20zM321 559v-69h-37v69q0 59 -31 88q-28 25 -76 25q-47 0 -75 -25q-31 -28 -31 -88v-418q0 -60 31 -88q26 -25 75 -25q50 0 76 25q31 29 31 88v191h-106l17 37h126v-228 q0 -76 -43 -115q-37 -35 -101 -35q-63 0 -100 35q-43 39 -43 115v418q0 76 43 115q37 35 100 35q64 0 101 -35q43 -39 43 -115z" glyph-name="Gdotaccent" unicode="Ġ"/><glyph d="M197 784q-8 8 -20 8q-11 0 -19.5 -8t-8.5 -20q0 -11 8.5 -19t19.5 -8q12 0 20 8t8 19q0 12 -8 20zM321 559v-69h-37v69q0 59 -31 88q-28 25 -76 25q-47 0 -75 -25q-31 -28 -31 -88v-418q0 -60 31 -88q26 -25 75 -25q50 0 76 25q31 29 31 88v191h-106l17 37h126v-228 q0 -76 -43 -115q-37 -35 -101 -35q-63 0 -100 35q-43 39 -43 115v418q0 76 43 115q37 35 100 35q64 0 101 -35q43 -39 43 -115z" glyph-name="gdotaccent" unicode="ġ"/><glyph d="M321 559v-69h-37v69q0 59 -31 88q-28 25 -76 25q-47 0 -75 -25q-31 -28 -31 -88v-418q0 -60 31 -88q26 -25 75 -25q50 0 76 25q31 29 31 88v191h-106l17 37h126v-228q0 -76 -43 -115q-37 -35 -101 -35q-63 0 -100 35q-43 39 -43 115v418q0 76 43 115q37 35 100 35 q64 0 101 -35q43 -39 43 -115zM198 -94q-6 -13 -19 -30h-20l6 15l2 8q0 5 -4 9q-13 10 -13 24q0 12 8.5 20t19.5 8t19.5 -8.5t8.5 -19.5q0 -12 -8 -26z" glyph-name="uni0122" unicode="Ģ"/><glyph d="M321 559v-69h-37v69q0 59 -31 88q-28 25 -76 25q-47 0 -75 -25q-31 -28 -31 -88v-418q0 -60 31 -88q26 -25 75 -25q50 0 76 25q31 29 31 88v191h-106l17 37h126v-228q0 -76 -43 -115q-37 -35 -101 -35q-63 0 -100 35q-43 39 -43 115v418q0 76 43 115q37 35 100 35 q64 0 101 -35q43 -39 43 -115zM198 -94q-6 -13 -19 -30h-20l6 15l2 8q0 5 -4 9q-13 10 -13 24q0 12 8.5 20t19.5 8t19.5 -8.5t8.5 -19.5q0 -12 -8 -26z" glyph-name="uni0123" unicode="ģ"/><glyph d="M336 554h40v-37h-40v-517h-37v340h-212v-340h-37v517h-40v37h40v146h37v-146h212v146h37v-146zM299 517h-212v-140h212v140z" glyph-name="Hbar" horiz-adv-x="386" unicode="Ħ"/><glyph d="M336 554h40v-37h-40v-517h-37v340h-212v-340h-37v517h-40v37h40v146h37v-146h212v146h37v-146zM299 517h-212v-140h212v140z" glyph-name="hbar" horiz-adv-x="386" unicode="ħ"/><glyph d="M14 769q17 0 40 -14q28 -18 55 -18q41 0 78 46l-29 24q-24 -32 -50 -32q-17 0 -35 11q-34 20 -59 20q-40 0 -79 -47l29 -23q27 33 50 33zM82 700h-37v-700h37v700z" glyph-name="Itilde" horiz-adv-x="122" unicode="Ĩ"/><glyph d="M14 769q17 0 40 -14q28 -18 55 -18q41 0 78 46l-29 24q-24 -32 -50 -32q-17 0 -35 11q-34 20 -59 20q-40 0 -79 -47l29 -23q27 33 50 33zM82 700h-37v-700h37v700z" glyph-name="itilde" horiz-adv-x="122" unicode="ĩ"/><glyph d="M226 774h-326v-37h326v37zM82 700h-37v-700h37v700z" glyph-name="Imacron" horiz-adv-x="126" unicode="Ī"/><glyph d="M226 774h-326v-37h326v37zM82 700h-37v-700h37v700z" glyph-name="imacron" horiz-adv-x="126" unicode="ī"/><glyph d="M82 0q-21 -8 -41 -24t-20 -33q0 -14 15 -19t30 -5h9v-38h-19q-36 0 -57.5 12t-21.5 36q0 36 68 71v700h37v-700z" glyph-name="Iogonek" horiz-adv-x="127" unicode="Į"/><glyph d="M82 0q-21 -8 -41 -24t-20 -33q0 -14 15 -19t30 -5h9v-38h-19q-36 0 -57.5 12t-21.5 36q0 36 68 71v700h37v-700z" glyph-name="iogonek" horiz-adv-x="127" unicode="į"/><glyph d="M84 784q-8 8 -20 8q-11 0 -19.5 -8t-8.5 -20q0 -11 8.5 -19t19.5 -8q12 0 20 8t8 19q0 12 -8 20zM82 700h-37v-700h37v700z" glyph-name="Idotaccent" horiz-adv-x="128" unicode="İ"/><glyph d="M82 700h-37v-700h37v700z" glyph-name="dotlessi" horiz-adv-x="127" unicode="ı"/><glyph d="M197 368l146 -368h-39l-128 321l-99 -224v-97h-37v700h37v-522l226 522h40zM211 -94q-6 -13 -19 -30h-20l6 15l2 8q0 5 -4 9q-13 10 -13 24q0 12 8.5 20t19.5 8t19.5 -8.5t8.5 -19.5q0 -12 -8 -26z" glyph-name="uni0136" horiz-adv-x="361" unicode="Ķ"/><glyph d="M197 368l146 -368h-39l-128 321l-99 -224v-97h-37v700h37v-522l226 522h40zM211 -94q-6 -13 -19 -30h-20l6 15l2 8q0 5 -4 9q-13 10 -13 24q0 12 8.5 20t19.5 8t19.5 -8.5t8.5 -19.5q0 -12 -8 -26z" glyph-name="uni0137" horiz-adv-x="361" unicode="ķ"/><glyph d="M160 835l-88 -98h-27l68 98h47zM291 37h-214v663h-37v-700h251v37z" glyph-name="Lacute" horiz-adv-x="309" unicode="Ĺ"/><glyph d="M160 835l-88 -98h-27l68 98h47zM291 37h-214v663h-37v-700h251v37z" glyph-name="lacute" horiz-adv-x="309" unicode="ĺ"/><glyph d="M291 37h-214v663h-37v-700h251v37zM186 -94q-6 -13 -19 -30h-20l6 15l2 8q0 5 -4 9q-13 10 -13 24q0 12 8.5 20t19.5 8t19.5 -8.5t8.5 -19.5q0 -12 -8 -26z" glyph-name="uni013B" horiz-adv-x="309" unicode="Ļ"/><glyph d="M291 37h-214v663h-37v-700h251v37zM186 -94q-6 -13 -19 -30h-20l6 15l2 8q0 5 -4 9q-13 10 -13 24q0 12 8.5 20t19.5 8t19.5 -8.5t8.5 -19.5q0 -12 -8 -26z" glyph-name="uni013C" horiz-adv-x="309" unicode="ļ"/><glyph d="M291 37h-214v663h-37v-700h251v37zM255 646q-6 -13 -19 -30h-20l6 15l2 8q0 5 -4 9q-13 10 -13 24q0 12 8.5 20t19.5 8t19.5 -8.5t8.5 -19.5q0 -12 -8 -26z" glyph-name="Lcaron" horiz-adv-x="309" unicode="Ľ"/><glyph d="M291 37h-214v663h-37v-700h251v37zM255 646q-6 -13 -19 -30h-20l6 15l2 8q0 5 -4 9q-13 10 -13 24q0 12 8.5 20t19.5 8t19.5 -8.5t8.5 -19.5q0 -12 -8 -26z" glyph-name="lcaron" horiz-adv-x="309" unicode="ľ"/><glyph d="M291 37v-37h-251v220l-57 -61v54l57 61v426h37v-387l128 138v-55l-128 -137v-222h214z" glyph-name="Lslash" horiz-adv-x="309" unicode="Ł"/><glyph d="M291 37v-37h-251v220l-57 -61v54l57 61v426h37v-387l128 138v-55l-128 -137v-222h214z" glyph-name="lslash" horiz-adv-x="309" unicode="ł"/><glyph d="M295 835l-88 -98h-27l68 98h47zM342 0h-20l-240 570v-570h-37v700h20l240 -570v570h37v-700z" glyph-name="Nacute" horiz-adv-x="387" unicode="Ń"/><glyph d="M295 835l-88 -98h-27l68 98h47zM342 0h-20l-240 570v-570h-37v700h20l240 -570v570h37v-700z" glyph-name="nacute" horiz-adv-x="387" unicode="ń"/><glyph d="M342 0h-20l-240 570v-570h-37v700h20l240 -570v570h37v-700zM213 -94q-6 -13 -19 -30h-20l6 15l2 8q0 5 -4 9q-13 10 -13 24q0 12 8.5 20t19.5 8t19.5 -8.5t8.5 -19.5q0 -12 -8 -26z" glyph-name="uni0145" horiz-adv-x="387" unicode="Ņ"/><glyph d="M342 0h-20l-240 570v-570h-37v700h20l240 -570v570h37v-700zM213 -94q-6 -13 -19 -30h-20l6 15l2 8q0 5 -4 9q-13 10 -13 24q0 12 8.5 20t19.5 8t19.5 -8.5t8.5 -19.5q0 -12 -8 -26z" glyph-name="uni0146" horiz-adv-x="387" unicode="ņ"/><glyph d="M102 835h27l65 -72l64 72h27l-68 -98h-47zM342 0h-20l-240 570v-570h-37v700h20l240 -570v570h37v-700z" glyph-name="Ncaron" horiz-adv-x="387" unicode="Ň"/><glyph d="M102 835h27l65 -72l64 72h27l-68 -98h-47zM342 0h-20l-240 570v-570h-37v700h20l240 -570v570h37v-700z" glyph-name="ncaron" horiz-adv-x="387" unicode="ň"/><glyph d="M324.5 -84.5q-17.5 -17.5 -42.5 -17.5v37q9 0 16 6.5t7 16.5v42l-223 570v-570h-37v700h20l240 -594v594h37v-742q0 -25 -17.5 -42.5z" glyph-name="Eng" horiz-adv-x="387" unicode="Ŋ"/><glyph d="M324.5 -84.5q-17.5 -17.5 -42.5 -17.5v37q9 0 16 6.5t7 16.5v42l-223 570v-570h-37v700h20l240 -594v594h37v-742q0 -25 -17.5 -42.5z" glyph-name="eng" horiz-adv-x="387" unicode="ŋ"/><glyph d="M341 774h-327v-37h327v37zM278 26q43 40 43 115v418q0 75 -43 115q-37 35 -101 35q-63 0 -100 -35q-43 -39 -43 -115v-418q0 -76 43 -115q37 -35 100 -35q64 0 101 35zM253 647q31 -29 31 -88v-418q0 -59 -31 -88q-26 -25 -76 -25q-49 0 -75 25q-31 28 -31 88v418 q0 60 31 88q28 25 75 25q48 0 76 -25z" glyph-name="Omacron" unicode="Ō"/><glyph d="M341 774h-327v-37h327v37zM278 26q43 40 43 115v418q0 75 -43 115q-37 35 -101 35q-63 0 -100 -35q-43 -39 -43 -115v-418q0 -76 43 -115q37 -35 100 -35q64 0 101 35zM253 647q31 -29 31 -88v-418q0 -59 -31 -88q-26 -25 -76 -25q-49 0 -75 25q-31 28 -31 88v418 q0 60 31 88q28 25 75 25q48 0 76 -25z" glyph-name="omacron" unicode="ō"/><glyph d="M225 835l-88 -98h-27l68 98h47zM333 835l-88 -98h-27l68 98h47zM278 26q43 40 43 115v418q0 75 -43 115q-37 35 -101 35q-63 0 -100 -35q-43 -39 -43 -115v-418q0 -76 43 -115q37 -35 100 -35q64 0 101 35zM253 647q31 -29 31 -88v-418q0 -59 -31 -88q-26 -25 -76 -25 q-49 0 -75 25q-31 28 -31 88v418q0 60 31 88q28 25 75 25q48 0 76 -25z" glyph-name="Ohungarumlaut" unicode="Ő"/><glyph d="M225 835l-88 -98h-27l68 98h47zM333 835l-88 -98h-27l68 98h47zM278 26q43 40 43 115v418q0 75 -43 115q-37 35 -101 35q-63 0 -100 -35q-43 -39 -43 -115v-418q0 -76 43 -115q37 -35 100 -35q64 0 101 35zM253 647q31 -29 31 -88v-418q0 -59 -31 -88q-26 -25 -76 -25 q-49 0 -75 25q-31 28 -31 88v418q0 60 31 88q28 25 75 25q48 0 76 -25z" glyph-name="ohungarumlaut" unicode="ő"/><glyph d="M253 377h151l-17 -37h-134v-303h214l-17 -37h-273q-63 0 -101 35q-42 39 -42 115v400q0 76 42 115q38 35 101 35h290l-17 -37h-197v-286zM216 37v626h-39q-48 0 -76 -25q-30 -28 -30 -88v-400q0 -60 30 -88q26 -25 76 -25h39z" glyph-name="OE" horiz-adv-x="495" unicode="Œ"/><glyph d="M253 377h151l-17 -37h-134v-303h214l-17 -37h-273q-63 0 -101 35q-42 39 -42 115v400q0 76 42 115q38 35 101 35h290l-17 -37h-197v-286zM216 37v626h-39q-48 0 -76 -25q-30 -28 -30 -88v-400q0 -60 30 -88q26 -25 76 -25h39z" glyph-name="oe" horiz-adv-x="495" unicode="œ"/><glyph d="M286 835l-88 -98h-27l68 98h47zM288 0l-98 311h-6h-107v-311h-37v700h144q63 0 101 -35q42 -39 42 -115v-89q0 -76 -42 -115q-24 -21 -58 -30l100 -316h-39zM259 373q31 28 31 88v89q0 60 -31 88q-27 25 -75 25h-107v-315h107q48 0 75 25z" glyph-name="Racute" unicode="Ŕ"/><glyph d="M286 835l-88 -98h-27l68 98h47zM288 0l-98 311h-6h-107v-311h-37v700h144q63 0 101 -35q42 -39 42 -115v-89q0 -76 -42 -115q-24 -21 -58 -30l100 -316h-39zM259 373q31 28 31 88v89q0 60 -31 88q-27 25 -75 25h-107v-315h107q48 0 75 25z" glyph-name="racute" unicode="ŕ"/><glyph d="M288 0l-98 311h-6h-107v-311h-37v700h144q63 0 101 -35q42 -39 42 -115v-89q0 -76 -42 -115q-24 -21 -58 -30l100 -316h-39zM259 373q31 28 31 88v89q0 60 -31 88q-27 25 -75 25h-107v-315h107q48 0 75 25zM204 -94q-6 -13 -19 -30h-20l6 15l2 8q0 5 -4 9q-13 10 -13 24 q0 12 8.5 20t19.5 8t19.5 -8.5t8.5 -19.5q0 -12 -8 -26z" glyph-name="uni0156" unicode="Ŗ"/><glyph d="M288 0l-98 311h-6h-107v-311h-37v700h144q63 0 101 -35q42 -39 42 -115v-89q0 -76 -42 -115q-24 -21 -58 -30l100 -316h-39zM259 373q31 28 31 88v89q0 60 -31 88q-27 25 -75 25h-107v-315h107q48 0 75 25zM204 -94q-6 -13 -19 -30h-20l6 15l2 8q0 5 -4 9q-13 10 -13 24 q0 12 8.5 20t19.5 8t19.5 -8.5t8.5 -19.5q0 -12 -8 -26z" glyph-name="uni0157" unicode="ŗ"/><glyph d="M92 835h27l65 -72l64 72h27l-68 -98h-47zM288 0l-98 311h-6h-107v-311h-37v700h144q63 0 101 -35q42 -39 42 -115v-89q0 -76 -42 -115q-24 -21 -58 -30l100 -316h-39zM259 373q31 28 31 88v89q0 60 -31 88q-27 25 -75 25h-107v-315h107q48 0 75 25z" glyph-name="Rcaron" unicode="Ř"/><glyph d="M92 835h27l65 -72l64 72h27l-68 -98h-47zM288 0l-98 311h-6h-107v-311h-37v700h144q63 0 101 -35q42 -39 42 -115v-89q0 -76 -42 -115q-24 -21 -58 -30l100 -316h-39zM259 373q31 28 31 88v89q0 60 -31 88q-27 25 -75 25h-107v-315h107q48 0 75 25z" glyph-name="rcaron" unicode="ř"/><glyph d="M276 835l-88 -98h-27l68 98h47zM275 26q42 39 42 115v49q0 134 -135 193q-24 10 -47 24t-45.5 47t-22.5 85v20q0 59 31 88q26 25 76 25t75 -25q31 -28 31 -88v-68h37v68q0 76 -42 115q-38 35 -101 35q-64 0 -101 -35q-43 -40 -43 -115v-20q0 -89 46 -131t91 -59 q37 -15 75 -51t38 -108v-49q0 -60 -31 -88q-27 -25 -75 -25q-50 0 -76 25q-31 29 -31 88v102h-37v-102q0 -75 43 -115q37 -35 101 -35q63 0 101 35z" glyph-name="Sacute" horiz-adv-x="347" unicode="Ś"/><glyph d="M276 835l-88 -98h-27l68 98h47zM275 26q42 39 42 115v49q0 134 -135 193q-24 10 -47 24t-45.5 47t-22.5 85v20q0 59 31 88q26 25 76 25t75 -25q31 -28 31 -88v-68h37v68q0 76 -42 115q-38 35 -101 35q-64 0 -101 -35q-43 -40 -43 -115v-20q0 -89 46 -131t91 -59 q37 -15 75 -51t38 -108v-49q0 -60 -31 -88q-27 -25 -75 -25q-50 0 -76 25q-31 29 -31 88v102h-37v-102q0 -75 43 -115q37 -35 101 -35q63 0 101 35z" glyph-name="sacute" horiz-adv-x="347" unicode="ś"/><glyph d="M280 559q0 60 -31 88q-25 25 -75 25t-76 -25q-31 -29 -31 -88v-20q0 -52 22.5 -85t45.5 -47t47 -24q135 -59 135 -193v-49q0 -76 -42 -115q-29 -28 -79 -34l3 -4l3 -2q14 -12 22.5 -23t8.5 -31q0 -25 -17.5 -43t-42.5 -18t-43 18t-18 43h37q0 -10 7 -17t17 -7t16.5 7 t6.5 17q0 8 -3.5 12.5t-12.5 11.5l-3 2q-17 15 -21 34q-50 4 -83 34q-43 40 -43 115v102h37v-102q0 -59 31 -88q26 -25 76 -25q48 0 75 25q31 28 31 88v49q0 72 -38 108t-75 51q-45 17 -91 59t-46 131v20q0 75 43 115q37 35 101 35q63 0 101 -35q42 -39 42 -115v-68h-37v68z" glyph-name="Scedilla" horiz-adv-x="347" unicode="Ş"/><glyph d="M280 559q0 60 -31 88q-25 25 -75 25t-76 -25q-31 -29 -31 -88v-20q0 -52 22.5 -85t45.5 -47t47 -24q135 -59 135 -193v-49q0 -76 -42 -115q-29 -28 -79 -34l3 -4l3 -2q14 -12 22.5 -23t8.5 -31q0 -25 -17.5 -43t-42.5 -18t-43 18t-18 43h37q0 -10 7 -17t17 -7t16.5 7 t6.5 17q0 8 -3.5 12.5t-12.5 11.5l-3 2q-17 15 -21 34q-50 4 -83 34q-43 40 -43 115v102h37v-102q0 -59 31 -88q26 -25 76 -25q48 0 75 25q31 28 31 88v49q0 72 -38 108t-75 51q-45 17 -91 59t-46 131v20q0 75 43 115q37 35 101 35q63 0 101 -35q42 -39 42 -115v-68h-37v68z" glyph-name="scedilla" horiz-adv-x="347" unicode="ş"/><glyph d="M81 835h27l65 -72l64 72h27l-68 -98h-47zM275 26q42 39 42 115v49q0 134 -135 193q-24 10 -47 24t-45.5 47t-22.5 85v20q0 59 31 88q26 25 76 25t75 -25q31 -28 31 -88v-68h37v68q0 76 -42 115q-38 35 -101 35q-64 0 -101 -35q-43 -40 -43 -115v-20q0 -89 46 -131t91 -59 q37 -15 75 -51t38 -108v-49q0 -60 -31 -88q-27 -25 -75 -25q-50 0 -76 25q-31 29 -31 88v102h-37v-102q0 -75 43 -115q37 -35 101 -35q63 0 101 35z" glyph-name="Scaron" horiz-adv-x="347" unicode="Š"/><glyph d="M81 835h27l65 -72l64 72h27l-68 -98h-47zM275 26q42 39 42 115v49q0 134 -135 193q-24 10 -47 24t-45.5 47t-22.5 85v20q0 59 31 88q26 25 76 25t75 -25q31 -28 31 -88v-68h37v68q0 76 -42 115q-38 35 -101 35q-64 0 -101 -35q-43 -40 -43 -115v-20q0 -89 46 -131t91 -59 q37 -15 75 -51t38 -108v-49q0 -60 -31 -88q-27 -25 -75 -25q-50 0 -76 25q-31 29 -31 88v102h-37v-102q0 -75 43 -115q37 -35 101 -35q63 0 101 35z" glyph-name="scaron" horiz-adv-x="347" unicode="š"/><glyph d="M182 -2q0 -3 3 -6.5t7 -6.5q15 -12 23 -22.5t8 -30.5q0 -25 -17.5 -43t-42.5 -18t-43 18t-18 43h37q0 -10 7 -17t17 -7t16.5 7t6.5 17q0 8 -3.5 12.5t-12.5 11.5l-3 2q-11 9 -16.5 17t-5.5 25v663h-132v37h302v-37h-133v-665z" glyph-name="uni0162" horiz-adv-x="327" unicode="Ţ"/><glyph d="M182 -2q0 -3 3 -6.5t7 -6.5q15 -12 23 -22.5t8 -30.5q0 -25 -17.5 -43t-42.5 -18t-43 18t-18 43h37q0 -10 7 -17t17 -7t16.5 7t6.5 17q0 8 -3.5 12.5t-12.5 11.5l-3 2q-11 9 -16.5 17t-5.5 25v663h-132v37h302v-37h-133v-665z" glyph-name="uni0163" horiz-adv-x="327" unicode="ţ"/><glyph d="M72 835h27l65 -72l64 72h27l-68 -98h-47zM315 663h-133v-663h-37v663h-132v37h302v-37z" glyph-name="Tcaron" horiz-adv-x="327" unicode="Ť"/><glyph d="M72 835h27l65 -72l64 72h27l-68 -98h-47zM315 663h-133v-663h-37v663h-132v37h302v-37z" glyph-name="tcaron" horiz-adv-x="327" unicode="ť"/><glyph d="M182 663v-196h60v-37h-60v-430h-37v430h-60v37h60v196h-132v37h302v-37h-133z" glyph-name="Tbar" horiz-adv-x="327" unicode="Ŧ"/><glyph d="M182 663v-196h60v-37h-60v-430h-37v430h-60v37h60v196h-132v37h302v-37h-133z" glyph-name="tbar" horiz-adv-x="327" unicode="ŧ"/><glyph d="M129 769q17 0 40 -14q28 -18 55 -18q41 0 78 46l-29 24q-24 -32 -50 -32q-17 0 -35 11q-34 20 -59 20q-40 0 -79 -47l29 -23q27 33 50 33zM277 26q42 39 42 115v559h-37v-559q0 -59 -30 -88q-28 -25 -76 -25q-50 0 -76 25q-30 29 -30 88v559h-37v-559q0 -76 42 -115 q38 -35 101 -35t101 35z" glyph-name="Utilde" horiz-adv-x="352" unicode="Ũ"/><glyph d="M129 769q17 0 40 -14q28 -18 55 -18q41 0 78 46l-29 24q-24 -32 -50 -32q-17 0 -35 11q-34 20 -59 20q-40 0 -79 -47l29 -23q27 33 50 33zM277 26q42 39 42 115v559h-37v-559q0 -59 -30 -88q-28 -25 -76 -25q-50 0 -76 25q-30 29 -30 88v559h-37v-559q0 -76 42 -115 q38 -35 101 -35t101 35z" glyph-name="utilde" horiz-adv-x="352" unicode="ũ"/><glyph d="M339 774h-326v-37h326v37zM277 26q42 39 42 115v559h-37v-559q0 -59 -30 -88q-28 -25 -76 -25q-50 0 -76 25q-30 29 -30 88v559h-37v-559q0 -76 42 -115q38 -35 101 -35t101 35z" glyph-name="Umacron" horiz-adv-x="352" unicode="Ū"/><glyph d="M339 774h-326v-37h326v37zM277 26q42 39 42 115v559h-37v-559q0 -59 -30 -88q-28 -25 -76 -25q-50 0 -76 25q-30 29 -30 88v559h-37v-559q0 -76 42 -115q38 -35 101 -35t101 35z" glyph-name="umacron" horiz-adv-x="352" unicode="ū"/><glyph d="M219.5 755.5q17.5 17.5 17.5 42.5t-17.5 43t-42.5 18t-42.5 -18t-17.5 -43t17.5 -42.5t42.5 -17.5t42.5 17.5zM193.5 815q6.5 -7 6.5 -17q0 -9 -6.5 -16t-16.5 -7t-16.5 7t-6.5 16q0 10 6.5 17t16.5 7t16.5 -7zM277 26q42 39 42 115v559h-37v-559q0 -59 -30 -88 q-28 -25 -76 -25q-50 0 -76 25q-30 29 -30 88v559h-37v-559q0 -76 42 -115q38 -35 101 -35t101 35z" glyph-name="Uring" horiz-adv-x="352" unicode="Ů"/><glyph d="M219.5 755.5q17.5 17.5 17.5 42.5t-17.5 43t-42.5 18t-42.5 -18t-17.5 -43t17.5 -42.5t42.5 -17.5t42.5 17.5zM193.5 815q6.5 -7 6.5 -17q0 -9 -6.5 -16t-16.5 -7t-16.5 7t-6.5 16q0 10 6.5 17t16.5 7t16.5 -7zM277 26q42 39 42 115v559h-37v-559q0 -59 -30 -88 q-28 -25 -76 -25q-50 0 -76 25q-30 29 -30 88v559h-37v-559q0 -76 42 -115q38 -35 101 -35t101 35z" glyph-name="uring" horiz-adv-x="352" unicode="ů"/><glyph d="M223 835l-88 -98h-27l68 98h47zM331 835l-88 -98h-27l68 98h47zM277 26q42 39 42 115v559h-37v-559q0 -59 -30 -88q-28 -25 -76 -25q-50 0 -76 25q-30 29 -30 88v559h-37v-559q0 -76 42 -115q38 -35 101 -35t101 35z" glyph-name="Uhungarumlaut" horiz-adv-x="352" unicode="Ű"/><glyph d="M223 835l-88 -98h-27l68 98h47zM331 835l-88 -98h-27l68 98h47zM277 26q42 39 42 115v559h-37v-559q0 -59 -30 -88q-28 -25 -76 -25q-50 0 -76 25q-30 29 -30 88v559h-37v-559q0 -76 42 -115q38 -35 101 -35t101 35z" glyph-name="uhungarumlaut" horiz-adv-x="352" unicode="ű"/><glyph d="M319 141q0 -76 -42 -115q-28 -28 -44 -47t-16 -36q0 -14 15 -19t30 -5h9v-38h-19q-36 0 -58 12t-22 36q0 17 13.5 35t32.5 31q-26 -4 -42 -4q-63 0 -101 35q-42 39 -42 115v559h37v-559q0 -59 30 -88q26 -25 76 -25q48 0 76 25q30 29 30 88v559h37v-559z" glyph-name="Uogonek" horiz-adv-x="352" unicode="Ų"/><glyph d="M319 141q0 -76 -42 -115q-28 -28 -44 -47t-16 -36q0 -14 15 -19t30 -5h9v-38h-19q-36 0 -58 12t-22 36q0 17 13.5 35t32.5 31q-26 -4 -42 -4q-63 0 -101 35q-42 39 -42 115v559h37v-559q0 -59 30 -88q26 -25 76 -25q48 0 76 25q30 29 30 88v559h37v-559z" glyph-name="uogonek" horiz-adv-x="352" unicode="ų"/><glyph d="M275 835l68 -98h-27l-64 72l-65 -72h-27l68 98h47zM127 0h-20l-86 700h38l68 -566l116 455h20l116 -454l68 565h38l-86 -700h-20l-126 491z" glyph-name="Wcircumflex" horiz-adv-x="505" unicode="Ŵ"/><glyph d="M275 835l68 -98h-27l-64 72l-65 -72h-27l68 98h47zM127 0h-20l-86 700h38l68 -566l116 455h20l116 -454l68 565h38l-86 -700h-20l-126 491z" glyph-name="wcircumflex" horiz-adv-x="505" unicode="ŵ"/><glyph d="M201 835l68 -98h-27l-64 72l-65 -72h-27l68 98h47zM308 700h39l-150 -461v-239h-37v239l-150 461h39l129 -398z" glyph-name="Ycircumflex" horiz-adv-x="356" unicode="Ŷ"/><glyph d="M201 835l68 -98h-27l-64 72l-65 -72h-27l68 98h47zM308 700h39l-150 -461v-239h-37v239l-150 461h39l129 -398z" glyph-name="ycircumflex" horiz-adv-x="356" unicode="ŷ"/><glyph d="M131 784q-8 8 -20 8q-11 0 -19.5 -8t-8.5 -20q0 -11 8.5 -19t19.5 -8q12 0 20 8t8 19q0 12 -8 20zM265 784q-8 8 -20 8q-11 0 -19.5 -8t-8.5 -20q0 -11 8.5 -19t19.5 -8q12 0 20 8t8 19q0 12 -8 20zM308 700h39l-150 -461v-239h-37v239l-150 461h39l129 -398z" glyph-name="Ydieresis" horiz-adv-x="356" unicode="Ÿ"/><glyph d="M277 835l-88 -98h-27l68 98h47zM328 37v-37h-303l249 663h-249l17 37h285l-248 -663h249z" glyph-name="Zacute" horiz-adv-x="353" unicode="Ź"/><glyph d="M277 835l-88 -98h-27l68 98h47zM328 37v-37h-303l249 663h-249l17 37h285l-248 -663h249z" glyph-name="zacute" horiz-adv-x="353" unicode="ź"/><glyph d="M196 784q-8 8 -20 8q-11 0 -19.5 -8t-8.5 -20q0 -11 8.5 -19t19.5 -8q12 0 20 8t8 19q0 12 -8 20zM328 37v-37h-303l249 663h-249l17 37h285l-248 -663h249z" glyph-name="Zdotaccent" horiz-adv-x="353" unicode="Ż"/><glyph d="M196 784q-8 8 -20 8q-11 0 -19.5 -8t-8.5 -20q0 -11 8.5 -19t19.5 -8q12 0 20 8t8 19q0 12 -8 20zM328 37v-37h-303l249 663h-249l17 37h285l-248 -663h249z" glyph-name="zdotaccent" horiz-adv-x="353" unicode="ż"/><glyph d="M84 835h27l65 -72l64 72h27l-68 -98h-47zM328 37v-37h-303l249 663h-249l17 37h285l-248 -663h249z" glyph-name="Zcaron" horiz-adv-x="353" unicode="Ž"/><glyph d="M84 835h27l65 -72l64 72h27l-68 -98h-47zM328 37v-37h-303l249 663h-249l17 37h285l-248 -663h249z" glyph-name="zcaron" horiz-adv-x="353" unicode="ž"/><glyph d="M349 146q0 -75 -43 -114q-37 -32 -100 -32h-143v165h-63v37h63l-1 498h127q64 0 100 -33q43 -37 43 -113v-73q0 -76 -42 -115q-7 -7 -15 -12q17 -8 31 -21q43 -39 43 -115v-50v-22zM99 368h90q50 0 76 25q30 27 30 88v73q0 60 -30 85q-27 24 -76 24h-90v-295zM312 146v22 v50q0 60 -31 88q-27 25 -75 25h-107l1 -129h63v-37h-63v-128h106q106 0 106 109z" glyph-name="uni0180" horiz-adv-x="384" unicode="ƀ"/><glyph d="M369 218v-72q0 -75 -43 -114q-37 -32 -100 -32h-144v663h-42q-10 0 -16.5 -7t-6.5 -16h-37q0 25 17.5 42.5t42.5 17.5h169q64 0 100 -33q43 -38 43 -113v-73q0 -76 -43 -115q-6 -7 -15 -12q19 -10 32 -21q43 -40 43 -115zM209 368q49 0 75 25q31 27 31 88v73q0 60 -30 85 q-27 24 -76 24h-90v-295h90zM332 218q0 59 -31 88q-28 25 -76 25h-106v-294h107q106 0 106 109v72z" glyph-name="uni0181" horiz-adv-x="404" unicode="Ɓ"/><glyph d="M278 26q42 39 42 115v418q0 76 -42 115q-38 35 -101 35t-101 -35q-42 -39 -42 -115v-69h37v69q0 60 30 88q26 25 76 25t76 -25q30 -28 30 -88v-418q0 -60 -30 -88q-26 -25 -76 -25t-76 25q-30 28 -30 88v101h-37v-101q0 -76 42 -115q38 -35 101 -35t101 35z" glyph-name="uni0186" horiz-adv-x="354" unicode="Ɔ"/><glyph d="M300.5 751.5q17.5 17.5 42.5 17.5v-37q-9 0 -16 -6.5t-7 -16.5v-219h-37v69q0 60 -30 88q-26 25 -76 25t-76 -25q-30 -28 -30 -88v-418q0 -60 30 -88q26 -25 76 -25t76 25q30 29 30 88v101h37v-101q0 -76 -42 -115q-38 -35 -101 -35t-101 35q-42 39 -42 115v418 q0 76 42 115q38 35 101 35t101 -35l5 -5v40q0 25 17.5 42.5z" glyph-name="uni0187" horiz-adv-x="354" unicode="Ƈ"/><glyph d="M300.5 751.5q17.5 17.5 42.5 17.5v-37q-9 0 -16 -6.5t-7 -16.5v-219h-37v69q0 60 -30 88q-26 25 -76 25t-76 -25q-30 -28 -30 -88v-418q0 -60 30 -88q26 -25 76 -25t76 25q30 29 30 88v101h37v-101q0 -76 -42 -115q-38 -35 -101 -35t-101 35q-42 39 -42 115v418 q0 76 42 115q38 35 101 35t101 -35l5 -5v40q0 25 17.5 42.5z" glyph-name="uni0188" horiz-adv-x="354" unicode="ƈ"/><glyph d="M332 550v-404q0 -74 -43 -114q-37 -32 -101 -32h-143v331h-40v37h40v332h143q64 0 101 -35q43 -39 43 -115zM264 638q-28 25 -76 25h-106v-295h80v-37h-80v-294h106q107 0 107 109v404q0 59 -31 88z" glyph-name="uni0189" horiz-adv-x="360" unicode="Ɖ"/><glyph d="M368 550v-404q0 -75 -43 -114q-37 -32 -100 -32h-143v663h-42q-10 0 -16.5 -7t-6.5 -16h-37q0 25 17.5 42.5t42.5 17.5h185q63 0 101 -35q42 -39 42 -115zM301 638q-28 25 -76 25h-106v-626h106q106 0 106 109v404q0 60 -30 88z" glyph-name="uni018A" horiz-adv-x="396" unicode="Ɗ"/><glyph d="M279 0h-234l-17 37h214v303h-134l-17 37h151v286h-197l-17 37h251v-700z" glyph-name="uni018E" horiz-adv-x="319" unicode="Ǝ"/><glyph d="M77 377h152l-17 -37h-135v-382q0 -25 -17.5 -42.5t-42.5 -17.5v37q9 0 16 6.5t7 16.5v742h251l-17 -37h-197v-286z" glyph-name="uni0191" horiz-adv-x="310" unicode="Ƒ"/><glyph d="M301.5 751.5q17.5 17.5 42.5 17.5v-37q-9 0 -16 -6.5t-7 -16.5v-219h-37v69q0 59 -31 88q-28 25 -76 25q-47 0 -75 -25q-31 -28 -31 -88v-418q0 -60 31 -88q26 -25 75 -25q50 0 76 25q31 29 31 88v191h-106l17 37h126v-228q0 -76 -43 -115q-37 -35 -101 -35 q-63 0 -100 35q-43 39 -43 115v418q0 76 43 115q37 35 100 35q64 0 101 -35l6 -6v41q0 25 17.5 42.5z" glyph-name="uni0193" unicode="Ɠ"/><glyph d="M122 341h-40v-341h-37v341h-40v37h40v322h37v-322h40v-37z" glyph-name="uni0197" horiz-adv-x="127" unicode="Ɨ"/><glyph d="M411 682.5q18 -17.5 18 -42.5h-37q0 9 -7 16t-17 7h-41l-130 -295l146 -368h-39l-128 321l-99 -224v-97h-37v700h37v-522l226 522h65q25 0 43 -17.5z" glyph-name="uni0198" horiz-adv-x="409" unicode="Ƙ"/><glyph d="M411 682.5q18 -17.5 18 -42.5h-37q0 9 -7 16t-17 7h-41l-130 -295l146 -368h-39l-128 321l-99 -224v-97h-37v700h37v-522l226 522h65q25 0 43 -17.5z" glyph-name="uni0199" horiz-adv-x="409" unicode="ƙ"/><glyph d="M342 0h-20l-240 570v-612q0 -25 -17.5 -42.5t-42.5 -17.5v37q9 0 16 6.5t7 16.5v742h20l240 -570v570h37v-700z" glyph-name="uni019D" horiz-adv-x="387" unicode="Ɲ"/><glyph d="M381 732q0 -25 -17.5 -42.5t-42.5 -17.5h-41q41 -39 41 -113v-418q0 -75 -43 -115q-37 -35 -101 -35q-63 0 -100 35q-43 39 -43 115v418q0 76 43 115q37 35 100 35h144q10 0 16.5 7t6.5 16h37zM253 647q-28 25 -76 25q-47 0 -75 -25q-31 -28 -31 -88v-418q0 -60 31 -88 q26 -25 75 -25q50 0 76 25q31 29 31 88v418q0 59 -31 88z" glyph-name="Ohorn" horiz-adv-x="361" unicode="Ơ"/><glyph d="M381 732q0 -25 -17.5 -42.5t-42.5 -17.5h-41q41 -39 41 -113v-418q0 -75 -43 -115q-37 -35 -101 -35q-63 0 -100 35q-43 39 -43 115v418q0 76 43 115q37 35 100 35h144q10 0 16.5 7t6.5 16h37zM253 647q-28 25 -76 25q-47 0 -75 -25q-31 -28 -31 -88v-418q0 -60 31 -88 q26 -25 75 -25q50 0 76 25q31 29 31 88v418q0 59 -31 88z" glyph-name="ohorn" horiz-adv-x="361" unicode="ơ"/><glyph d="M369 550v-89q0 -75 -43 -115q-38 -35 -101 -35h-106v-311h-37v663h-42q-10 0 -16.5 -7t-6.5 -16h-37q0 25 17.5 42.5t42.5 17.5h185q63 0 101 -35q43 -40 43 -115zM301 638q-28 25 -76 25h-106v-315h106q48 0 76 25q31 29 31 88v89q0 59 -31 88z" glyph-name="uni01A4" horiz-adv-x="392" unicode="Ƥ"/><glyph d="M369 550v-89q0 -75 -43 -115q-38 -35 -101 -35h-106v-311h-37v663h-42q-10 0 -16.5 -7t-6.5 -16h-37q0 25 17.5 42.5t42.5 17.5h185q63 0 101 -35q43 -40 43 -115zM301 638q-28 25 -76 25h-106v-315h106q48 0 76 25q31 29 31 88v89q0 59 -31 88z" glyph-name="uni01A5" horiz-adv-x="392" unicode="ƥ"/><glyph d="M367 663h-133v-663h-37v663h-132q-10 0 -16.5 -7t-6.5 -16h-37q0 25 17.5 42.5t42.5 17.5h302v-37z" glyph-name="uni01AC" horiz-adv-x="379" unicode="Ƭ"/><glyph d="M367 663h-133v-663h-37v663h-132q-10 0 -16.5 -7t-6.5 -16h-37q0 25 17.5 42.5t42.5 17.5h302v-37z" glyph-name="uni01AD" horiz-adv-x="379" unicode="ƭ"/><glyph d="M189 -58.5q7 -6.5 17 -6.5v-37q-25 0 -43 17.5t-18 42.5v705h-132v37h302v-37h-133v-705q0 -10 7 -16.5z" glyph-name="uni01AE" horiz-adv-x="327" unicode="Ʈ"/><glyph d="M403.5 680.5q-17.5 -17.5 -42.5 -17.5h-42v-522q0 -76 -42 -115q-38 -35 -101 -35t-101 35q-42 39 -42 115v559h37v-559q0 -59 30 -88q26 -25 76 -25q48 0 76 25q30 29 30 88v559h79q10 0 16.5 7t6.5 16h37q0 -25 -17.5 -42.5z" glyph-name="Uhorn" horiz-adv-x="401" unicode="Ư"/><glyph d="M403.5 680.5q-17.5 -17.5 -42.5 -17.5h-42v-522q0 -76 -42 -115q-38 -35 -101 -35t-101 35q-42 39 -42 115v559h37v-559q0 -59 30 -88q26 -25 76 -25q48 0 76 25q30 29 30 88v559h79q10 0 16.5 7t6.5 16h37q0 -25 -17.5 -42.5z" glyph-name="uhorn" horiz-adv-x="401" unicode="ư"/><glyph d="M419.5 682.5q17.5 -17.5 17.5 -42.5h-37q0 9 -6.5 16t-16.5 7h-42l-138 -424v-239h-37v239l-150 461h39l129 -398l130 398h69q25 0 42.5 -17.5z" glyph-name="uni01B3" horiz-adv-x="417" unicode="Ƴ"/><glyph d="M419.5 682.5q17.5 -17.5 17.5 -42.5h-37q0 9 -6.5 16t-16.5 7h-42l-138 -424v-239h-37v239l-150 461h39l129 -398l130 398h69q25 0 42.5 -17.5z" glyph-name="uni01B4" horiz-adv-x="417" unicode="ƴ"/><glyph d="M99 835h27l65 -72l64 72h27l-68 -98h-47zM287 184h-193l-40 -184h-38l156 700h37l156 -700h-38zM278 221l-87 402l-88 -402h175z" glyph-name="uni01CD" horiz-adv-x="382" unicode="Ǎ"/><glyph d="M99 835h27l65 -72l64 72h27l-68 -98h-47zM287 184h-193l-40 -184h-38l156 700h37l156 -700h-38zM278 221l-87 402l-88 -402h175z" glyph-name="uni01CE" horiz-adv-x="382" unicode="ǎ"/><glyph d="M-28 835h27l65 -72l64 72h27l-68 -98h-47zM83 700h-37v-700h37v700z" glyph-name="uni01CF" horiz-adv-x="127" unicode="Ǐ"/><glyph d="M-28 835h27l65 -72l64 72h27l-68 -98h-47zM83 700h-37v-700h37v700z" glyph-name="uni01D0" horiz-adv-x="127" unicode="ǐ"/><glyph d="M85 835h27l65 -72l64 72h27l-68 -98h-47zM278 26q43 40 43 115v418q0 75 -43 115q-37 35 -101 35q-63 0 -100 -35q-43 -39 -43 -115v-418q0 -76 43 -115q37 -35 100 -35q64 0 101 35zM253 647q31 -29 31 -88v-418q0 -59 -31 -88q-26 -25 -76 -25q-49 0 -75 25 q-31 28 -31 88v418q0 60 31 88q28 25 75 25q48 0 76 -25z" glyph-name="uni01D1" unicode="Ǒ"/><glyph d="M85 835h27l65 -72l64 72h27l-68 -98h-47zM278 26q43 40 43 115v418q0 75 -43 115q-37 35 -101 35q-63 0 -100 -35q-43 -39 -43 -115v-418q0 -76 43 -115q37 -35 100 -35q64 0 101 35zM253 647q31 -29 31 -88v-418q0 -59 -31 -88q-26 -25 -76 -25q-49 0 -75 25 q-31 28 -31 88v418q0 60 31 88q28 25 75 25q48 0 76 -25z" glyph-name="uni01D2" unicode="ǒ"/><glyph d="M85 835h27l65 -72l64 72h27l-68 -98h-47zM277 26q42 39 42 115v559h-37v-559q0 -59 -30 -88q-28 -25 -76 -25q-50 0 -76 25q-30 29 -30 88v559h-37v-559q0 -76 42 -115q38 -35 101 -35t101 35z" glyph-name="uni01D3" horiz-adv-x="352" unicode="Ǔ"/><glyph d="M85 835h27l65 -72l64 72h27l-68 -98h-47zM277 26q42 39 42 115v559h-37v-559q0 -59 -30 -88q-28 -25 -76 -25q-50 0 -76 25q-30 29 -30 88v559h-37v-559q0 -76 42 -115q38 -35 101 -35t101 35z" glyph-name="uni01D4" horiz-adv-x="352" unicode="ǔ"/><glyph d="M339 867h-326v-37h326v37zM130 784q-8 8 -20 8q-11 0 -19.5 -8t-8.5 -20q0 -11 8.5 -19t19.5 -8q12 0 20 8t8 19q0 12 -8 20zM264 784q-8 8 -20 8q-11 0 -19.5 -8t-8.5 -20q0 -11 8.5 -19t19.5 -8q12 0 20 8t8 19q0 12 -8 20zM277 26q42 39 42 115v559h-37v-559 q0 -59 -30 -88q-28 -25 -76 -25q-50 0 -76 25q-30 29 -30 88v559h-37v-559q0 -76 42 -115q38 -35 101 -35t101 35z" glyph-name="uni01D5" horiz-adv-x="352" unicode="Ǖ"/><glyph d="M339 867h-326v-37h326v37zM130 784q-8 8 -20 8q-11 0 -19.5 -8t-8.5 -20q0 -11 8.5 -19t19.5 -8q12 0 20 8t8 19q0 12 -8 20zM264 784q-8 8 -20 8q-11 0 -19.5 -8t-8.5 -20q0 -11 8.5 -19t19.5 -8q12 0 20 8t8 19q0 12 -8 20zM277 26q42 39 42 115v559h-37v-559 q0 -59 -30 -88q-28 -25 -76 -25q-50 0 -76 25q-30 29 -30 88v559h-37v-559q0 -76 42 -115q38 -35 101 -35t101 35z" glyph-name="uni01D6" horiz-adv-x="352" unicode="ǖ"/><glyph d="M278 928l-88 -98h-27l68 98h47zM130 784q-8 8 -20 8q-11 0 -19.5 -8t-8.5 -20q0 -11 8.5 -19t19.5 -8q12 0 20 8t8 19q0 12 -8 20zM264 784q-8 8 -20 8q-11 0 -19.5 -8t-8.5 -20q0 -11 8.5 -19t19.5 -8q12 0 20 8t8 19q0 12 -8 20zM277 26q42 39 42 115v559h-37v-559 q0 -59 -30 -88q-28 -25 -76 -25q-50 0 -76 25q-30 29 -30 88v559h-37v-559q0 -76 42 -115q38 -35 101 -35t101 35z" glyph-name="uni01D7" horiz-adv-x="352" unicode="Ǘ"/><glyph d="M278 928l-88 -98h-27l68 98h47zM130 784q-8 8 -20 8q-11 0 -19.5 -8t-8.5 -20q0 -11 8.5 -19t19.5 -8q12 0 20 8t8 19q0 12 -8 20zM264 784q-8 8 -20 8q-11 0 -19.5 -8t-8.5 -20q0 -11 8.5 -19t19.5 -8q12 0 20 8t8 19q0 12 -8 20zM277 26q42 39 42 115v559h-37v-559 q0 -59 -30 -88q-28 -25 -76 -25q-50 0 -76 25q-30 29 -30 88v559h-37v-559q0 -76 42 -115q38 -35 101 -35t101 35z" glyph-name="uni01D8" horiz-adv-x="352" unicode="ǘ"/><glyph d="M85 928h27l65 -72l64 72h27l-68 -98h-47zM130 784q-8 8 -20 8q-11 0 -19.5 -8t-8.5 -20q0 -11 8.5 -19t19.5 -8q12 0 20 8t8 19q0 12 -8 20zM264 784q-8 8 -20 8q-11 0 -19.5 -8t-8.5 -20q0 -11 8.5 -19t19.5 -8q12 0 20 8t8 19q0 12 -8 20zM277 26q42 39 42 115v559h-37 v-559q0 -59 -30 -88q-28 -25 -76 -25q-50 0 -76 25q-30 29 -30 88v559h-37v-559q0 -76 42 -115q38 -35 101 -35t101 35z" glyph-name="uni01D9" horiz-adv-x="352" unicode="Ǚ"/><glyph d="M85 928h27l65 -72l64 72h27l-68 -98h-47zM130 784q-8 8 -20 8q-11 0 -19.5 -8t-8.5 -20q0 -11 8.5 -19t19.5 -8q12 0 20 8t8 19q0 12 -8 20zM264 784q-8 8 -20 8q-11 0 -19.5 -8t-8.5 -20q0 -11 8.5 -19t19.5 -8q12 0 20 8t8 19q0 12 -8 20zM277 26q42 39 42 115v559h-37 v-559q0 -59 -30 -88q-28 -25 -76 -25q-50 0 -76 25q-30 29 -30 88v559h-37v-559q0 -76 42 -115q38 -35 101 -35t101 35z" glyph-name="uni01DA" horiz-adv-x="352" unicode="ǚ"/><glyph d="M189 830h-27l-88 98h47zM88 745q8 -8 20 -8q11 0 19.5 8t8.5 19q0 12 -8.5 20t-19.5 8q-12 0 -20 -8t-8 -20q0 -11 8 -19zM222 745q8 -8 20 -8q11 0 19.5 8t8.5 19q0 12 -8.5 20t-19.5 8q-12 0 -20 -8t-8 -20q0 -11 8 -19zM277 26q42 39 42 115v559h-37v-559 q0 -59 -30 -88q-26 -25 -76 -25q-48 0 -76 25q-30 29 -30 88v559h-37v-559q0 -76 42 -115q38 -35 101 -35t101 35z" glyph-name="uni01DB" horiz-adv-x="352" unicode="Ǜ"/><glyph d="M189 830h-27l-88 98h47zM88 745q8 -8 20 -8q11 0 19.5 8t8.5 19q0 12 -8.5 20t-19.5 8q-12 0 -20 -8t-8 -20q0 -11 8 -19zM222 745q8 -8 20 -8q11 0 19.5 8t8.5 19q0 12 -8.5 20t-19.5 8q-12 0 -20 -8t-8 -20q0 -11 8 -19zM277 26q42 39 42 115v559h-37v-559 q0 -59 -30 -88q-26 -25 -76 -25q-48 0 -76 25q-30 29 -30 88v559h-37v-559q0 -76 42 -115q38 -35 101 -35t101 35z" glyph-name="uni01DC" horiz-adv-x="352" unicode="ǜ"/><glyph d="M279 0h-234l-17 37h214v303h-134l-17 37h151v286h-197l-17 37h251v-700z" glyph-name="uni01DD" horiz-adv-x="319" unicode="ǝ"/><glyph d="M354 867h-326v-37h326v37zM143 784q-8 8 -20 8q-11 0 -19.5 -8t-8.5 -20q0 -11 8.5 -19t19.5 -8q12 0 20 8t8 19q0 12 -8 20zM277 784q-8 8 -20 8q-11 0 -19.5 -8t-8.5 -20q0 -11 8.5 -19t19.5 -8q12 0 20 8t8 19q0 12 -8 20zM287 184h-193l-40 -184h-38l156 700h37 l156 -700h-38zM278 221l-87 402l-88 -402h175z" glyph-name="uni01DE" horiz-adv-x="382" unicode="Ǟ"/><glyph d="M354 867h-326v-37h326v37zM143 784q-8 8 -20 8q-11 0 -19.5 -8t-8.5 -20q0 -11 8.5 -19t19.5 -8q12 0 20 8t8 19q0 12 -8 20zM277 784q-8 8 -20 8q-11 0 -19.5 -8t-8.5 -20q0 -11 8.5 -19t19.5 -8q12 0 20 8t8 19q0 12 -8 20zM287 184h-193l-40 -184h-38l156 700h37 l156 -700h-38zM278 221l-87 402l-88 -402h175z" glyph-name="uni01DF" horiz-adv-x="382" unicode="ǟ"/><glyph d="M85 835h27l65 -72l64 72h27l-68 -98h-47zM321 559v-69h-37v69q0 59 -31 88q-28 25 -76 25q-47 0 -75 -25q-31 -28 -31 -88v-418q0 -60 31 -88q26 -25 75 -25q50 0 76 25q31 29 31 88v191h-106l17 37h126v-228q0 -76 -43 -115q-37 -35 -101 -35q-63 0 -100 35 q-43 39 -43 115v418q0 76 43 115q37 35 100 35q64 0 101 -35q43 -39 43 -115z" glyph-name="Gcaron" unicode="Ǧ"/><glyph d="M85 835h27l65 -72l64 72h27l-68 -98h-47zM321 559v-69h-37v69q0 59 -31 88q-28 25 -76 25q-47 0 -75 -25q-31 -28 -31 -88v-418q0 -60 31 -88q26 -25 75 -25q50 0 76 25q31 29 31 88v191h-106l17 37h126v-228q0 -76 -43 -115q-37 -35 -101 -35q-63 0 -100 35 q-43 39 -43 115v418q0 76 43 115q37 35 100 35q64 0 101 -35q43 -39 43 -115z" glyph-name="gcaron" unicode="ǧ"/><glyph d="M322 559v-418q0 -75 -42 -116q-39 -34 -101 -34t-101 34l-6 7l-19 -48l-35 14l29 73q-11 31 -11 70v418q0 76 42 115q38 35 101 35t101 -35l6 -6l19 47l34 -14l-29 -72q12 -30 12 -70zM73 134l197 493q-5 10 -15 20q-26 25 -76 25t-76 -25q-30 -28 -30 -88v-418v-7z M285 565l-197 -493q7 -12 15 -19q26 -25 76 -25t76 25q30 27 30 88v418v6z" glyph-name="Oslashacute" horiz-adv-x="357" unicode="Ǿ"/><glyph d="M322 559v-418q0 -75 -42 -116q-39 -34 -101 -34t-101 34l-6 7l-19 -48l-35 14l29 73q-11 31 -11 70v418q0 76 42 115q38 35 101 35t101 -35l6 -6l19 47l34 -14l-29 -72q12 -30 12 -70zM73 134l197 493q-5 10 -15 20q-26 25 -76 25t-76 -25q-30 -28 -30 -88v-418v-7z M285 565l-197 -493q7 -12 15 -19q26 -25 76 -25t76 25q30 27 30 88v418v6z" glyph-name="oslashacute" horiz-adv-x="357" unicode="ǿ"/><glyph d="M275 26q42 39 42 115v49q0 134 -135 193q-24 10 -47 24t-45.5 47t-22.5 85v20q0 59 31 88q26 25 76 25t75 -25q31 -28 31 -88v-68h37v68q0 76 -42 115q-38 35 -101 35q-64 0 -101 -35q-43 -40 -43 -115v-20q0 -89 46 -131t91 -59q37 -15 75 -51t38 -108v-49 q0 -60 -31 -88q-27 -25 -75 -25q-50 0 -76 25q-31 29 -31 88v102h-37v-102q0 -75 43 -115q37 -35 101 -35q63 0 101 35zM194 -94q-6 -13 -19 -30h-20l6 15l2 8q0 5 -4 9q-13 10 -13 24q0 12 8.5 20t19.5 8t19.5 -8.5t8.5 -19.5q0 -12 -8 -26z" glyph-name="uni0218" horiz-adv-x="347" unicode="Ș"/><glyph d="M275 26q42 39 42 115v49q0 134 -135 193q-24 10 -47 24t-45.5 47t-22.5 85v20q0 59 31 88q26 25 76 25t75 -25q31 -28 31 -88v-68h37v68q0 76 -42 115q-38 35 -101 35q-64 0 -101 -35q-43 -40 -43 -115v-20q0 -89 46 -131t91 -59q37 -15 75 -51t38 -108v-49 q0 -60 -31 -88q-27 -25 -75 -25q-50 0 -76 25q-31 29 -31 88v102h-37v-102q0 -75 43 -115q37 -35 101 -35q63 0 101 35zM194 -94q-6 -13 -19 -30h-20l6 15l2 8q0 5 -4 9q-13 10 -13 24q0 12 8.5 20t19.5 8t19.5 -8.5t8.5 -19.5q0 -12 -8 -26z" glyph-name="uni0219" horiz-adv-x="347" unicode="ș"/><glyph d="M315 663h-133v-663h-37v663h-132v37h302v-37zM184 -94q-6 -13 -19 -30h-20l6 15l2 8q0 5 -4 9q-13 10 -13 24q0 12 8.5 20t19.5 8t19.5 -8.5t8.5 -19.5q0 -12 -8 -26z" glyph-name="uni021A" horiz-adv-x="327" unicode="Ț"/><glyph d="M315 663h-133v-663h-37v663h-132v37h302v-37zM184 -94q-6 -13 -19 -30h-20l6 15l2 8q0 5 -4 9q-13 10 -13 24q0 12 8.5 20t19.5 8t19.5 -8.5t8.5 -19.5q0 -12 -8 -26z" glyph-name="uni021B" horiz-adv-x="327" unicode="ț"/><glyph d="M77 377h151l-17 -37h-134v-303h214l-17 -37h-88q0 -1 8 -7q13 -10 21.5 -21.5t8.5 -31.5q0 -25 -17.5 -43t-42.5 -18t-43 18t-18 43h37q0 -10 7 -17t17 -7t16.5 7t6.5 17q0 8 -3.5 12.5t-12.5 11.5q-11 8 -17 15.5t-8 20.5h-106v700h251l-17 -37h-197v-286z" glyph-name="uni0228" horiz-adv-x="319" unicode="Ȩ"/><glyph d="M77 377h151l-17 -37h-134v-303h214l-17 -37h-88q0 -1 8 -7q13 -10 21.5 -21.5t8.5 -31.5q0 -25 -17.5 -43t-42.5 -18t-43 18t-18 43h37q0 -10 7 -17t17 -7t16.5 7t6.5 17q0 8 -3.5 12.5t-12.5 11.5q-11 8 -17 15.5t-8 20.5h-106v700h251l-17 -37h-197v-286z" glyph-name="uni0229" horiz-adv-x="319" unicode="ȩ"/><glyph d="M341 867h-326v-37h326v37zM130 784q-8 8 -20 8q-11 0 -19.5 -8t-8.5 -20q0 -11 8.5 -19t19.5 -8q12 0 20 8t8 19q0 12 -8 20zM264 784q-8 8 -20 8q-11 0 -19.5 -8t-8.5 -20q0 -11 8.5 -19t19.5 -8q12 0 20 8t8 19q0 12 -8 20zM278 26q43 40 43 115v418q0 75 -43 115 q-37 35 -101 35q-63 0 -100 -35q-43 -39 -43 -115v-418q0 -76 43 -115q37 -35 100 -35q64 0 101 35zM253 647q31 -29 31 -88v-418q0 -59 -31 -88q-26 -25 -76 -25q-49 0 -75 25q-31 28 -31 88v418q0 60 31 88q28 25 75 25q48 0 76 -25z" glyph-name="uni022A" horiz-adv-x="356" unicode="Ȫ"/><glyph d="M341 867h-326v-37h326v37zM130 784q-8 8 -20 8q-11 0 -19.5 -8t-8.5 -20q0 -11 8.5 -19t19.5 -8q12 0 20 8t8 19q0 12 -8 20zM264 784q-8 8 -20 8q-11 0 -19.5 -8t-8.5 -20q0 -11 8.5 -19t19.5 -8q12 0 20 8t8 19q0 12 -8 20zM278 26q43 40 43 115v418q0 75 -43 115 q-37 35 -101 35q-63 0 -100 -35q-43 -39 -43 -115v-418q0 -76 43 -115q37 -35 100 -35q64 0 101 35zM253 647q31 -29 31 -88v-418q0 -59 -31 -88q-26 -25 -76 -25q-49 0 -75 25q-31 28 -31 88v418q0 60 31 88q28 25 75 25q48 0 76 -25z" glyph-name="uni022B" horiz-adv-x="356" unicode="ȫ"/><glyph d="M349 146q0 -75 -43 -114q-37 -32 -100 -32h-143v165h-63v37h63l-1 498h127q64 0 100 -33q43 -37 43 -113v-73q0 -76 -42 -115q-7 -7 -15 -12q17 -8 31 -21q43 -39 43 -115v-50v-22zM99 368h90q50 0 76 25q30 27 30 88v73q0 60 -30 85q-27 24 -76 24h-90v-295zM312 146v22 v50q0 60 -31 88q-27 25 -75 25h-107l1 -129h63v-37h-63v-128h106q106 0 106 109z" glyph-name="uni0243" horiz-adv-x="384" unicode="Ƀ"/><glyph d="M331 341v-200q0 -76 -42 -115q-38 -35 -101 -35t-101 35q-42 39 -42 115v200h-40v37h40v322h37v-322h212v322h37v-322h40v-37h-40zM82 341v-200q0 -60 30 -88q26 -25 76 -25q48 0 76 25q30 29 30 88v200h-212z" glyph-name="uni0244" horiz-adv-x="376" unicode="Ʉ"/><glyph d="M52 0h-38l155 700h38l155 -700h-38l-136 623z" glyph-name="uni0245" horiz-adv-x="376" unicode="Ʌ"/><glyph d="M290 346q-24 -21 -58 -30l100 -316h-39l-98 311h-6h-107v-311h-37v311h-40v37h40v352h144q63 0 101 -35q42 -39 42 -115v-89q0 -76 -42 -115zM295 461v89q0 60 -31 88q-27 25 -75 25h-107v-315h107q48 0 75 25q31 28 31 88z" glyph-name="uni024C" horiz-adv-x="360" unicode="Ɍ"/><glyph d="M290 346q-24 -21 -58 -30l100 -316h-39l-98 311h-6h-107v-311h-37v311h-40v37h40v352h144q63 0 101 -35q42 -39 42 -115v-89q0 -76 -42 -115zM295 461v89q0 60 -31 88q-27 25 -75 25h-107v-315h107q48 0 75 25q31 28 31 88z" glyph-name="uni024D" horiz-adv-x="360" unicode="ɍ"/><glyph d="M365 700l-156 -700h-37l-156 700h38l40 -184h193l40 184h38zM191 77l87 402h-175z" glyph-name="uni0250" horiz-adv-x="382" unicode="ɐ"/><glyph d="M369 218v-72q0 -75 -43 -114q-37 -32 -100 -32h-144v663h-42q-10 0 -16.5 -7t-6.5 -16h-37q0 25 17.5 42.5t42.5 17.5h169q64 0 100 -33q43 -38 43 -113v-73q0 -76 -43 -115q-6 -7 -15 -12q19 -10 32 -21q43 -40 43 -115zM209 368q49 0 75 25q31 27 31 88v73q0 60 -30 85 q-27 24 -76 24h-90v-295h90zM332 218q0 59 -31 88q-28 25 -76 25h-106v-294h107q106 0 106 109v72z" glyph-name="uni0253" horiz-adv-x="404" unicode="ɓ"/><glyph d="M278 26q42 39 42 115v418q0 76 -42 115q-38 35 -101 35t-101 -35q-42 -39 -42 -115v-69h37v69q0 60 30 88q26 25 76 25t76 -25q30 -28 30 -88v-418q0 -60 -30 -88q-26 -25 -76 -25t-76 25q-30 28 -30 88v101h-37v-101q0 -76 42 -115q38 -35 101 -35t101 35z" glyph-name="uni0254" horiz-adv-x="354" unicode="ɔ"/><glyph d="M368 550v-404q0 -75 -43 -114q-37 -32 -100 -32h-143v663h-42q-10 0 -16.5 -7t-6.5 -16h-37q0 25 17.5 42.5t42.5 17.5h185q63 0 101 -35q42 -39 42 -115zM301 638q-28 25 -76 25h-106v-626h106q106 0 106 109v404q0 60 -30 88z" glyph-name="uni0257" horiz-adv-x="396" unicode="ɗ"/><glyph d="M279 0h-234l-17 37h214v303h-134l-17 37h151v286h-197l-17 37h251v-700z" glyph-name="uni0258" horiz-adv-x="319" unicode="ɘ"/><glyph d="M301.5 751.5q17.5 17.5 42.5 17.5v-37q-9 0 -16 -6.5t-7 -16.5v-219h-37v69q0 59 -31 88q-28 25 -76 25q-47 0 -75 -25q-31 -28 -31 -88v-418q0 -60 31 -88q26 -25 75 -25q50 0 76 25q31 29 31 88v191h-106l17 37h126v-228q0 -76 -43 -115q-37 -35 -101 -35 q-63 0 -100 35q-43 39 -43 115v418q0 76 43 115q37 35 100 35q64 0 101 -35l6 -6v41q0 25 17.5 42.5z" glyph-name="uni0260" unicode="ɠ"/><glyph d="M278 26q43 39 43 115v178h-126l-17 -37h106v-141q0 -59 -31 -88q-26 -25 -76 -25q-49 0 -75 25q-31 28 -31 88v318q0 60 31 88q28 25 75 25q48 0 76 -25q31 -29 31 -88v-19h37v19q0 76 -43 115q-37 35 -101 35q-63 0 -100 -35q-43 -39 -43 -115v-318q0 -76 43 -115 q37 -35 100 -35q64 0 101 35z" glyph-name="uni0262" unicode="ɢ"/><glyph d="M332 700v-700h-37v340h-213v-340h-37v700h37v-323h213v323h37z" glyph-name="uni0265" horiz-adv-x="377" unicode="ɥ"/><glyph d="M369 0h-37v340h-213v-340h-37v663h-42q-10 0 -16.5 -7t-6.5 -16h-37q0 25 17.5 42.5t42.5 17.5h79v-323h213v323h37v-700z" glyph-name="uni0266" horiz-adv-x="414" unicode="ɦ"/><glyph d="M122 341h-40v-341h-37v341h-40v37h40v322h37v-322h40v-37z" glyph-name="uni0268" horiz-adv-x="127" unicode="ɨ"/><glyph d="M82 600h-37v-600h37v600z" glyph-name="uni026A" horiz-adv-x="127" unicode="ɪ"/><glyph d="M60 0h-20v700h37v-558l162 448h21l162 -448v558h37v-700h-20l-189 521z" glyph-name="uni026F" horiz-adv-x="499" unicode="ɯ"/><glyph d="M342 0h-20l-240 570v-612q0 -25 -17.5 -42.5t-42.5 -17.5v37q9 0 16 6.5t7 16.5v742h20l240 -570v570h37v-700z" glyph-name="uni0272" horiz-adv-x="387" unicode="ɲ"/><glyph d="M342 0h-20l-240 480v-480h-37v600h20l240 -480v480h37v-600z" glyph-name="uni0274" horiz-adv-x="387" unicode="ɴ"/><glyph d="M253 327h151l-17 -37h-134v-253h214l-17 -37h-273q-63 0 -101 35q-42 39 -42 115v300q0 76 42 115q38 35 101 35h290l-17 -37h-197v-236zM216 37v526h-39q-48 0 -76 -25q-30 -28 -30 -88v-300q0 -60 30 -88q26 -25 76 -25h39z" glyph-name="uni0276" horiz-adv-x="495" unicode="ɶ"/><glyph d="M288 0l-98 261h-6h-107v-261h-37v600h144q63 0 101 -35q42 -39 42 -115v-39q0 -76 -42 -115q-24 -21 -58 -30l100 -266h-39zM259 323q31 28 31 88v39q0 60 -31 88q-27 25 -75 25h-107v-265h107q48 0 75 25z" glyph-name="uni0280" unicode="ʀ"/><glyph d="M285 304q42 -39 42 -115v-39q0 -76 -42 -115q-38 -35 -101 -35h-144v600h37v-261h107h6l98 261h39l-100 -266q34 -9 58 -30zM77 37h107q48 0 75 25q31 28 31 88v39q0 60 -31 88q-27 25 -75 25h-107v-265z" glyph-name="uni0281" unicode="ʁ"/><glyph d="M189 -58.5q7 -6.5 17 -6.5v-37q-25 0 -43 17.5t-18 42.5v705h-132v37h302v-37h-133v-705q0 -10 7 -16.5z" glyph-name="uni0288" horiz-adv-x="327" unicode="ʈ"/><glyph d="M331 341v-200q0 -76 -42 -115q-38 -35 -101 -35t-101 35q-42 39 -42 115v200h-40v37h40v322h37v-322h212v322h37v-322h40v-37h-40zM82 341v-200q0 -60 30 -88q26 -25 76 -25q48 0 76 25q30 29 30 88v200h-212z" glyph-name="uni0289" horiz-adv-x="376" unicode="ʉ"/><glyph d="M52 0h-38l155 700h38l155 -700h-38l-136 623z" glyph-name="uni028C" horiz-adv-x="376" unicode="ʌ"/><glyph d="M379 700h20l86 -700h-38l-68 565l-116 -454h-20l-116 455l-68 -566h-38l86 700h20l126 -491z" glyph-name="uni028D" horiz-adv-x="505" unicode="ʍ"/><glyph d="M49 0h-39l150 461v239h37v-239l150 -461h-39l-130 398z" glyph-name="uni028E" horiz-adv-x="356" unicode="ʎ"/><glyph d="M308 600h39l-150 -411v-189h-37v189l-150 411h39l129 -348z" glyph-name="uni028F" horiz-adv-x="356" unicode="ʏ"/><glyph d="M284 32q43 39 43 114v22q0 75 -43 115q-13 11 -32 21q9 5 15 12q43 39 43 115v23q0 75 -43 113q-36 33 -100 33h-127v-600h144q63 0 100 32zM167 563q49 0 76 -24q30 -25 30 -85v-23q0 -61 -31 -88q-26 -25 -75 -25h-90v245h90zM183 281q48 0 76 -25q31 -29 31 -88v-22 q0 -109 -106 -109h-107v244h106z" glyph-name="uni0299" horiz-adv-x="362" unicode="ʙ"/><glyph d="M301.5 651.5q17.5 17.5 42.5 17.5v-37q-9 0 -16 -6.5t-7 -16.5v-169h-37v19q0 59 -31 88q-28 25 -76 25q-47 0 -75 -25q-31 -28 -31 -88v-318q0 -60 31 -88q26 -25 75 -25q50 0 76 25q31 29 31 88v141h-106l17 37h126v-178q0 -76 -43 -115q-37 -35 -101 -35 q-63 0 -100 35q-43 39 -43 115v318q0 76 43 115q37 35 100 35q64 0 101 -35l6 -6v41q0 25 17.5 42.5z" glyph-name="uni029B" unicode="ʛ"/><glyph d="M332 600v-600h-37v290h-213v-290h-37v600h37v-273h213v273h37z" glyph-name="uni029C" horiz-adv-x="377" unicode="ʜ"/><glyph d="M291 37h-214v563h-37v-600h251v37z" glyph-name="uni029F" horiz-adv-x="309" unicode="ʟ"/><glyph d="M58 646q-6 -13 -19 -30h-20l6 15l2 8q0 5 -4 9q-13 10 -13 24q0 12 8.5 20t19.5 8t19.5 -8.5t8.5 -19.5q0 -12 -8 -26z" glyph-name="uni02BC" horiz-adv-x="76" unicode="ʼ"/><glyph d="M125 835l68 -98h-27l-64 72l-65 -72h-27l68 98h47z" glyph-name="circumflex" horiz-adv-x="203" unicode="ˆ"/><glyph d="M10 835h27l65 -72l64 72h27l-68 -98h-47z" glyph-name="caron" horiz-adv-x="203" unicode="ˇ"/><glyph d="M177.5 766q-28.5 -29 -69.5 -29q-40 0 -69 29t-29 69h37q0 -25 18 -43t43 -18q26 0 43.5 18t17.5 43h37q0 -40 -28.5 -69z" glyph-name="breve" horiz-adv-x="216" unicode="˘"/><glyph d="M58 784q-8 8 -20 8q-11 0 -19.5 -8t-8.5 -20q0 -11 8.5 -19t19.5 -8q12 0 20 8t8 19q0 12 -8 20z" glyph-name="dotaccent" horiz-adv-x="76" unicode="˙"/><glyph d="M112.5 755.5q17.5 17.5 17.5 42.5t-17.5 43t-42.5 18t-42.5 -18t-17.5 -43t17.5 -42.5t42.5 -17.5t42.5 17.5zM86.5 815q6.5 -7 6.5 -17q0 -9 -6.5 -16t-16.5 -7t-16.5 7t-6.5 16q0 10 6.5 17t16.5 7t16.5 -7z" glyph-name="ring" horiz-adv-x="140" unicode="˚"/><glyph d="M89 769q17 0 40 -14q29 -18 55 -18q41 0 78 46l-29 24q-24 -32 -50 -32q-17 0 -35 11q-34 20 -59 20q-40 0 -79 -47l29 -23q27 33 50 33z" glyph-name="tilde" horiz-adv-x="272" unicode="˜"/><glyph d="M125 835l-88 -98h-27l68 98h47zM233 835l-88 -98h-27l68 98h47z" glyph-name="hungarumlaut" horiz-adv-x="243" unicode="˝"/><glyph d="M-10 737h-27l-88 98h47z" glyph-name="gravecomb" horiz-adv-x="0" unicode="̀"/><glyph d="M-10 835l-88 -98h-27l68 98h47z" glyph-name="acutecomb" horiz-adv-x="0" unicode="́"/><glyph d="M-78 835l68 -98h-27l-64 72l-65 -72h-27l68 98h47z" glyph-name="uni0302" horiz-adv-x="0" unicode="̂"/><glyph d="M-183 769q17 0 40 -14q29 -18 55 -18q41 0 78 46l-29 24q-24 -32 -50 -32q-17 0 -35 11q-34 20 -59 20q-40 0 -79 -47l29 -23q27 33 50 33z" glyph-name="tildecomb" horiz-adv-x="0" unicode="̃"/><glyph d="M-10 774h-326v-37h326v37z" glyph-name="uni0304" horiz-adv-x="0" unicode="̄"/><glyph d="M-39 766q-29 -29 -69 -29q-41 0 -69.5 29t-28.5 69h37q0 -25 17.5 -43t43.5 -18q25 0 43 18t18 43h37q0 -40 -29 -69z" glyph-name="uni0306" horiz-adv-x="0" unicode="̆"/><glyph d="M-18 784q-8 8 -20 8q-11 0 -19.5 -8t-8.5 -20q0 -11 8.5 -19t19.5 -8q12 0 20 8t8 19q0 12 -8 20z" glyph-name="uni0307" horiz-adv-x="0" unicode="̇"/><glyph d="M-152 784q-8 8 -20 8q-11 0 -19.5 -8t-8.5 -20q0 -11 8.5 -19t19.5 -8q12 0 20 8t8 19q0 12 -8 20zM-18 784q-8 8 -20 8q-11 0 -19.5 -8t-8.5 -20q0 -11 8.5 -19t19.5 -8q12 0 20 8t8 19q0 12 -8 20z" glyph-name="uni0308" horiz-adv-x="0" unicode="̈"/><glyph d="M-106 835q40 0 68 -28.5t28 -69.5h-33q0 25 -18.5 43t-44.5 18l-32 32q17 5 32 5z" glyph-name="hookabovecomb" horiz-adv-x="0" unicode="̉"/><glyph d="M-27.5 755.5q17.5 17.5 17.5 42.5t-17.5 43t-42.5 18t-42.5 -18t-17.5 -43t17.5 -42.5t42.5 -17.5t42.5 17.5zM-53.5 815q6.5 -7 6.5 -17q0 -9 -6.5 -16t-16.5 -7t-16.5 7t-6.5 16q0 10 6.5 17t16.5 7t16.5 -7z" glyph-name="uni030A" horiz-adv-x="0" unicode="̊"/><glyph d="M-118 835l-88 -98h-27l68 98h47zM-10 835l-88 -98h-27l68 98h47z" glyph-name="uni030B" horiz-adv-x="0" unicode="̋"/><glyph d="M-193 835h27l65 -72l64 72h27l-68 -98h-47z" glyph-name="uni030C" horiz-adv-x="0" unicode="̌"/><glyph d="M-58 791q6 13 19 30h20l-6 -15l-2 -8q0 -5 4 -9q13 -10 13 -24q0 -12 -8.5 -20t-19.5 -8t-19.5 8.5t-8.5 19.5q0 12 8 26z" glyph-name="uni0312" horiz-adv-x="0" unicode="̒"/><glyph d="M-41 636q9 9 9 22v42h22v-42q0 -22 -15.5 -37.5t-37.5 -15.5v22q13 0 22 9z" glyph-name="uni031B" horiz-adv-x="0" unicode="̛"/><glyph d="M-18 -48q-8 8 -20 8q-11 0 -19.5 -8t-8.5 -20q0 -11 8.5 -19t19.5 -8q12 0 20 8t8 19q0 12 -8 20z" glyph-name="dotbelowcomb" horiz-adv-x="0" unicode="̣"/><glyph d="M-18 -94q-6 -13 -19 -30h-20l6 15l2 8q0 5 -4 9q-13 10 -13 24q0 12 8.5 20t19.5 8t19.5 -8.5t8.5 -19.5q0 -12 -8 -26z" glyph-name="uni0326" horiz-adv-x="0" unicode="̦"/><glyph d="M-48 -8.5q3 -3.5 7 -6.5q15 -12 23 -22.5t8 -30.5q0 -25 -17.5 -43t-42.5 -18t-43 18t-18 43h37q0 -10 7 -17t17 -7t16.5 7t6.5 17q0 8 -3.5 12.5t-12.5 11.5l-3 2q-11 9 -16.5 17t-5.5 25h37q0 -5 3 -8.5z" glyph-name="uni0327" horiz-adv-x="0" unicode="̧"/><glyph d="M-55.5 -76q14.5 -5 29.5 -5h9v-38h-19q-36 0 -57.5 12t-21.5 36q0 36 68 71h37q-21 -8 -40.5 -24t-19.5 -33q0 -14 14.5 -19z" glyph-name="uni0328" horiz-adv-x="0" unicode="̨"/><glyph d="M-10 -40h-326v-37h326v37z" glyph-name="uni0331" horiz-adv-x="0" unicode="̱"/><glyph d="M-10 377h-326v-37h326v37z" glyph-name="uni0335" horiz-adv-x="0" unicode="̵"/><glyph d="M-10 377h-326v-37h326v37z" glyph-name="uni0336" horiz-adv-x="0" unicode="̶"/><glyph d="M-232 213l222 238v-55l-222 -237v54z" glyph-name="uni0337" horiz-adv-x="0" unicode="̷"/><glyph d="M-296 -16l-35 14l287 717l34 -14z" glyph-name="uni0338" horiz-adv-x="0" unicode="̸"/><glyph d="M284 32q43 39 43 114v72q0 75 -43 115q-13 11 -32 21q9 5 15 12q43 39 43 115v73q0 75 -43 113q-36 33 -100 33h-127v-700h144q63 0 100 32zM167 663q49 0 76 -24q30 -25 30 -85v-73q0 -61 -31 -88q-26 -25 -75 -25h-90v295h90zM183 331q48 0 76 -25q31 -29 31 -88v-72 q0 -109 -106 -109h-107v294h106zM204 -48q-8 8 -20 8q-11 0 -19.5 -8t-8.5 -20q0 -11 8.5 -19t19.5 -8q12 0 20 8t8 19q0 12 -8 20z" glyph-name="uni1E04" horiz-adv-x="362" unicode="Ḅ"/><glyph d="M284 32q43 39 43 114v72q0 75 -43 115q-13 11 -32 21q9 5 15 12q43 39 43 115v73q0 75 -43 113q-36 33 -100 33h-127v-700h144q63 0 100 32zM167 663q49 0 76 -24q30 -25 30 -85v-73q0 -61 -31 -88q-26 -25 -75 -25h-90v295h90zM183 331q48 0 76 -25q31 -29 31 -88v-72 q0 -109 -106 -109h-107v294h106zM204 -48q-8 8 -20 8q-11 0 -19.5 -8t-8.5 -20q0 -11 8.5 -19t19.5 -8q12 0 20 8t8 19q0 12 -8 20z" glyph-name="uni1E05" horiz-adv-x="362" unicode="ḅ"/><glyph d="M283 32q43 39 43 114v404q0 76 -42 115q-38 35 -101 35h-143v-700h143q63 0 100 32zM183 663q48 0 76 -25q30 -28 30 -88v-404q0 -109 -106 -109h-106v626h106zM203 -48q-8 8 -20 8q-11 0 -19.5 -8t-8.5 -20q0 -11 8.5 -19t19.5 -8q12 0 20 8t8 19q0 12 -8 20z" glyph-name="uni1E0C" horiz-adv-x="354" unicode="Ḍ"/><glyph d="M283 32q43 39 43 114v404q0 76 -42 115q-38 35 -101 35h-143v-700h143q63 0 100 32zM183 663q48 0 76 -25q30 -28 30 -88v-404q0 -109 -106 -109h-106v626h106zM203 -48q-8 8 -20 8q-11 0 -19.5 -8t-8.5 -20q0 -11 8.5 -19t19.5 -8q12 0 20 8t8 19q0 12 -8 20z" glyph-name="uni1E0D" horiz-adv-x="354" unicode="ḍ"/><glyph d="M283 32q43 39 43 114v404q0 76 -42 115q-38 35 -101 35h-143v-700h143q63 0 100 32zM183 663q48 0 76 -25q30 -28 30 -88v-404q0 -109 -106 -109h-106v626h106zM346 -40h-326v-37h326v37z" glyph-name="uni1E0E" horiz-adv-x="354" unicode="Ḏ"/><glyph d="M283 32q43 39 43 114v404q0 76 -42 115q-38 35 -101 35h-143v-700h143q63 0 100 32zM183 663q48 0 76 -25q30 -28 30 -88v-404q0 -109 -106 -109h-106v626h106zM346 -40h-326v-37h326v37z" glyph-name="uni1E0F" horiz-adv-x="354" unicode="ḏ"/><glyph d="M283 32q43 39 43 114v404q0 76 -42 115q-38 35 -101 35h-143v-700h143q63 0 100 32zM183 663q48 0 76 -25q30 -28 30 -88v-404q0 -109 -106 -109h-106v626h106zM206 -40l68 -98h-27l-64 72l-65 -72h-27l68 98h47z" glyph-name="uni1E12" horiz-adv-x="354" unicode="Ḓ"/><glyph d="M283 32q43 39 43 114v404q0 76 -42 115q-38 35 -101 35h-143v-700h143q63 0 100 32zM183 663q48 0 76 -25q30 -28 30 -88v-404q0 -109 -106 -109h-106v626h106zM206 -40l68 -98h-27l-64 72l-65 -72h-27l68 98h47z" glyph-name="uni1E13" horiz-adv-x="354" unicode="ḓ"/><glyph d="M332 700v-700h-37v340h-213v-340h-37v700h37v-323h213v323h37zM209 -94q-6 -13 -19 -30h-20l6 15l2 8q0 5 -4 9q-13 10 -13 24q0 12 8.5 20t19.5 8t19.5 -8.5t8.5 -19.5q0 -12 -8 -26z" glyph-name="uni1E24" horiz-adv-x="377" unicode="Ḥ"/><glyph d="M332 700v-700h-37v340h-213v-340h-37v700h37v-323h213v323h37zM209 -94q-6 -13 -19 -30h-20l6 15l2 8q0 5 -4 9q-13 10 -13 24q0 12 8.5 20t19.5 8t19.5 -8.5t8.5 -19.5q0 -12 -8 -26z" glyph-name="uni1E25" horiz-adv-x="377" unicode="ḥ"/><glyph d="M165 928l-88 -98h-27l68 98h47zM17 784q-8 8 -20 8q-11 0 -19.5 -8t-8.5 -20q0 -11 8.5 -19t19.5 -8q12 0 20 8t8 19q0 12 -8 20zM151 784q-8 8 -20 8q-11 0 -19.5 -8t-8.5 -20q0 -11 8.5 -19t19.5 -8q12 0 20 8t8 19q0 12 -8 20zM82 700h-37v-700h37v700z" glyph-name="uni1E2E" horiz-adv-x="127" unicode="Ḯ"/><glyph d="M165 928l-88 -98h-27l68 98h47zM17 784q-8 8 -20 8q-11 0 -19.5 -8t-8.5 -20q0 -11 8.5 -19t19.5 -8q12 0 20 8t8 19q0 12 -8 20zM151 784q-8 8 -20 8q-11 0 -19.5 -8t-8.5 -20q0 -11 8.5 -19t19.5 -8q12 0 20 8t8 19q0 12 -8 20zM82 700h-37v-700h37v700z" glyph-name="uni1E2F" horiz-adv-x="127" unicode="ḯ"/><glyph d="M291 37h-214v663h-37v-700h251v37zM186 -48q-8 8 -20 8q-11 0 -19.5 -8t-8.5 -20q0 -11 8.5 -19t19.5 -8q12 0 20 8t8 19q0 12 -8 20z" glyph-name="uni1E36" horiz-adv-x="309" unicode="Ḷ"/><glyph d="M291 37h-214v663h-37v-700h251v37zM186 -48q-8 8 -20 8q-11 0 -19.5 -8t-8.5 -20q0 -11 8.5 -19t19.5 -8q12 0 20 8t8 19q0 12 -8 20z" glyph-name="uni1E37" horiz-adv-x="309" unicode="ḷ"/><glyph d="M291 37h-214v663h-37v-700h251v37zM189 -40l68 -98h-27l-64 72l-65 -72h-27l68 98h47z" glyph-name="uni1E3C" horiz-adv-x="309" unicode="Ḽ"/><glyph d="M291 37h-214v663h-37v-700h251v37zM189 -40l68 -98h-27l-64 72l-65 -72h-27l68 98h47z" glyph-name="uni1E3D" horiz-adv-x="309" unicode="ḽ"/><glyph d="M351 835l-88 -98h-27l68 98h47zM439 700h20v-700h-37v558l-162 -448h-21l-162 448v-558h-37v700h20l190 -521z" glyph-name="uni1E3E" horiz-adv-x="499" unicode="Ḿ"/><glyph d="M351 835l-88 -98h-27l68 98h47zM439 700h20v-700h-37v558l-162 -448h-21l-162 448v-558h-37v700h20l190 -521z" glyph-name="uni1E3F" horiz-adv-x="499" unicode="ḿ"/><glyph d="M213 784q-8 8 -20 8q-11 0 -19.5 -8t-8.5 -20q0 -11 8.5 -19t19.5 -8q12 0 20 8t8 19q0 12 -8 20zM342 0h-20l-240 570v-570h-37v700h20l240 -570v570h37v-700z" glyph-name="uni1E44" horiz-adv-x="387" unicode="Ṅ"/><glyph d="M213 784q-8 8 -20 8q-11 0 -19.5 -8t-8.5 -20q0 -11 8.5 -19t19.5 -8q12 0 20 8t8 19q0 12 -8 20zM342 0h-20l-240 570v-570h-37v700h20l240 -570v570h37v-700z" glyph-name="uni1E45" horiz-adv-x="387" unicode="ṅ"/><glyph d="M342 0h-20l-240 570v-570h-37v700h20l240 -570v570h37v-700zM213 -48q-8 8 -20 8q-11 0 -19.5 -8t-8.5 -20q0 -11 8.5 -19t19.5 -8q12 0 20 8t8 19q0 12 -8 20z" glyph-name="uni1E46" horiz-adv-x="387" unicode="Ṇ"/><glyph d="M342 0h-20l-240 570v-570h-37v700h20l240 -570v570h37v-700zM213 -48q-8 8 -20 8q-11 0 -19.5 -8t-8.5 -20q0 -11 8.5 -19t19.5 -8q12 0 20 8t8 19q0 12 -8 20z" glyph-name="uni1E47" horiz-adv-x="387" unicode="ṇ"/><glyph d="M342 0h-20l-240 570v-570h-37v700h20l240 -570v570h37v-700zM217 -40l68 -98h-27l-64 72l-65 -72h-27l68 98h47z" glyph-name="uni1E4A" horiz-adv-x="387" unicode="Ṋ"/><glyph d="M342 0h-20l-240 570v-570h-37v700h20l240 -570v570h37v-700zM217 -40l68 -98h-27l-64 72l-65 -72h-27l68 98h47z" glyph-name="uni1E4B" horiz-adv-x="387" unicode="ṋ"/><glyph d="M280 942l-88 -98h-27l68 98h47zM131 769q17 0 40 -14q29 -18 55 -18q41 0 78 46l-29 24q-24 -32 -50 -32q-17 0 -35 11q-34 20 -59 20q-40 0 -79 -47l29 -23q27 33 50 33zM278 26q43 39 43 115v418q0 76 -43 115q-37 35 -100 35q-64 0 -101 -35q-43 -40 -43 -115v-418 q0 -75 43 -115q37 -35 101 -35q63 0 100 35zM253 647q31 -28 31 -88v-418q0 -60 -31 -88q-26 -25 -75 -25q-50 0 -76 25q-31 29 -31 88v418q0 59 31 88q28 25 76 25q47 0 75 -25z" glyph-name="uni1E4C" unicode="Ṍ"/><glyph d="M280 942l-88 -98h-27l68 98h47zM131 769q17 0 40 -14q29 -18 55 -18q41 0 78 46l-29 24q-24 -32 -50 -32q-17 0 -35 11q-34 20 -59 20q-40 0 -79 -47l29 -23q27 33 50 33zM278 26q43 39 43 115v418q0 76 -43 115q-37 35 -100 35q-64 0 -101 -35q-43 -40 -43 -115v-418 q0 -75 43 -115q37 -35 101 -35q63 0 100 35zM253 647q31 -28 31 -88v-418q0 -60 -31 -88q-26 -25 -75 -25q-50 0 -76 25q-31 29 -31 88v418q0 59 31 88q28 25 76 25q47 0 75 -25z" glyph-name="uni1E4D" unicode="ṍ"/><glyph d="M190 812h-27l-88 98h47zM341 774h-327v-37h327v37zM278 26q43 40 43 115v418q0 75 -43 115q-37 35 -101 35q-63 0 -100 -35q-43 -39 -43 -115v-418q0 -76 43 -115q37 -35 100 -35q64 0 101 35zM253 647q31 -29 31 -88v-418q0 -59 -31 -88q-26 -25 -76 -25q-49 0 -75 25 q-31 28 -31 88v418q0 60 31 88q28 25 75 25q48 0 76 -25z" glyph-name="uni1E50" unicode="Ṑ"/><glyph d="M190 812h-27l-88 98h47zM341 774h-327v-37h327v37zM278 26q43 40 43 115v418q0 75 -43 115q-37 35 -101 35q-63 0 -100 -35q-43 -39 -43 -115v-418q0 -76 43 -115q37 -35 100 -35q64 0 101 35zM253 647q31 -29 31 -88v-418q0 -59 -31 -88q-26 -25 -76 -25q-49 0 -75 25 q-31 28 -31 88v418q0 60 31 88q28 25 75 25q48 0 76 -25z" glyph-name="uni1E51" unicode="ṑ"/><glyph d="M280 910l-88 -98h-27l68 98h47zM341 737v37h-327v-37h327zM278 26q43 39 43 115v418q0 76 -43 115q-37 35 -100 35q-64 0 -101 -35q-43 -40 -43 -115v-418q0 -75 43 -115q37 -35 101 -35q63 0 100 35zM253 647q31 -28 31 -88v-418q0 -60 -31 -88q-26 -25 -75 -25 q-50 0 -76 25q-31 29 -31 88v418q0 59 31 88q28 25 76 25q47 0 75 -25z" glyph-name="uni1E52" unicode="Ṓ"/><glyph d="M280 910l-88 -98h-27l68 98h47zM341 737v37h-327v-37h327zM278 26q43 39 43 115v418q0 76 -43 115q-37 35 -100 35q-64 0 -101 -35q-43 -40 -43 -115v-418q0 -75 43 -115q37 -35 101 -35q63 0 100 35zM253 647q31 -28 31 -88v-418q0 -60 -31 -88q-26 -25 -75 -25 q-50 0 -76 25q-31 29 -31 88v418q0 59 31 88q28 25 76 25q47 0 75 -25z" glyph-name="uni1E53" unicode="ṓ"/><glyph d="M275 26q42 39 42 115v49q0 134 -135 193q-24 10 -47 24t-45.5 47t-22.5 85v20q0 59 31 88q26 25 76 25t75 -25q31 -28 31 -88v-68h37v68q0 76 -42 115q-38 35 -101 35q-64 0 -101 -35q-43 -40 -43 -115v-20q0 -89 46 -131t91 -59q37 -15 75 -51t38 -108v-49 q0 -60 -31 -88q-27 -25 -75 -25q-50 0 -76 25q-31 29 -31 88v102h-37v-102q0 -75 43 -115q37 -35 101 -35q63 0 101 35zM193 -48q-8 8 -20 8q-11 0 -19.5 -8t-8.5 -20q0 -11 8.5 -19t19.5 -8q12 0 20 8t8 19q0 12 -8 20z" glyph-name="uni1E62" horiz-adv-x="347" unicode="Ṣ"/><glyph d="M275 26q42 39 42 115v49q0 134 -135 193q-24 10 -47 24t-45.5 47t-22.5 85v20q0 59 31 88q26 25 76 25t75 -25q31 -28 31 -88v-68h37v68q0 76 -42 115q-38 35 -101 35q-64 0 -101 -35q-43 -40 -43 -115v-20q0 -89 46 -131t91 -59q37 -15 75 -51t38 -108v-49 q0 -60 -31 -88q-27 -25 -75 -25q-50 0 -76 25q-31 29 -31 88v102h-37v-102q0 -75 43 -115q37 -35 101 -35q63 0 101 35zM193 -48q-8 8 -20 8q-11 0 -19.5 -8t-8.5 -20q0 -11 8.5 -19t19.5 -8q12 0 20 8t8 19q0 12 -8 20z" glyph-name="uni1E63" horiz-adv-x="347" unicode="ṣ"/><glyph d="M315 663h-133v-663h-37v663h-132v37h302v-37zM184 -48q-8 8 -20 8q-11 0 -19.5 -8t-8.5 -20q0 -11 8.5 -19t19.5 -8q12 0 20 8t8 19q0 12 -8 20z" glyph-name="uni1E6C" horiz-adv-x="327" unicode="Ṭ"/><glyph d="M315 663h-133v-663h-37v663h-132v37h302v-37zM184 -48q-8 8 -20 8q-11 0 -19.5 -8t-8.5 -20q0 -11 8.5 -19t19.5 -8q12 0 20 8t8 19q0 12 -8 20z" glyph-name="uni1E6D" horiz-adv-x="327" unicode="ṭ"/><glyph d="M315 663h-133v-663h-37v663h-132v37h302v-37zM327 -40h-326v-37h326v37z" glyph-name="uni1E6E" horiz-adv-x="328" unicode="Ṯ"/><glyph d="M315 663h-133v-663h-37v663h-132v37h302v-37zM327 -40h-326v-37h326v37z" glyph-name="uni1E6F" horiz-adv-x="328" unicode="ṯ"/><glyph d="M315 663h-133v-663h-37v663h-132v37h302v-37zM187 -40l68 -98h-27l-64 72l-65 -72h-27l68 98h47z" glyph-name="uni1E70" horiz-adv-x="327" unicode="Ṱ"/><glyph d="M315 663h-133v-663h-37v663h-132v37h302v-37zM187 -40l68 -98h-27l-64 72l-65 -72h-27l68 98h47z" glyph-name="uni1E71" horiz-adv-x="327" unicode="ṱ"/><glyph d="M266 737h-27l-88 98h47zM127 0h-20l-86 700h38l68 -566l116 455h20l116 -454l68 565h38l-86 -700h-20l-126 491z" glyph-name="Wgrave" horiz-adv-x="505" unicode="Ẁ"/><glyph d="M266 737h-27l-88 98h47zM127 0h-20l-86 700h38l68 -566l116 455h20l116 -454l68 565h38l-86 -700h-20l-126 491z" glyph-name="wgrave" horiz-adv-x="505" unicode="ẁ"/><glyph d="M354 835l-88 -98h-27l68 98h47zM127 0h-20l-86 700h38l68 -566l116 455h20l116 -454l68 565h38l-86 -700h-20l-126 491z" glyph-name="Wacute" horiz-adv-x="505" unicode="Ẃ"/><glyph d="M354 835l-88 -98h-27l68 98h47zM127 0h-20l-86 700h38l68 -566l116 455h20l116 -454l68 565h38l-86 -700h-20l-126 491z" glyph-name="wacute" horiz-adv-x="505" unicode="ẃ"/><glyph d="M206 784q-8 8 -20 8q-11 0 -19.5 -8t-8.5 -20q0 -11 8.5 -19t19.5 -8q12 0 20 8t8 19q0 12 -8 20zM340 784q-8 8 -20 8q-11 0 -19.5 -8t-8.5 -20q0 -11 8.5 -19t19.5 -8q12 0 20 8t8 19q0 12 -8 20zM127 0h-20l-86 700h38l68 -566l116 455h20l116 -454l68 565h38 l-86 -700h-20l-126 491z" glyph-name="Wdieresis" horiz-adv-x="505" unicode="Ẅ"/><glyph d="M206 784q-8 8 -20 8q-11 0 -19.5 -8t-8.5 -20q0 -11 8.5 -19t19.5 -8q12 0 20 8t8 19q0 12 -8 20zM340 784q-8 8 -20 8q-11 0 -19.5 -8t-8.5 -20q0 -11 8.5 -19t19.5 -8q12 0 20 8t8 19q0 12 -8 20zM127 0h-20l-86 700h38l68 -566l116 455h20l116 -454l68 565h38 l-86 -700h-20l-126 491z" glyph-name="wdieresis" horiz-adv-x="505" unicode="ẅ"/><glyph d="M328 37v-37h-303l249 663h-249l17 37h285l-248 -663h249zM196 -48q-8 8 -20 8q-11 0 -19.5 -8t-8.5 -20q0 -11 8.5 -19t19.5 -8q12 0 20 8t8 19q0 12 -8 20z" glyph-name="uni1E92" horiz-adv-x="353" unicode="Ẓ"/><glyph d="M328 37v-37h-303l249 663h-249l17 37h285l-248 -663h249zM196 -48q-8 8 -20 8q-11 0 -19.5 -8t-8.5 -20q0 -11 8.5 -19t19.5 -8q12 0 20 8t8 19q0 12 -8 20z" glyph-name="uni1E93" horiz-adv-x="353" unicode="ẓ"/><glyph d="M287 184h-193l-40 -184h-38l156 700h37l156 -700h-38zM278 221l-87 402l-88 -402h175zM211 -48q-8 8 -20 8q-11 0 -19.5 -8t-8.5 -20q0 -11 8.5 -19t19.5 -8q12 0 20 8t8 19q0 12 -8 20z" glyph-name="uni1EA0" horiz-adv-x="382" unicode="Ạ"/><glyph d="M287 184h-193l-40 -184h-38l156 700h37l156 -700h-38zM278 221l-87 402l-88 -402h175zM211 -48q-8 8 -20 8q-11 0 -19.5 -8t-8.5 -20q0 -11 8.5 -19t19.5 -8q12 0 20 8t8 19q0 12 -8 20z" glyph-name="uni1EA1" horiz-adv-x="382" unicode="ạ"/><glyph d="M111 835q40 0 68 -28.5t28 -69.5h-33q0 25 -18.5 43t-44.5 18l-32 32q17 5 32 5zM287 184h-193l-40 -184h-38l156 700h37l156 -700h-38zM278 221l-87 402l-88 -402h175z" glyph-name="uni1EA2" horiz-adv-x="382" unicode="Ả"/><glyph d="M111 835q40 0 68 -28.5t28 -69.5h-33q0 25 -18.5 43t-44.5 18l-32 32q17 5 32 5zM287 184h-193l-40 -184h-38l156 700h37l156 -700h-38zM278 221l-87 402l-88 -402h175z" glyph-name="uni1EA3" horiz-adv-x="382" unicode="ả"/><glyph d="M375 935l-88 -98h-27l68 98h47zM214 835l68 -98h-27l-64 72l-65 -72h-27l68 98h47zM287 184h-193l-40 -184h-38l156 700h37l156 -700h-38zM278 221l-87 402l-88 -402h175z" glyph-name="uni1EA4" horiz-adv-x="392" unicode="Ấ"/><glyph d="M375 935l-88 -98h-27l68 98h47zM214 835l68 -98h-27l-64 72l-65 -72h-27l68 98h47zM287 184h-193l-40 -184h-38l156 700h37l156 -700h-38zM278 221l-87 402l-88 -402h175z" glyph-name="uni1EA5" horiz-adv-x="392" unicode="ấ"/><glyph d="M287 837h-27l-88 98h47zM214 835l68 -98h-27l-64 72l-65 -72h-27l68 98h47zM287 184h-193l-40 -184h-38l156 700h37l156 -700h-38zM278 221l-87 402l-88 -402h175z" glyph-name="uni1EA6" horiz-adv-x="382" unicode="Ầ"/><glyph d="M287 837h-27l-88 98h47zM214 835l68 -98h-27l-64 72l-65 -72h-27l68 98h47zM287 184h-193l-40 -184h-38l156 700h37l156 -700h-38zM278 221l-87 402l-88 -402h175z" glyph-name="uni1EA7" horiz-adv-x="382" unicode="ầ"/><glyph d="M111 961q40 0 68 -28.5t28 -69.5h-33q0 25 -18.5 43t-44.5 18l-32 32q17 5 32 5zM214 835l68 -98h-27l-64 72l-65 -72h-27l68 98h47zM287 184h-193l-40 -184h-38l156 700h37l156 -700h-38zM278 221l-87 402l-88 -402h175z" glyph-name="uni1EA8" horiz-adv-x="382" unicode="Ẩ"/><glyph d="M111 961q40 0 68 -28.5t28 -69.5h-33q0 25 -18.5 43t-44.5 18l-32 32q17 5 32 5zM214 835l68 -98h-27l-64 72l-65 -72h-27l68 98h47zM287 184h-193l-40 -184h-38l156 700h37l156 -700h-38zM278 221l-87 402l-88 -402h175z" glyph-name="uni1EA9" horiz-adv-x="382" unicode="ẩ"/><glyph d="M141 895q17 0 40 -14q28 -18 55 -18q41 0 78 46l-29 24q-24 -32 -50 -32q-17 0 -35 11q-34 20 -59 20q-40 0 -79 -47l29 -23q27 33 50 33zM214 835l68 -98h-27l-64 72l-65 -72h-27l68 98h47zM287 184h-193l-40 -184h-38l156 700h37l156 -700h-38zM278 221l-87 402 l-88 -402h175z" glyph-name="uni1EAA" horiz-adv-x="382" unicode="Ẫ"/><glyph d="M141 895q17 0 40 -14q28 -18 55 -18q41 0 78 46l-29 24q-24 -32 -50 -32q-17 0 -35 11q-34 20 -59 20q-40 0 -79 -47l29 -23q27 33 50 33zM214 835l68 -98h-27l-64 72l-65 -72h-27l68 98h47zM287 184h-193l-40 -184h-38l156 700h37l156 -700h-38zM278 221l-87 402 l-88 -402h175z" glyph-name="uni1EAB" horiz-adv-x="382" unicode="ẫ"/><glyph d="M214 835l68 -98h-27l-64 72l-65 -72h-27l68 98h47zM287 184h-193l-40 -184h-38l156 700h37l156 -700h-38zM278 221l-87 402l-88 -402h175zM211 -48q-8 8 -20 8q-11 0 -19.5 -8t-8.5 -20q0 -11 8.5 -19t19.5 -8q12 0 20 8t8 19q0 12 -8 20z" glyph-name="uni1EAC" horiz-adv-x="382" unicode="Ậ"/><glyph d="M214 835l68 -98h-27l-64 72l-65 -72h-27l68 98h47zM287 184h-193l-40 -184h-38l156 700h37l156 -700h-38zM278 221l-87 402l-88 -402h175zM211 -48q-8 8 -20 8q-11 0 -19.5 -8t-8.5 -20q0 -11 8.5 -19t19.5 -8q12 0 20 8t8 19q0 12 -8 20z" glyph-name="uni1EAD" horiz-adv-x="382" unicode="ậ"/><glyph d="M292 961l-88 -98h-27l68 98h47zM260.5 766q-28.5 -29 -69.5 -29q-40 0 -69 29t-29 69h37q0 -25 18 -43t43 -18q26 0 43.5 18t17.5 43h37q0 -40 -28.5 -69zM287 184h-193l-40 -184h-38l156 700h37l156 -700h-38zM278 221l-87 402l-88 -402h175z" glyph-name="uni1EAE" horiz-adv-x="382" unicode="Ắ"/><glyph d="M292 961l-88 -98h-27l68 98h47zM260.5 766q-28.5 -29 -69.5 -29q-40 0 -69 29t-29 69h37q0 -25 18 -43t43 -18q26 0 43.5 18t17.5 43h37q0 -40 -28.5 -69zM287 184h-193l-40 -184h-38l156 700h37l156 -700h-38zM278 221l-87 402l-88 -402h175z" glyph-name="uni1EAF" horiz-adv-x="382" unicode="ắ"/><glyph d="M205 863h-27l-88 98h47zM148 792q18 -18 43 -18q26 0 43.5 18t17.5 43h37q0 -40 -28.5 -69t-69.5 -29q-40 0 -69 29t-29 69h37q0 -25 18 -43zM287 184h-193l-40 -184h-38l156 700h37l156 -700h-38zM278 221l-87 402l-88 -402h175z" glyph-name="uni1EB0" horiz-adv-x="382" unicode="Ằ"/><glyph d="M205 863h-27l-88 98h47zM148 792q18 -18 43 -18q26 0 43.5 18t17.5 43h37q0 -40 -28.5 -69t-69.5 -29q-40 0 -69 29t-29 69h37q0 -25 18 -43zM287 184h-193l-40 -184h-38l156 700h37l156 -700h-38zM278 221l-87 402l-88 -402h175z" glyph-name="uni1EB1" horiz-adv-x="382" unicode="ằ"/><glyph d="M111 961q40 0 68 -28.5t28 -69.5h-33q0 25 -18.5 43t-44.5 18l-32 32q17 5 32 5zM260.5 766q-28.5 -29 -69.5 -29q-40 0 -69 29t-29 69h37q0 -25 18 -43t43 -18q26 0 43.5 18t17.5 43h37q0 -40 -28.5 -69zM287 184h-193l-40 -184h-38l156 700h37l156 -700h-38zM278 221 l-87 402l-88 -402h175z" glyph-name="uni1EB2" horiz-adv-x="382" unicode="Ẳ"/><glyph d="M111 961q40 0 68 -28.5t28 -69.5h-33q0 25 -18.5 43t-44.5 18l-32 32q17 5 32 5zM260.5 766q-28.5 -29 -69.5 -29q-40 0 -69 29t-29 69h37q0 -25 18 -43t43 -18q26 0 43.5 18t17.5 43h37q0 -40 -28.5 -69zM287 184h-193l-40 -184h-38l156 700h37l156 -700h-38zM278 221 l-87 402l-88 -402h175z" glyph-name="uni1EB3" horiz-adv-x="382" unicode="ẳ"/><glyph d="M141 895q17 0 40 -14q28 -18 55 -18q41 0 78 46l-29 24q-24 -32 -50 -32q-17 0 -35 11q-34 20 -59 20q-40 0 -79 -47l29 -23q27 33 50 33zM260.5 766q-28.5 -29 -69.5 -29q-40 0 -69 29t-29 69h37q0 -25 18 -43t43 -18q26 0 43.5 18t17.5 43h37q0 -40 -28.5 -69zM287 184 h-193l-40 -184h-38l156 700h37l156 -700h-38zM278 221l-87 402l-88 -402h175z" glyph-name="uni1EB4" horiz-adv-x="382" unicode="Ẵ"/><glyph d="M141 895q17 0 40 -14q28 -18 55 -18q41 0 78 46l-29 24q-24 -32 -50 -32q-17 0 -35 11q-34 20 -59 20q-40 0 -79 -47l29 -23q27 33 50 33zM260.5 766q-28.5 -29 -69.5 -29q-40 0 -69 29t-29 69h37q0 -25 18 -43t43 -18q26 0 43.5 18t17.5 43h37q0 -40 -28.5 -69zM287 184 h-193l-40 -184h-38l156 700h37l156 -700h-38zM278 221l-87 402l-88 -402h175z" glyph-name="uni1EB5" horiz-adv-x="382" unicode="ẵ"/><glyph d="M260.5 766q-28.5 -29 -69.5 -29q-40 0 -69 29t-29 69h37q0 -25 18 -43t43 -18q26 0 43.5 18t17.5 43h37q0 -40 -28.5 -69zM287 184h-193l-40 -184h-38l156 700h37l156 -700h-38zM278 221l-87 402l-88 -402h175zM211 -48q-8 8 -20 8q-11 0 -19.5 -8t-8.5 -20 q0 -11 8.5 -19t19.5 -8q12 0 20 8t8 19q0 12 -8 20z" glyph-name="uni1EB6" horiz-adv-x="382" unicode="Ặ"/><glyph d="M260.5 766q-28.5 -29 -69.5 -29q-40 0 -69 29t-29 69h37q0 -25 18 -43t43 -18q26 0 43.5 18t17.5 43h37q0 -40 -28.5 -69zM287 184h-193l-40 -184h-38l156 700h37l156 -700h-38zM278 221l-87 402l-88 -402h175zM211 -48q-8 8 -20 8q-11 0 -19.5 -8t-8.5 -20 q0 -11 8.5 -19t19.5 -8q12 0 20 8t8 19q0 12 -8 20z" glyph-name="uni1EB7" horiz-adv-x="382" unicode="ặ"/><glyph d="M291 700l-17 -37h-197v-286h151l-17 -37h-134v-303h214l-17 -37h-234v700h251zM186 -48q-8 8 -20 8q-11 0 -19.5 -8t-8.5 -20q0 -11 8.5 -19t19.5 -8q12 0 20 8t8 19q0 12 -8 20z" glyph-name="uni1EB8" horiz-adv-x="319" unicode="Ẹ"/><glyph d="M291 700l-17 -37h-197v-286h151l-17 -37h-134v-303h214l-17 -37h-234v700h251zM186 -48q-8 8 -20 8q-11 0 -19.5 -8t-8.5 -20q0 -11 8.5 -19t19.5 -8q12 0 20 8t8 19q0 12 -8 20z" glyph-name="uni1EB9" horiz-adv-x="319" unicode="ẹ"/><glyph d="M86 835q40 0 68 -28.5t28 -69.5h-33q0 25 -18.5 43t-44.5 18l-32 32q17 5 32 5zM291 700l-17 -37h-197v-286h151l-17 -37h-134v-303h214l-17 -37h-234v700h251z" glyph-name="uni1EBA" horiz-adv-x="319" unicode="Ẻ"/><glyph d="M86 835q40 0 68 -28.5t28 -69.5h-33q0 25 -18.5 43t-44.5 18l-32 32q17 5 32 5zM291 700l-17 -37h-197v-286h151l-17 -37h-134v-303h214l-17 -37h-234v700h251z" glyph-name="uni1EBB" horiz-adv-x="319" unicode="ẻ"/><glyph d="M118 769q17 0 40 -14q29 -18 55 -18q41 0 78 46l-29 24q-24 -32 -50 -32q-17 0 -35 11q-34 20 -59 20q-40 0 -79 -47l29 -23q27 33 50 33zM291 700l-17 -37h-197v-286h151l-17 -37h-134v-303h214l-17 -37h-234v700h251z" glyph-name="uni1EBC" horiz-adv-x="319" unicode="Ẽ"/><glyph d="M118 769q17 0 40 -14q29 -18 55 -18q41 0 78 46l-29 24q-24 -32 -50 -32q-17 0 -35 11q-34 20 -59 20q-40 0 -79 -47l29 -23q27 33 50 33zM291 700l-17 -37h-197v-286h151l-17 -37h-134v-303h214l-17 -37h-234v700h251z" glyph-name="uni1EBD" horiz-adv-x="319" unicode="ẽ"/><glyph d="M350 935l-88 -98h-27l68 98h47zM189 835l68 -98h-27l-64 72l-65 -72h-27l68 98h47zM291 700l-17 -37h-197v-286h151l-17 -37h-134v-303h214l-17 -37h-234v700h251z" glyph-name="uni1EBE" horiz-adv-x="319" unicode="Ế"/><glyph d="M350 935l-88 -98h-27l68 98h47zM189 835l68 -98h-27l-64 72l-65 -72h-27l68 98h47zM291 700l-17 -37h-197v-286h151l-17 -37h-134v-303h214l-17 -37h-234v700h251z" glyph-name="uni1EBF" horiz-adv-x="319" unicode="ế"/><glyph d="M262 837h-27l-88 98h47zM189 835l68 -98h-27l-64 72l-65 -72h-27l68 98h47zM291 700l-17 -37h-197v-286h151l-17 -37h-134v-303h214l-17 -37h-234v700h251z" glyph-name="uni1EC0" horiz-adv-x="319" unicode="Ề"/><glyph d="M262 837h-27l-88 98h47zM189 835l68 -98h-27l-64 72l-65 -72h-27l68 98h47zM291 700l-17 -37h-197v-286h151l-17 -37h-134v-303h214l-17 -37h-234v700h251z" glyph-name="uni1EC1" horiz-adv-x="319" unicode="ề"/><glyph d="M86 961q40 0 68 -28.5t28 -69.5h-33q0 25 -18.5 43t-44.5 18l-32 32q17 5 32 5zM189 835l68 -98h-27l-64 72l-65 -72h-27l68 98h47zM291 700l-17 -37h-197v-286h151l-17 -37h-134v-303h214l-17 -37h-234v700h251z" glyph-name="uni1EC2" horiz-adv-x="319" unicode="Ể"/><glyph d="M86 961q40 0 68 -28.5t28 -69.5h-33q0 25 -18.5 43t-44.5 18l-32 32q17 5 32 5zM189 835l68 -98h-27l-64 72l-65 -72h-27l68 98h47zM291 700l-17 -37h-197v-286h151l-17 -37h-134v-303h214l-17 -37h-234v700h251z" glyph-name="uni1EC3" horiz-adv-x="319" unicode="ể"/><glyph d="M116 895q17 0 40 -14q28 -18 55 -18q41 0 78 46l-29 24q-24 -32 -50 -32q-17 0 -35 11q-34 20 -59 20q-40 0 -79 -47l29 -23q27 33 50 33zM189 835l68 -98h-27l-64 72l-65 -72h-27l68 98h47zM291 700l-17 -37h-197v-286h151l-17 -37h-134v-303h214l-17 -37h-234v700h251z" glyph-name="uni1EC4" horiz-adv-x="319" unicode="Ễ"/><glyph d="M116 895q17 0 40 -14q28 -18 55 -18q41 0 78 46l-29 24q-24 -32 -50 -32q-17 0 -35 11q-34 20 -59 20q-40 0 -79 -47l29 -23q27 33 50 33zM189 835l68 -98h-27l-64 72l-65 -72h-27l68 98h47zM291 700l-17 -37h-197v-286h151l-17 -37h-134v-303h214l-17 -37h-234v700h251z" glyph-name="uni1EC5" horiz-adv-x="319" unicode="ễ"/><glyph d="M189 835l68 -98h-27l-64 72l-65 -72h-27l68 98h47zM291 700l-17 -37h-197v-286h151l-17 -37h-134v-303h214l-17 -37h-234v700h251zM186 -48q-8 8 -20 8q-11 0 -19.5 -8t-8.5 -20q0 -11 8.5 -19t19.5 -8q12 0 20 8t8 19q0 12 -8 20z" glyph-name="uni1EC6" horiz-adv-x="319" unicode="Ệ"/><glyph d="M189 835l68 -98h-27l-64 72l-65 -72h-27l68 98h47zM291 700l-17 -37h-197v-286h151l-17 -37h-134v-303h214l-17 -37h-234v700h251zM186 -48q-8 8 -20 8q-11 0 -19.5 -8t-8.5 -20q0 -11 8.5 -19t19.5 -8q12 0 20 8t8 19q0 12 -8 20z" glyph-name="uni1EC7" horiz-adv-x="319" unicode="ệ"/><glyph d="M-16 835q40 0 68 -28.5t28 -69.5h-33q0 25 -18.5 43t-44.5 18l-32 32q17 5 32 5zM82 700h-37v-700h37v700z" glyph-name="uni1EC8" horiz-adv-x="127" unicode="Ỉ"/><glyph d="M-16 835q40 0 68 -28.5t28 -69.5h-33q0 25 -18.5 43t-44.5 18l-32 32q17 5 32 5zM82 700h-37v-700h37v700z" glyph-name="uni1EC9" horiz-adv-x="127" unicode="ỉ"/><glyph d="M82 700h-37v-700h37v700zM84 -48q-8 8 -20 8q-11 0 -19.5 -8t-8.5 -20q0 -11 8.5 -19t19.5 -8q12 0 20 8t8 19q0 12 -8 20z" glyph-name="uni1ECA" horiz-adv-x="128" unicode="Ị"/><glyph d="M82 700h-37v-700h37v700zM84 -48q-8 8 -20 8q-11 0 -19.5 -8t-8.5 -20q0 -11 8.5 -19t19.5 -8q12 0 20 8t8 19q0 12 -8 20z" glyph-name="uni1ECB" horiz-adv-x="128" unicode="ị"/><glyph d="M278 26q43 40 43 115v418q0 75 -43 115q-37 35 -101 35q-63 0 -100 -35q-43 -39 -43 -115v-418q0 -76 43 -115q37 -35 100 -35q64 0 101 35zM253 647q31 -29 31 -88v-418q0 -59 -31 -88q-26 -25 -76 -25q-49 0 -75 25q-31 28 -31 88v418q0 60 31 88q28 25 75 25 q48 0 76 -25zM197 -48q-8 8 -20 8q-11 0 -19.5 -8t-8.5 -20q0 -11 8.5 -19t19.5 -8q12 0 20 8t8 19q0 12 -8 20z" glyph-name="uni1ECC" unicode="Ọ"/><glyph d="M278 26q43 40 43 115v418q0 75 -43 115q-37 35 -101 35q-63 0 -100 -35q-43 -39 -43 -115v-418q0 -76 43 -115q37 -35 100 -35q64 0 101 35zM253 647q31 -29 31 -88v-418q0 -59 -31 -88q-26 -25 -76 -25q-49 0 -75 25q-31 28 -31 88v418q0 60 31 88q28 25 75 25 q48 0 76 -25zM197 -48q-8 8 -20 8q-11 0 -19.5 -8t-8.5 -20q0 -11 8.5 -19t19.5 -8q12 0 20 8t8 19q0 12 -8 20z" glyph-name="uni1ECD" unicode="ọ"/><glyph d="M92 835q40 0 68 -28.5t28 -69.5h-33q0 25 -18.5 43t-44.5 18l-32 32q17 5 32 5zM278 26q43 40 43 115v418q0 75 -43 115q-37 35 -101 35q-63 0 -100 -35q-43 -39 -43 -115v-418q0 -76 43 -115q37 -35 100 -35q64 0 101 35zM253 647q31 -29 31 -88v-418q0 -59 -31 -88 q-26 -25 -76 -25q-49 0 -75 25q-31 28 -31 88v418q0 60 31 88q28 25 75 25q48 0 76 -25z" glyph-name="uni1ECE" unicode="Ỏ"/><glyph d="M92 835q40 0 68 -28.5t28 -69.5h-33q0 25 -18.5 43t-44.5 18l-32 32q17 5 32 5zM278 26q43 40 43 115v418q0 75 -43 115q-37 35 -101 35q-63 0 -100 -35q-43 -39 -43 -115v-418q0 -76 43 -115q37 -35 100 -35q64 0 101 35zM253 647q31 -29 31 -88v-418q0 -59 -31 -88 q-26 -25 -76 -25q-49 0 -75 25q-31 28 -31 88v418q0 60 31 88q28 25 75 25q48 0 76 -25z" glyph-name="uni1ECF" unicode="ỏ"/><glyph d="M361 935l-88 -98h-27l68 98h47zM200 835l68 -98h-27l-64 72l-65 -72h-27l68 98h47zM278 26q43 40 43 115v418q0 75 -43 115q-37 35 -101 35q-63 0 -100 -35q-43 -39 -43 -115v-418q0 -76 43 -115q37 -35 100 -35q64 0 101 35zM253 647q31 -29 31 -88v-418q0 -59 -31 -88 q-26 -25 -76 -25q-49 0 -75 25q-31 28 -31 88v418q0 60 31 88q28 25 75 25q48 0 76 -25z" glyph-name="uni1ED0" unicode="Ố"/><glyph d="M361 935l-88 -98h-27l68 98h47zM200 835l68 -98h-27l-64 72l-65 -72h-27l68 98h47zM278 26q43 40 43 115v418q0 75 -43 115q-37 35 -101 35q-63 0 -100 -35q-43 -39 -43 -115v-418q0 -76 43 -115q37 -35 100 -35q64 0 101 35zM253 647q31 -29 31 -88v-418q0 -59 -31 -88 q-26 -25 -76 -25q-49 0 -75 25q-31 28 -31 88v418q0 60 31 88q28 25 75 25q48 0 76 -25z" glyph-name="uni1ED1" unicode="ố"/><glyph d="M273 837h-27l-88 98h47zM200 835l68 -98h-27l-64 72l-65 -72h-27l68 98h47zM278 26q43 40 43 115v418q0 75 -43 115q-37 35 -101 35q-63 0 -100 -35q-43 -39 -43 -115v-418q0 -76 43 -115q37 -35 100 -35q64 0 101 35zM253 647q31 -29 31 -88v-418q0 -59 -31 -88 q-26 -25 -76 -25q-49 0 -75 25q-31 28 -31 88v418q0 60 31 88q28 25 75 25q48 0 76 -25z" glyph-name="uni1ED2" unicode="Ồ"/><glyph d="M273 837h-27l-88 98h47zM200 835l68 -98h-27l-64 72l-65 -72h-27l68 98h47zM278 26q43 40 43 115v418q0 75 -43 115q-37 35 -101 35q-63 0 -100 -35q-43 -39 -43 -115v-418q0 -76 43 -115q37 -35 100 -35q64 0 101 35zM253 647q31 -29 31 -88v-418q0 -59 -31 -88 q-26 -25 -76 -25q-49 0 -75 25q-31 28 -31 88v418q0 60 31 88q28 25 75 25q48 0 76 -25z" glyph-name="uni1ED3" unicode="ồ"/><glyph d="M97 961q40 0 68 -28.5t28 -69.5h-33q0 25 -18.5 43t-44.5 18l-32 32q17 5 32 5zM200 835l68 -98h-27l-64 72l-65 -72h-27l68 98h47zM278 26q43 40 43 115v418q0 75 -43 115q-37 35 -101 35q-63 0 -100 -35q-43 -39 -43 -115v-418q0 -76 43 -115q37 -35 100 -35 q64 0 101 35zM253 647q31 -29 31 -88v-418q0 -59 -31 -88q-26 -25 -76 -25q-49 0 -75 25q-31 28 -31 88v418q0 60 31 88q28 25 75 25q48 0 76 -25z" glyph-name="uni1ED4" unicode="Ổ"/><glyph d="M97 961q40 0 68 -28.5t28 -69.5h-33q0 25 -18.5 43t-44.5 18l-32 32q17 5 32 5zM200 835l68 -98h-27l-64 72l-65 -72h-27l68 98h47zM278 26q43 40 43 115v418q0 75 -43 115q-37 35 -101 35q-63 0 -100 -35q-43 -39 -43 -115v-418q0 -76 43 -115q37 -35 100 -35 q64 0 101 35zM253 647q31 -29 31 -88v-418q0 -59 -31 -88q-26 -25 -76 -25q-49 0 -75 25q-31 28 -31 88v418q0 60 31 88q28 25 75 25q48 0 76 -25z" glyph-name="uni1ED5" unicode="ổ"/><glyph d="M127 895q17 0 40 -14q29 -18 55 -18q41 0 78 46l-29 24q-24 -32 -50 -32q-17 0 -35 11q-34 20 -59 20q-40 0 -79 -47l29 -23q27 33 50 33zM200 835l68 -98h-27l-64 72l-65 -72h-27l68 98h47zM278 26q43 40 43 115v418q0 75 -43 115q-37 35 -101 35q-63 0 -100 -35 q-43 -39 -43 -115v-418q0 -76 43 -115q37 -35 100 -35q64 0 101 35zM253 647q31 -29 31 -88v-418q0 -59 -31 -88q-26 -25 -76 -25q-49 0 -75 25q-31 28 -31 88v418q0 60 31 88q28 25 75 25q48 0 76 -25z" glyph-name="uni1ED6" unicode="Ỗ"/><glyph d="M127 895q17 0 40 -14q29 -18 55 -18q41 0 78 46l-29 24q-24 -32 -50 -32q-17 0 -35 11q-34 20 -59 20q-40 0 -79 -47l29 -23q27 33 50 33zM200 835l68 -98h-27l-64 72l-65 -72h-27l68 98h47zM278 26q43 40 43 115v418q0 75 -43 115q-37 35 -101 35q-63 0 -100 -35 q-43 -39 -43 -115v-418q0 -76 43 -115q37 -35 100 -35q64 0 101 35zM253 647q31 -29 31 -88v-418q0 -59 -31 -88q-26 -25 -76 -25q-49 0 -75 25q-31 28 -31 88v418q0 60 31 88q28 25 75 25q48 0 76 -25z" glyph-name="uni1ED7" unicode="ỗ"/><glyph d="M200 835l68 -98h-27l-64 72l-65 -72h-27l68 98h47zM278 26q43 40 43 115v418q0 75 -43 115q-37 35 -101 35q-63 0 -100 -35q-43 -39 -43 -115v-418q0 -76 43 -115q37 -35 100 -35q64 0 101 35zM253 647q31 -29 31 -88v-418q0 -59 -31 -88q-26 -25 -76 -25q-49 0 -75 25 q-31 28 -31 88v418q0 60 31 88q28 25 75 25q48 0 76 -25zM197 -48q-8 8 -20 8q-11 0 -19.5 -8t-8.5 -20q0 -11 8.5 -19t19.5 -8q12 0 20 8t8 19q0 12 -8 20z" glyph-name="uni1ED8" unicode="Ộ"/><glyph d="M200 835l68 -98h-27l-64 72l-65 -72h-27l68 98h47zM278 26q43 40 43 115v418q0 75 -43 115q-37 35 -101 35q-63 0 -100 -35q-43 -39 -43 -115v-418q0 -76 43 -115q37 -35 100 -35q64 0 101 35zM253 647q31 -29 31 -88v-418q0 -59 -31 -88q-26 -25 -76 -25q-49 0 -75 25 q-31 28 -31 88v418q0 60 31 88q28 25 75 25q48 0 76 -25zM197 -48q-8 8 -20 8q-11 0 -19.5 -8t-8.5 -20q0 -11 8.5 -19t19.5 -8q12 0 20 8t8 19q0 12 -8 20z" glyph-name="uni1ED9" unicode="ộ"/><glyph d="M278 835l-88 -98h-27l68 98h47zM381 732q0 -25 -17.5 -42.5t-42.5 -17.5h-41q41 -39 41 -113v-418q0 -75 -43 -115q-37 -35 -101 -35q-63 0 -100 35q-43 39 -43 115v418q0 76 43 115q37 35 100 35h144q10 0 16.5 7t6.5 16h37zM253 647q-28 25 -76 25q-47 0 -75 -25 q-31 -28 -31 -88v-418q0 -60 31 -88q26 -25 75 -25q50 0 76 25q31 29 31 88v418q0 59 -31 88z" glyph-name="uni1EDA" horiz-adv-x="361" unicode="Ớ"/><glyph d="M278 835l-88 -98h-27l68 98h47zM381 732q0 -25 -17.5 -42.5t-42.5 -17.5h-41q41 -39 41 -113v-418q0 -75 -43 -115q-37 -35 -101 -35q-63 0 -100 35q-43 39 -43 115v418q0 76 43 115q37 35 100 35h144q10 0 16.5 7t6.5 16h37zM253 647q-28 25 -76 25q-47 0 -75 -25 q-31 -28 -31 -88v-418q0 -60 31 -88q26 -25 75 -25q50 0 76 25q31 29 31 88v418q0 59 -31 88z" glyph-name="uni1EDB" horiz-adv-x="361" unicode="ớ"/><glyph d="M190 737h-27l-88 98h47zM381 732q0 -25 -17.5 -42.5t-42.5 -17.5h-41q41 -39 41 -113v-418q0 -75 -43 -115q-37 -35 -101 -35q-63 0 -100 35q-43 39 -43 115v418q0 76 43 115q37 35 100 35h144q10 0 16.5 7t6.5 16h37zM253 647q-28 25 -76 25q-47 0 -75 -25 q-31 -28 -31 -88v-418q0 -60 31 -88q26 -25 75 -25q50 0 76 25q31 29 31 88v418q0 59 -31 88z" glyph-name="uni1EDC" horiz-adv-x="361" unicode="Ờ"/><glyph d="M190 737h-27l-88 98h47zM381 732q0 -25 -17.5 -42.5t-42.5 -17.5h-41q41 -39 41 -113v-418q0 -75 -43 -115q-37 -35 -101 -35q-63 0 -100 35q-43 39 -43 115v418q0 76 43 115q37 35 100 35h144q10 0 16.5 7t6.5 16h37zM253 647q-28 25 -76 25q-47 0 -75 -25 q-31 -28 -31 -88v-418q0 -60 31 -88q26 -25 75 -25q50 0 76 25q31 29 31 88v418q0 59 -31 88z" glyph-name="uni1EDD" horiz-adv-x="361" unicode="ờ"/><glyph d="M135.5 780q-18.5 18 -44.5 18l-32 32q17 5 32 5q40 0 68 -28.5t28 -69.5h-33q0 25 -18.5 43zM381 732q0 -25 -17.5 -42.5t-42.5 -17.5h-41q41 -39 41 -113v-418q0 -75 -43 -115q-37 -35 -101 -35q-63 0 -100 35q-43 39 -43 115v418q0 76 43 115q37 35 100 35h144 q10 0 16.5 7t6.5 16h37zM253 647q-28 25 -76 25q-47 0 -75 -25q-31 -28 -31 -88v-418q0 -60 31 -88q26 -25 75 -25q50 0 76 25q31 29 31 88v418q0 59 -31 88z" glyph-name="uni1EDE" horiz-adv-x="361" unicode="Ở"/><glyph d="M135.5 780q-18.5 18 -44.5 18l-32 32q17 5 32 5q40 0 68 -28.5t28 -69.5h-33q0 25 -18.5 43zM381 732q0 -25 -17.5 -42.5t-42.5 -17.5h-41q41 -39 41 -113v-418q0 -75 -43 -115q-37 -35 -101 -35q-63 0 -100 35q-43 39 -43 115v418q0 76 43 115q37 35 100 35h144 q10 0 16.5 7t6.5 16h37zM253 647q-28 25 -76 25q-47 0 -75 -25q-31 -28 -31 -88v-418q0 -60 31 -88q26 -25 75 -25q50 0 76 25q31 29 31 88v418q0 59 -31 88z" glyph-name="uni1EDF" horiz-adv-x="361" unicode="ở"/><glyph d="M131 769q-23 0 -50 -33l-29 23q39 47 79 47q25 0 59 -20q18 -11 35 -11q26 0 50 32l29 -24q-37 -46 -78 -46q-26 0 -55 18q-23 14 -40 14zM381 732q0 -25 -17.5 -42.5t-42.5 -17.5h-41q41 -39 41 -113v-418q0 -75 -43 -115q-37 -35 -101 -35q-63 0 -100 35 q-43 39 -43 115v418q0 76 43 115q37 35 100 35h144q10 0 16.5 7t6.5 16h37zM253 647q-28 25 -76 25q-47 0 -75 -25q-31 -28 -31 -88v-418q0 -60 31 -88q26 -25 75 -25q50 0 76 25q31 29 31 88v418q0 59 -31 88z" glyph-name="uni1EE0" horiz-adv-x="361" unicode="Ỡ"/><glyph d="M131 769q-23 0 -50 -33l-29 23q39 47 79 47q25 0 59 -20q18 -11 35 -11q26 0 50 32l29 -24q-37 -46 -78 -46q-26 0 -55 18q-23 14 -40 14zM381 732q0 -25 -17.5 -42.5t-42.5 -17.5h-41q41 -39 41 -113v-418q0 -75 -43 -115q-37 -35 -101 -35q-63 0 -100 35 q-43 39 -43 115v418q0 76 43 115q37 35 100 35h144q10 0 16.5 7t6.5 16h37zM253 647q-28 25 -76 25q-47 0 -75 -25q-31 -28 -31 -88v-418q0 -60 31 -88q26 -25 75 -25q50 0 76 25q31 29 31 88v418q0 59 -31 88z" glyph-name="uni1EE1" horiz-adv-x="361" unicode="ỡ"/><glyph d="M381 732q0 -25 -17.5 -42.5t-42.5 -17.5h-41q41 -39 41 -113v-418q0 -75 -43 -115q-37 -35 -101 -35q-63 0 -100 35q-43 39 -43 115v418q0 76 43 115q37 35 100 35h144q10 0 16.5 7t6.5 16h37zM253 647q-28 25 -76 25q-47 0 -75 -25q-31 -28 -31 -88v-418q0 -60 31 -88 q26 -25 75 -25q50 0 76 25q31 29 31 88v418q0 59 -31 88zM197 -48q8 -8 8 -20q0 -11 -8 -19t-20 -8q-11 0 -19.5 8t-8.5 19q0 12 8.5 20t19.5 8q12 0 20 -8z" glyph-name="uni1EE2" horiz-adv-x="361" unicode="Ợ"/><glyph d="M381 732q0 -25 -17.5 -42.5t-42.5 -17.5h-41q41 -39 41 -113v-418q0 -75 -43 -115q-37 -35 -101 -35q-63 0 -100 35q-43 39 -43 115v418q0 76 43 115q37 35 100 35h144q10 0 16.5 7t6.5 16h37zM253 647q-28 25 -76 25q-47 0 -75 -25q-31 -28 -31 -88v-418q0 -60 31 -88 q26 -25 75 -25q50 0 76 25q31 29 31 88v418q0 59 -31 88zM197 -48q8 -8 8 -20q0 -11 -8 -19t-20 -8q-11 0 -19.5 8t-8.5 19q0 12 8.5 20t19.5 8q12 0 20 -8z" glyph-name="uni1EE3" horiz-adv-x="361" unicode="ợ"/><glyph d="M277 26q42 39 42 115v559h-37v-559q0 -59 -30 -88q-28 -25 -76 -25q-50 0 -76 25q-30 29 -30 88v559h-37v-559q0 -76 42 -115q38 -35 101 -35t101 35zM196 -48q-8 8 -20 8q-11 0 -19.5 -8t-8.5 -20q0 -11 8.5 -19t19.5 -8q12 0 20 8t8 19q0 12 -8 20z" glyph-name="uni1EE4" horiz-adv-x="352" unicode="Ụ"/><glyph d="M277 26q42 39 42 115v559h-37v-559q0 -59 -30 -88q-28 -25 -76 -25q-50 0 -76 25q-30 29 -30 88v559h-37v-559q0 -76 42 -115q38 -35 101 -35t101 35zM196 -48q-8 8 -20 8q-11 0 -19.5 -8t-8.5 -20q0 -11 8.5 -19t19.5 -8q12 0 20 8t8 19q0 12 -8 20z" glyph-name="uni1EE5" horiz-adv-x="352" unicode="ụ"/><glyph d="M91 835q40 0 68 -28.5t28 -69.5h-33q0 25 -18.5 43t-44.5 18l-32 32q17 5 32 5zM277 26q42 39 42 115v559h-37v-559q0 -59 -30 -88q-28 -25 -76 -25q-50 0 -76 25q-30 29 -30 88v559h-37v-559q0 -76 42 -115q38 -35 101 -35t101 35z" glyph-name="uni1EE6" horiz-adv-x="352" unicode="Ủ"/><glyph d="M91 835q40 0 68 -28.5t28 -69.5h-33q0 25 -18.5 43t-44.5 18l-32 32q17 5 32 5zM277 26q42 39 42 115v559h-37v-559q0 -59 -30 -88q-28 -25 -76 -25q-50 0 -76 25q-30 29 -30 88v559h-37v-559q0 -76 42 -115q38 -35 101 -35t101 35z" glyph-name="uni1EE7" horiz-adv-x="352" unicode="ủ"/><glyph d="M277 835l-88 -98h-27l68 98h47zM403.5 680.5q-17.5 -17.5 -42.5 -17.5h-42v-522q0 -76 -42 -115q-38 -35 -101 -35t-101 35q-42 39 -42 115v559h37v-559q0 -59 30 -88q26 -25 76 -25q48 0 76 25q30 29 30 88v559h79q10 0 16.5 7t6.5 16h37q0 -25 -17.5 -42.5z" glyph-name="uni1EE8" horiz-adv-x="401" unicode="Ứ"/><glyph d="M277 835l-88 -98h-27l68 98h47zM403.5 680.5q-17.5 -17.5 -42.5 -17.5h-42v-522q0 -76 -42 -115q-38 -35 -101 -35t-101 35q-42 39 -42 115v559h37v-559q0 -59 30 -88q26 -25 76 -25q48 0 76 25q30 29 30 88v559h79q10 0 16.5 7t6.5 16h37q0 -25 -17.5 -42.5z" glyph-name="uni1EE9" horiz-adv-x="401" unicode="ứ"/><glyph d="M189 737h-27l-88 98h47zM403.5 680.5q-17.5 -17.5 -42.5 -17.5h-42v-522q0 -76 -42 -115q-38 -35 -101 -35t-101 35q-42 39 -42 115v559h37v-559q0 -59 30 -88q26 -25 76 -25q48 0 76 25q30 29 30 88v559h79q10 0 16.5 7t6.5 16h37q0 -25 -17.5 -42.5z" glyph-name="uni1EEA" horiz-adv-x="401" unicode="Ừ"/><glyph d="M189 737h-27l-88 98h47zM403.5 680.5q-17.5 -17.5 -42.5 -17.5h-42v-522q0 -76 -42 -115q-38 -35 -101 -35t-101 35q-42 39 -42 115v559h37v-559q0 -59 30 -88q26 -25 76 -25q48 0 76 25q30 29 30 88v559h79q10 0 16.5 7t6.5 16h37q0 -25 -17.5 -42.5z" glyph-name="uni1EEB" horiz-adv-x="401" unicode="ừ"/><glyph d="M90 835q40 0 68 -28.5t28 -69.5h-33q0 25 -18.5 43t-44.5 18l-32 32q17 5 32 5zM403.5 680.5q-17.5 -17.5 -42.5 -17.5h-42v-522q0 -76 -42 -115q-38 -35 -101 -35t-101 35q-42 39 -42 115v559h37v-559q0 -59 30 -88q26 -25 76 -25q48 0 76 25q30 29 30 88v559h79 q10 0 16.5 7t6.5 16h37q0 -25 -17.5 -42.5z" glyph-name="uni1EEC" horiz-adv-x="401" unicode="Ử"/><glyph d="M90 835q40 0 68 -28.5t28 -69.5h-33q0 25 -18.5 43t-44.5 18l-32 32q17 5 32 5zM403.5 680.5q-17.5 -17.5 -42.5 -17.5h-42v-522q0 -76 -42 -115q-38 -35 -101 -35t-101 35q-42 39 -42 115v559h37v-559q0 -59 30 -88q26 -25 76 -25q48 0 76 25q30 29 30 88v559h79 q10 0 16.5 7t6.5 16h37q0 -25 -17.5 -42.5z" glyph-name="uni1EED" horiz-adv-x="401" unicode="ử"/><glyph d="M130 769q17 0 40 -14q28 -18 55 -18q41 0 78 46l-29 24q-24 -32 -50 -32q-17 0 -35 11q-34 20 -59 20q-40 0 -79 -47l29 -23q27 33 50 33zM403.5 680.5q-17.5 -17.5 -42.5 -17.5h-42v-522q0 -76 -42 -115q-38 -35 -101 -35t-101 35q-42 39 -42 115v559h37v-559 q0 -59 30 -88q26 -25 76 -25q48 0 76 25q30 29 30 88v559h79q10 0 16.5 7t6.5 16h37q0 -25 -17.5 -42.5z" glyph-name="uni1EEE" horiz-adv-x="401" unicode="Ữ"/><glyph d="M130 769q17 0 40 -14q28 -18 55 -18q41 0 78 46l-29 24q-24 -32 -50 -32q-17 0 -35 11q-34 20 -59 20q-40 0 -79 -47l29 -23q27 33 50 33zM403.5 680.5q-17.5 -17.5 -42.5 -17.5h-42v-522q0 -76 -42 -115q-38 -35 -101 -35t-101 35q-42 39 -42 115v559h37v-559 q0 -59 30 -88q26 -25 76 -25q48 0 76 25q30 29 30 88v559h79q10 0 16.5 7t6.5 16h37q0 -25 -17.5 -42.5z" glyph-name="uni1EEF" horiz-adv-x="401" unicode="ữ"/><glyph d="M403.5 680.5q-17.5 -17.5 -42.5 -17.5h-42v-522q0 -76 -42 -115q-38 -35 -101 -35t-101 35q-42 39 -42 115v559h37v-559q0 -59 30 -88q26 -25 76 -25q48 0 76 25q30 29 30 88v559h79q10 0 16.5 7t6.5 16h37q0 -25 -17.5 -42.5zM196 -48q-8 8 -20 8q-11 0 -19.5 -8 t-8.5 -20q0 -11 8.5 -19t19.5 -8q12 0 20 8t8 19q0 12 -8 20z" glyph-name="uni1EF0" horiz-adv-x="401" unicode="Ự"/><glyph d="M403.5 680.5q-17.5 -17.5 -42.5 -17.5h-42v-522q0 -76 -42 -115q-38 -35 -101 -35t-101 35q-42 39 -42 115v559h37v-559q0 -59 30 -88q26 -25 76 -25q48 0 76 25q30 29 30 88v559h79q10 0 16.5 7t6.5 16h37q0 -25 -17.5 -42.5zM196 -48q-8 8 -20 8q-11 0 -19.5 -8 t-8.5 -20q0 -11 8.5 -19t19.5 -8q12 0 20 8t8 19q0 12 -8 20z" glyph-name="uni1EF1" horiz-adv-x="401" unicode="ự"/><glyph d="M192 737h-27l-88 98h47zM308 700h39l-150 -461v-239h-37v239l-150 461h39l129 -398z" glyph-name="Ygrave" horiz-adv-x="356" unicode="Ỳ"/><glyph d="M192 737h-27l-88 98h47zM308 700h39l-150 -461v-239h-37v239l-150 461h39l129 -398z" glyph-name="ygrave" horiz-adv-x="356" unicode="ỳ"/><glyph d="M308 700h39l-150 -461v-239h-37v239l-150 461h39l129 -398zM199 -48q-8 8 -20 8q-11 0 -19.5 -8t-8.5 -20q0 -11 8.5 -19t19.5 -8q12 0 20 8t8 19q0 12 -8 20z" glyph-name="uni1EF4" horiz-adv-x="356" unicode="Ỵ"/><glyph d="M308 700h39l-150 -461v-239h-37v239l-150 461h39l129 -398zM199 -48q-8 8 -20 8q-11 0 -19.5 -8t-8.5 -20q0 -11 8.5 -19t19.5 -8q12 0 20 8t8 19q0 12 -8 20z" glyph-name="uni1EF5" horiz-adv-x="356" unicode="ỵ"/><glyph d="M99 835q40 0 68 -28.5t28 -69.5h-33q0 25 -18.5 43t-44.5 18l-32 32q17 5 32 5zM308 700h39l-150 -461v-239h-37v239l-150 461h39l129 -398z" glyph-name="uni1EF6" horiz-adv-x="356" unicode="Ỷ"/><glyph d="M99 835q40 0 68 -28.5t28 -69.5h-33q0 25 -18.5 43t-44.5 18l-32 32q17 5 32 5zM308 700h39l-150 -461v-239h-37v239l-150 461h39l129 -398z" glyph-name="uni1EF7" horiz-adv-x="356" unicode="ỷ"/><glyph d="M146 769q17 0 40 -14q28 -18 55 -18q41 0 78 46l-29 24q-24 -32 -50 -32q-17 0 -35 11q-34 20 -59 20q-40 0 -79 -47l29 -23q27 33 50 33zM308 700h39l-150 -461v-239h-37v239l-150 461h39l129 -398z" glyph-name="uni1EF8" horiz-adv-x="356" unicode="Ỹ"/><glyph d="M146 769q17 0 40 -14q28 -18 55 -18q41 0 78 46l-29 24q-24 -32 -50 -32q-17 0 -35 11q-34 20 -59 20q-40 0 -79 -47l29 -23q27 33 50 33zM308 700h39l-150 -461v-239h-37v239l-150 461h39l129 -398z" glyph-name="uni1EF9" horiz-adv-x="356" unicode="ỹ"/><glyph d="M261 377h-251v-37h251v37z" glyph-name="figuredash" horiz-adv-x="271" unicode="‒"/><glyph d="M336 377h-326v-37h326v37z" glyph-name="endash" horiz-adv-x="346" unicode="–"/><glyph d="M336 377h-326v-37h326v37z" glyph-name="emdash" horiz-adv-x="346" unicode="—"/><glyph d="M43.5 610.5q-8.5 8.5 -8.5 19.5q0 12 8 26q8 15 28 44h16l-11 -29l-2 -8q0 -5 4 -9q13 -10 13 -24q0 -12 -8.5 -20t-19.5 -8t-19.5 8.5z" glyph-name="quoteleft" horiz-adv-x="126" unicode="‘"/><glyph d="M82.5 694.5q8.5 -8.5 8.5 -19.5q0 -12 -8 -26q-8 -15 -28 -44h-16l11 29l2 8q0 5 -4 9q-13 10 -13 24q0 12 8.5 20t19.5 8t19.5 -8.5z" glyph-name="quoteright" horiz-adv-x="126" unicode="’"/><glyph d="M82.5 45.5q8.5 -8.5 8.5 -19.5q0 -12 -8 -26q-8 -15 -28 -44h-16l11 29l2 8q0 5 -4 9q-13 10 -13 24q0 12 8.5 20t19.5 8t19.5 -8.5z" glyph-name="quotesinglbase" horiz-adv-x="126" unicode="‚"/><glyph d="M43.5 610.5q-8.5 8.5 -8.5 19.5q0 12 8 26q8 15 28 44h16l-11 -29l-2 -8q0 -5 4 -9q13 -10 13 -24q0 -12 -8.5 -20t-19.5 -8t-19.5 8.5zM127.5 610.5q-8.5 8.5 -8.5 19.5q0 12 8 26q8 15 28 44h16l-11 -29l-2 -8q0 -5 4 -9q13 -10 13 -24q0 -12 -8.5 -20t-19.5 -8 t-19.5 8.5z" glyph-name="quotedblleft" horiz-adv-x="210" unicode="“"/><glyph d="M82.5 694.5q8.5 -8.5 8.5 -19.5q0 -12 -8 -26q-8 -15 -28 -44h-16l11 29l2 8q0 5 -4 9q-13 10 -13 24q0 12 8.5 20t19.5 8t19.5 -8.5zM166.5 694.5q8.5 -8.5 8.5 -19.5q0 -12 -8 -26q-8 -15 -28 -44h-16l11 29l2 8q0 5 -4 9q-13 10 -13 24q0 12 8.5 20t19.5 8t19.5 -8.5z" glyph-name="quotedblright" horiz-adv-x="210" unicode="”"/><glyph d="M82.5 45.5q8.5 -8.5 8.5 -19.5q0 -12 -8 -26q-8 -15 -28 -44h-16l11 29l2 8q0 5 -4 9q-13 10 -13 24q0 12 8.5 20t19.5 8t19.5 -8.5zM166.5 45.5q8.5 -8.5 8.5 -19.5q0 -12 -8 -26q-8 -15 -28 -44h-16l11 29l2 8q0 5 -4 9q-13 10 -13 24q0 12 8.5 20t19.5 8t19.5 -8.5z" glyph-name="quotedblbase" horiz-adv-x="216" unicode="„"/><glyph d="M394 539v-37h-161v-261h-37v261h-161v37h161v161h37v-161h161z" glyph-name="dagger" horiz-adv-x="429" unicode="†"/><glyph d="M63 393q-13 -13 -13 -32t13 -32t32 -13t32 13t13 32t-13 32t-32 13t-32 -13z" glyph-name="bullet" horiz-adv-x="190" unicode="•"/><glyph d="M82.5 46.5q-8.5 8.5 -19.5 8.5t-19.5 -8.5t-8.5 -19.5t8.5 -19.5t19.5 -8.5t19.5 8.5t8.5 19.5t-8.5 19.5zM182.5 46.5q-8.5 8.5 -19.5 8.5t-19.5 -8.5t-8.5 -19.5t8.5 -19.5t19.5 -8.5t19.5 8.5t8.5 19.5t-8.5 19.5zM282.5 46.5q-8.5 8.5 -19.5 8.5t-19.5 -8.5 t-8.5 -19.5t8.5 -19.5t19.5 -8.5t19.5 8.5t8.5 19.5t-8.5 19.5z" glyph-name="ellipsis" horiz-adv-x="326" unicode="…"/><glyph d="M400 700l-216 -700h-39l216 700h39zM184.5 517.5q25.5 29.5 25.5 70.5v10q0 41 -25.5 70.5t-62.5 29.5t-62.5 -29.5t-25.5 -70.5v-10q0 -41 25.5 -70.5t62.5 -29.5t62.5 29.5zM158 642.5q15 -18.5 15 -44.5v-10q0 -26 -15 -44.5t-36 -18.5t-36 18.5t-15 44.5v10 q0 26 15 44.5t36 18.5t36 -18.5zM486.5 32.5q25.5 29.5 25.5 70.5v10q0 41 -25.5 70.5t-62.5 29.5t-63 -29.5t-26 -70.5v-10q0 -41 26 -70.5t63 -29.5t62.5 29.5zM693.5 32.5q25.5 29.5 25.5 70.5v10q0 41 -25.5 70.5t-62.5 29.5t-63 -29.5t-26 -70.5v-10q0 -41 26 -70.5 t63 -29.5t62.5 29.5zM460 157.5q15 -18.5 15 -44.5v-10q0 -26 -15 -44.5t-36 -18.5t-36.5 19t-15.5 44v10q0 26 15.5 44.5t36.5 18.5t36 -18.5zM667 157.5q15 -18.5 15 -44.5v-10q0 -26 -15 -44.5t-36 -18.5t-36.5 19t-15.5 44v10q0 26 15.5 44.5t36.5 18.5t36 -18.5z" glyph-name="perthousand" horiz-adv-x="753" unicode="‰"/><glyph d="M198 92h-42l-140 267l140 267h42l-140 -267z" glyph-name="guilsinglleft" horiz-adv-x="214" unicode="‹"/><glyph d="M16 626h42l140 -267l-141 -267h-41l140 267z" glyph-name="guilsinglright" horiz-adv-x="214" unicode="›"/><glyph d="M320 -10q-85 0 -137 64q-58 71 -58 206h-97v37h97v115h-97v37h97q2 132 58 200q52 64 137 64q37 0 64 -11l-13 -35q-23 9 -51 9q-66 0 -109 -51q-23 -29 -35 -71q-14 -47 -14 -105h193v-37h-193v-115h193v-37h-193q0 -67 14 -110q12 -43 35 -72q41 -51 109 -51 q32 0 59 12l15 -34q-33 -15 -74 -15z" glyph-name="Euro" horiz-adv-x="419" unicode="€"/><glyph d="M169 313h-72l215 -313h-45l-241 350h143q50 0 76 25q30 29 30 88v10h-249v37h249v40q0 60 -30 88q-28 25 -76 25h-143v37h351v-37h-105q40 -39 40 -113v-40h66v-37h-66v-10q0 -76 -42 -115q-38 -35 -101 -35z" glyph-name="uni20B9" horiz-adv-x="398" unicode="₹"/><glyph d="M65.5 534q45.5 82 125 128t177.5 46t177.5 -46t125 -128t45.5 -184t-45.5 -184t-125 -128t-177.5 -46t-177.5 46t-125 128t-45.5 184t45.5 184zM102 186q40 -73 109.5 -114t156.5 -41t156.5 41t109.5 114t40 164t-40 164t-109.5 114t-156.5 41t-156.5 -41t-109.5 -114 t-40 -164t40 -164zM390 303q50 0 85.5 18t53.5 46.5t18 60.5q0 33 -18 61.5t-53.5 46t-85.5 17.5h-143v-404h37v154h106zM390 516q57 0 89.5 -26t32.5 -62t-32.5 -62t-89.5 -26h-106v176h106z" glyph-name="uni2117" horiz-adv-x="736" unicode="℗"/><glyph d="M30 700h139v-33h-53v-298h-33v298h-53v33zM405 700h21v-331h-33v205l-64 -172h-13l-64 172v-205h-33v331h21l82 -221z" glyph-name="trademark" horiz-adv-x="446" unicode="™"/><glyph d="M361 377h-326v-37h326v37z" glyph-name="minus" horiz-adv-x="396" unicode="−"/><glyph d="M285 346q-24 -21 -58 -30l100 -316h-39l-98 311h-6h-107v-353q0 -10 7 -16.5t16 -6.5v-37q-25 0 -42.5 17.5t-17.5 42.5v742h144q63 0 101 -35q42 -39 42 -115v-89q0 -76 -42 -115zM290 461v89q0 60 -31 88q-27 25 -75 25h-107v-315h107q48 0 75 25q31 28 31 88z" glyph-name="uni2C64" unicode="Ɽ"/><glyph d="M565.5 682.5q17.5 -17.5 17.5 -43.5h-37q0 10 -7 17t-17 7h-41l-82 -663h-20l-126 491l-126 -491h-20l-86 700h38l68 -566l116 455h20l116 -454l68 565h75q26 0 43.5 -17.5z" glyph-name="uni2C72" horiz-adv-x="563" unicode="Ⱳ"/><glyph d="M565.5 682.5q17.5 -17.5 17.5 -43.5h-37q0 10 -7 17t-17 7h-41l-82 -663h-20l-126 491l-126 -491h-20l-86 700h38l68 -566l116 455h20l116 -454l68 565h75q26 0 43.5 -17.5z" glyph-name="uni2C73" horiz-adv-x="563" unicode="ⱳ"/><glyph d="M369 0h-37v340h-213v-340h-37v663h-42q-10 0 -16.5 -7t-6.5 -16h-37q0 25 17.5 42.5t42.5 17.5h79v-323h213v323h37v-700z" glyph-name="uniA7AA" horiz-adv-x="414" unicode="Ɦ"/><glyph glyph-name="NULL" horiz-adv-x="600"/><glyph d="M84 784q-8 8 -20 8q-11 0 -19.5 -8t-8.5 -20q0 -11 8.5 -19t19.5 -8q12 0 20 8t8 19q0 12 -8 20zM82 700h-37v-700h37v700z" glyph-name="i.loclTRK" horiz-adv-x="128"/><glyph d="M275 26q42 39 42 115v56q0 133 -135 192q-2 1 -31.5 14t-56 52t-26.5 91v117h221l17 37h-275v-154q0 -89 47.5 -132.5t88.5 -57.5q36 -14 74.5 -50.5t38.5 -108.5v-56q0 -59 -30 -88q-28 -25 -76 -25q-50 0 -76 25q-30 29 -30 88v102h-37v-102q0 -76 42 -115 q38 -35 101 -35t101 35z" glyph-name="five.001" horiz-adv-x="345"/><glyph d="M-161 812h-27l-88 98h47zM-10 774h-327v-37h327v37z" glyph-name="uni0300_uni0304" horiz-adv-x="0"/><glyph d="M-71 910l-88 -98h-27l68 98h47zM-10 737v37h-327v-37h327z" glyph-name="uni0301_uni0304" horiz-adv-x="0"/><glyph d="M-161 812h-27l-88 98h47zM-10 774h-327v-37h327v37z" glyph-name="uni0304_uni0300" horiz-adv-x="0"/><glyph d="M-71 910l-88 -98h-27l68 98h47zM-10 737v37h-327v-37h327z" glyph-name="uni0304_uni0301" horiz-adv-x="0"/><glyph d="M-10 961l-88 -98h-27l68 98h47zM-42 766q-29 -29 -69 -29q-41 0 -69.5 29t-28.5 69h37q0 -25 17.5 -43t43.5 -18q25 0 43 18t18 43h37q0 -40 -29 -69z" glyph-name="uni03060301" horiz-adv-x="0"/><glyph d="M-94 863h-27l-88 98h47zM-151.5 792q17.5 -18 43.5 -18q25 0 43 18t18 43h37q0 -40 -29 -69t-69 -29q-41 0 -69.5 29t-28.5 69h37q0 -25 17.5 -43z" glyph-name="uni03060300" horiz-adv-x="0"/><glyph d="M-188 961q40 0 68 -28.5t28 -69.5h-33q0 25 -18.5 43t-44.5 18l-32 32q17 5 32 5zM-39 766q-29 -29 -69 -29q-41 0 -69.5 29t-28.5 69h37q0 -25 17.5 -43t43.5 -18q25 0 43 18t18 43h37q0 -40 -29 -69z" glyph-name="uni03060309" horiz-adv-x="0"/><glyph d="M-183 895q17 0 40 -14q29 -18 55 -18q41 0 78 46l-29 24q-24 -32 -50 -32q-17 0 -35 11q-34 20 -59 20q-40 0 -79 -47l29 -23q27 33 50 33zM-64 766q-29 -29 -69 -29q-41 0 -69.5 29t-28.5 69h37q0 -25 17.5 -43t43.5 -18q25 0 43 18t18 43h37q0 -40 -29 -69z" glyph-name="uni03060303" horiz-adv-x="0"/><glyph d="M-10 935l-88 -98h-27l68 98h47zM-171 835l68 -98h-27l-64 72l-65 -72h-27l68 98h47z" glyph-name="uni03020301" horiz-adv-x="0"/><glyph d="M-10 837h-27l-88 98h47zM-83 835l68 -98h-27l-64 72l-65 -72h-27l68 98h47z" glyph-name="uni03020300" horiz-adv-x="0"/><glyph d="M-181 961q40 0 68 -28.5t28 -69.5h-33q0 25 -18.5 43t-44.5 18l-32 32q17 5 32 5zM-78 835l68 -98h-27l-64 72l-65 -72h-27l68 98h47z" glyph-name="uni03020309" horiz-adv-x="0"/><glyph d="M-183 895q17 0 40 -14q29 -18 55 -18q41 0 78 46l-29 24q-24 -32 -50 -32q-17 0 -35 11q-34 20 -59 20q-40 0 -79 -47l29 -23q27 33 50 33zM-110 835l68 -98h-27l-64 72l-65 -72h-27l68 98h47z" glyph-name="uni03020303" horiz-adv-x="0"/><glyph d="M332 550v-404q0 -74 -43 -114q-37 -32 -101 -32h-143v331h-40v37h40v332h143q64 0 101 -35q43 -39 43 -115zM264 638q-28 25 -76 25h-106v-295h80v-37h-80v-294h106q107 0 107 109v404q0 59 -31 88z" glyph-name="dafrican" horiz-adv-x="360"/><glyph d="M77 377h152l-17 -37h-135v-382q0 -25 -17.5 -42.5t-42.5 -17.5v37q9 0 16 6.5t7 16.5v742h251l-17 -37h-197v-286z" glyph-name="fhook" horiz-adv-x="310"/><glyph d="M285 346q-24 -21 -58 -30l100 -316h-39l-98 311h-6h-107v-353q0 -10 7 -16.5t16 -6.5v-37q-25 0 -42.5 17.5t-17.5 42.5v742h144q63 0 101 -35q42 -39 42 -115v-89q0 -76 -42 -115zM290 461v89q0 60 -31 88q-27 25 -75 25h-107v-315h107q48 0 75 25q31 28 31 88z" glyph-name="rtail"/></font>
</defs>
</svg>
